ISO-10303-21;
HEADER;
FILE_DESCRIPTION(('FreeCAD Model'),'2;1');
FILE_NAME('Open CASCADE Shape Model','2026-06-12T08:29:46',(''),(''),
  'Open CASCADE STEP processor 7.9','FreeCAD','Unknown');
FILE_SCHEMA(('AUTOMOTIVE_DESIGN { 1 0 10303 214 1 1 1 1 }'));
ENDSEC;
DATA;
#1 = APPLICATION_PROTOCOL_DEFINITION('international standard',
  'automotive_design',2000,#2);
#2 = APPLICATION_CONTEXT(
  'core data for automotive mechanical design processes');
#3 = SHAPE_DEFINITION_REPRESENTATION(#4,#10);
#4 = PRODUCT_DEFINITION_SHAPE('','',#5);
#5 = PRODUCT_DEFINITION('design','',#6,#9);
#6 = PRODUCT_DEFINITION_FORMATION('','',#7);
#7 = PRODUCT('Body','Body','',(#8));
#8 = PRODUCT_CONTEXT('',#2,'mechanical');
#9 = PRODUCT_DEFINITION_CONTEXT('part definition',#2,'design');
#10 = ADVANCED_BREP_SHAPE_REPRESENTATION('',(#11,#15),#2331);
#11 = AXIS2_PLACEMENT_3D('',#12,#13,#14);
#12 = CARTESIAN_POINT('',(0.,0.,0.));
#13 = DIRECTION('',(0.,0.,1.));
#14 = DIRECTION('',(1.,0.,-0.));
#15 = MANIFOLD_SOLID_BREP('',#16);
#16 = CLOSED_SHELL('',(#17,#50,#76,#250,#259,#290,#360,#384,#408,#425,
    #449,#466,#490,#514,#531,#556,#587,#611,#635,#652,#677,#702,#1020,
    #1065,#1110,#1136,#1162,#1188,#1219,#1243,#1267,#1291,#1315,#1332,
    #1363,#1387,#1411,#1435,#1459,#1476,#1507,#1531,#1555,#1579,#1603,
    #1620,#1651,#1675,#1699,#1723,#1747,#1764,#1795,#1819,#1843,#1867,
    #1891,#1908,#1939,#1963,#1987,#2011,#2035,#2052,#2077,#2102,#2127,
    #2152,#2177,#2202,#2211,#2220,#2229,#2246,#2263,#2280,#2297,#2314));
#17 = ADVANCED_FACE('',(#18),#45,.T.);
#18 = FACE_BOUND('',#19,.F.);
#19 = EDGE_LOOP('',(#20,#30,#37,#38));
#20 = ORIENTED_EDGE('',*,*,#21,.T.);
#21 = EDGE_CURVE('',#22,#24,#26,.T.);
#22 = VERTEX_POINT('',#23);
#23 = CARTESIAN_POINT('',(14.775,15.,5.));
#24 = VERTEX_POINT('',#25);
#25 = CARTESIAN_POINT('',(14.775,15.,6.5));
#26 = LINE('',#27,#28);
#27 = CARTESIAN_POINT('',(14.775,15.,5.));
#28 = VECTOR('',#29,1.);
#29 = DIRECTION('',(0.,0.,1.));
#30 = ORIENTED_EDGE('',*,*,#31,.T.);
#31 = EDGE_CURVE('',#24,#24,#32,.T.);
#32 = CIRCLE('',#33,2.275);
#33 = AXIS2_PLACEMENT_3D('',#34,#35,#36);
#34 = CARTESIAN_POINT('',(12.5,15.,6.5));
#35 = DIRECTION('',(0.,0.,1.));
#36 = DIRECTION('',(1.,0.,0.));
#37 = ORIENTED_EDGE('',*,*,#21,.F.);
#38 = ORIENTED_EDGE('',*,*,#39,.F.);
#39 = EDGE_CURVE('',#22,#22,#40,.T.);
#40 = CIRCLE('',#41,2.275);
#41 = AXIS2_PLACEMENT_3D('',#42,#43,#44);
#42 = CARTESIAN_POINT('',(12.5,15.,5.));
#43 = DIRECTION('',(0.,0.,1.));
#44 = DIRECTION('',(1.,0.,0.));
#45 = CYLINDRICAL_SURFACE('',#46,2.275);
#46 = AXIS2_PLACEMENT_3D('',#47,#48,#49);
#47 = CARTESIAN_POINT('',(12.5,15.,5.));
#48 = DIRECTION('',(-0.,-0.,-1.));
#49 = DIRECTION('',(1.,0.,0.));
#50 = ADVANCED_FACE('',(#51),#71,.T.);
#51 = FACE_BOUND('',#52,.T.);
#52 = EDGE_LOOP('',(#53,#62,#63,#64));
#53 = ORIENTED_EDGE('',*,*,#54,.F.);
#54 = EDGE_CURVE('',#24,#55,#57,.T.);
#55 = VERTEX_POINT('',#56);
#56 = CARTESIAN_POINT('',(13.775,15.,7.5));
#57 = CIRCLE('',#58,1.);
#58 = AXIS2_PLACEMENT_3D('',#59,#60,#61);
#59 = CARTESIAN_POINT('',(13.775,15.,6.5));
#60 = DIRECTION('',(0.,-1.,0.));
#61 = DIRECTION('',(1.,0.,0.));
#62 = ORIENTED_EDGE('',*,*,#31,.T.);
#63 = ORIENTED_EDGE('',*,*,#54,.T.);
#64 = ORIENTED_EDGE('',*,*,#65,.F.);
#65 = EDGE_CURVE('',#55,#55,#66,.T.);
#66 = CIRCLE('',#67,1.275);
#67 = AXIS2_PLACEMENT_3D('',#68,#69,#70);
#68 = CARTESIAN_POINT('',(12.5,15.,7.5));
#69 = DIRECTION('',(0.,0.,1.));
#70 = DIRECTION('',(1.,0.,0.));
#71 = TOROIDAL_SURFACE('',#72,1.275,1.);
#72 = AXIS2_PLACEMENT_3D('',#73,#74,#75);
#73 = CARTESIAN_POINT('',(12.5,15.,6.5));
#74 = DIRECTION('',(0.,0.,1.));
#75 = DIRECTION('',(1.,0.,0.));
#76 = ADVANCED_FACE('',(#77,#175,#178,#189,#223,#234),#245,.T.);
#77 = FACE_BOUND('',#78,.T.);
#78 = EDGE_LOOP('',(#79,#89,#97,#105,#113,#121,#129,#137,#145,#153,#161,
    #169));
#79 = ORIENTED_EDGE('',*,*,#80,.T.);
#80 = EDGE_CURVE('',#81,#83,#85,.T.);
#81 = VERTEX_POINT('',#82);
#82 = CARTESIAN_POINT('',(0.,85.,5.));
#83 = VERTEX_POINT('',#84);
#84 = CARTESIAN_POINT('',(0.,0.,5.));
#85 = LINE('',#86,#87);
#86 = CARTESIAN_POINT('',(0.,85.,5.));
#87 = VECTOR('',#88,1.);
#88 = DIRECTION('',(0.,-1.,0.));
#89 = ORIENTED_EDGE('',*,*,#90,.T.);
#90 = EDGE_CURVE('',#83,#91,#93,.T.);
#91 = VERTEX_POINT('',#92);
#92 = CARTESIAN_POINT('',(105.,0.,5.));
#93 = LINE('',#94,#95);
#94 = CARTESIAN_POINT('',(0.,0.,5.));
#95 = VECTOR('',#96,1.);
#96 = DIRECTION('',(1.,0.,0.));
#97 = ORIENTED_EDGE('',*,*,#98,.T.);
#98 = EDGE_CURVE('',#91,#99,#101,.T.);
#99 = VERTEX_POINT('',#100);
#100 = CARTESIAN_POINT('',(105.,85.,5.));
#101 = LINE('',#102,#103);
#102 = CARTESIAN_POINT('',(105.,0.,5.));
#103 = VECTOR('',#104,1.);
#104 = DIRECTION('',(0.,1.,0.));
#105 = ORIENTED_EDGE('',*,*,#106,.T.);
#106 = EDGE_CURVE('',#99,#107,#109,.T.);
#107 = VERTEX_POINT('',#108);
#108 = CARTESIAN_POINT('',(100.,85.,5.));
#109 = LINE('',#110,#111);
#110 = CARTESIAN_POINT('',(105.,85.,5.));
#111 = VECTOR('',#112,1.);
#112 = DIRECTION('',(-1.,0.,0.));
#113 = ORIENTED_EDGE('',*,*,#114,.T.);
#114 = EDGE_CURVE('',#107,#115,#117,.T.);
#115 = VERTEX_POINT('',#116);
#116 = CARTESIAN_POINT('',(100.,73.,5.));
#117 = LINE('',#118,#119);
#118 = CARTESIAN_POINT('',(100.,85.,5.));
#119 = VECTOR('',#120,1.);
#120 = DIRECTION('',(0.,-1.,0.));
#121 = ORIENTED_EDGE('',*,*,#122,.T.);
#122 = EDGE_CURVE('',#115,#123,#125,.T.);
#123 = VERTEX_POINT('',#124);
#124 = CARTESIAN_POINT('',(54.999999999939,73.,5.));
#125 = LINE('',#126,#127);
#126 = CARTESIAN_POINT('',(100.,73.,5.));
#127 = VECTOR('',#128,1.);
#128 = DIRECTION('',(-1.,0.,0.));
#129 = ORIENTED_EDGE('',*,*,#130,.T.);
#130 = EDGE_CURVE('',#123,#131,#133,.T.);
#131 = VERTEX_POINT('',#132);
#132 = CARTESIAN_POINT('',(54.999999999939,85.,5.));
#133 = LINE('',#134,#135);
#134 = CARTESIAN_POINT('',(54.999999999939,73.,5.));
#135 = VECTOR('',#136,1.);
#136 = DIRECTION('',(0.,1.,0.));
#137 = ORIENTED_EDGE('',*,*,#138,.T.);
#138 = EDGE_CURVE('',#131,#139,#141,.T.);
#139 = VERTEX_POINT('',#140);
#140 = CARTESIAN_POINT('',(50.,85.,5.));
#141 = LINE('',#142,#143);
#142 = CARTESIAN_POINT('',(105.,85.,5.));
#143 = VECTOR('',#144,1.);
#144 = DIRECTION('',(-1.,0.,0.));
#145 = ORIENTED_EDGE('',*,*,#146,.T.);
#146 = EDGE_CURVE('',#139,#147,#149,.T.);
#147 = VERTEX_POINT('',#148);
#148 = CARTESIAN_POINT('',(50.,73.,5.));
#149 = LINE('',#150,#151);
#150 = CARTESIAN_POINT('',(50.,85.,5.));
#151 = VECTOR('',#152,1.);
#152 = DIRECTION('',(0.,-1.,0.));
#153 = ORIENTED_EDGE('',*,*,#154,.T.);
#154 = EDGE_CURVE('',#147,#155,#157,.T.);
#155 = VERTEX_POINT('',#156);
#156 = CARTESIAN_POINT('',(5.,73.,5.));
#157 = LINE('',#158,#159);
#158 = CARTESIAN_POINT('',(50.,73.,5.));
#159 = VECTOR('',#160,1.);
#160 = DIRECTION('',(-1.,0.,0.));
#161 = ORIENTED_EDGE('',*,*,#162,.T.);
#162 = EDGE_CURVE('',#155,#163,#165,.T.);
#163 = VERTEX_POINT('',#164);
#164 = CARTESIAN_POINT('',(5.,85.,5.));
#165 = LINE('',#166,#167);
#166 = CARTESIAN_POINT('',(5.,73.,5.));
#167 = VECTOR('',#168,1.);
#168 = DIRECTION('',(0.,1.,0.));
#169 = ORIENTED_EDGE('',*,*,#170,.T.);
#170 = EDGE_CURVE('',#163,#81,#171,.T.);
#171 = LINE('',#172,#173);
#172 = CARTESIAN_POINT('',(105.,85.,5.));
#173 = VECTOR('',#174,1.);
#174 = DIRECTION('',(-1.,0.,0.));
#175 = FACE_BOUND('',#176,.T.);
#176 = EDGE_LOOP('',(#177));
#177 = ORIENTED_EDGE('',*,*,#39,.F.);
#178 = FACE_BOUND('',#179,.T.);
#179 = EDGE_LOOP('',(#180));
#180 = ORIENTED_EDGE('',*,*,#181,.F.);
#181 = EDGE_CURVE('',#182,#182,#184,.T.);
#182 = VERTEX_POINT('',#183);
#183 = CARTESIAN_POINT('',(94.775,15.,5.));
#184 = CIRCLE('',#185,2.275);
#185 = AXIS2_PLACEMENT_3D('',#186,#187,#188);
#186 = CARTESIAN_POINT('',(92.5,15.,5.));
#187 = DIRECTION('',(0.,0.,1.));
#188 = DIRECTION('',(1.,0.,0.));
#189 = FACE_BOUND('',#190,.T.);
#190 = EDGE_LOOP('',(#191,#201,#209,#217));
#191 = ORIENTED_EDGE('',*,*,#192,.T.);
#192 = EDGE_CURVE('',#193,#195,#197,.T.);
#193 = VERTEX_POINT('',#194);
#194 = CARTESIAN_POINT('',(17.,15.,5.));
#195 = VERTEX_POINT('',#196);
#196 = CARTESIAN_POINT('',(17.,45.,5.));
#197 = LINE('',#198,#199);
#198 = CARTESIAN_POINT('',(17.,15.,5.));
#199 = VECTOR('',#200,1.);
#200 = DIRECTION('',(0.,1.,0.));
#201 = ORIENTED_EDGE('',*,*,#202,.T.);
#202 = EDGE_CURVE('',#195,#203,#205,.T.);
#203 = VERTEX_POINT('',#204);
#204 = CARTESIAN_POINT('',(88.,45.,5.));
#205 = LINE('',#206,#207);
#206 = CARTESIAN_POINT('',(17.,45.,5.));
#207 = VECTOR('',#208,1.);
#208 = DIRECTION('',(1.,0.,0.));
#209 = ORIENTED_EDGE('',*,*,#210,.T.);
#210 = EDGE_CURVE('',#203,#211,#213,.T.);
#211 = VERTEX_POINT('',#212);
#212 = CARTESIAN_POINT('',(88.,15.,5.));
#213 = LINE('',#214,#215);
#214 = CARTESIAN_POINT('',(88.,45.,5.));
#215 = VECTOR('',#216,1.);
#216 = DIRECTION('',(0.,-1.,0.));
#217 = ORIENTED_EDGE('',*,*,#218,.T.);
#218 = EDGE_CURVE('',#211,#193,#219,.T.);
#219 = LINE('',#220,#221);
#220 = CARTESIAN_POINT('',(88.,15.,5.));
#221 = VECTOR('',#222,1.);
#222 = DIRECTION('',(-1.,0.,0.));
#223 = FACE_BOUND('',#224,.T.);
#224 = EDGE_LOOP('',(#225));
#225 = ORIENTED_EDGE('',*,*,#226,.F.);
#226 = EDGE_CURVE('',#227,#227,#229,.T.);
#227 = VERTEX_POINT('',#228);
#228 = CARTESIAN_POINT('',(14.775,45.,5.));
#229 = CIRCLE('',#230,2.275);
#230 = AXIS2_PLACEMENT_3D('',#231,#232,#233);
#231 = CARTESIAN_POINT('',(12.5,45.,5.));
#232 = DIRECTION('',(0.,0.,1.));
#233 = DIRECTION('',(1.,0.,0.));
#234 = FACE_BOUND('',#235,.T.);
#235 = EDGE_LOOP('',(#236));
#236 = ORIENTED_EDGE('',*,*,#237,.F.);
#237 = EDGE_CURVE('',#238,#238,#240,.T.);
#238 = VERTEX_POINT('',#239);
#239 = CARTESIAN_POINT('',(94.775,45.,5.));
#240 = CIRCLE('',#241,2.275);
#241 = AXIS2_PLACEMENT_3D('',#242,#243,#244);
#242 = CARTESIAN_POINT('',(92.5,45.,5.));
#243 = DIRECTION('',(0.,0.,1.));
#244 = DIRECTION('',(1.,0.,0.));
#245 = PLANE('',#246);
#246 = AXIS2_PLACEMENT_3D('',#247,#248,#249);
#247 = CARTESIAN_POINT('',(52.5,42.5,5.));
#248 = DIRECTION('',(0.,0.,1.));
#249 = DIRECTION('',(1.,0.,0.));
#250 = ADVANCED_FACE('',(#251),#254,.T.);
#251 = FACE_BOUND('',#252,.T.);
#252 = EDGE_LOOP('',(#253));
#253 = ORIENTED_EDGE('',*,*,#65,.T.);
#254 = PLANE('',#255);
#255 = AXIS2_PLACEMENT_3D('',#256,#257,#258);
#256 = CARTESIAN_POINT('',(52.5,30.,7.5));
#257 = DIRECTION('',(0.,0.,1.));
#258 = DIRECTION('',(1.,0.,0.));
#259 = ADVANCED_FACE('',(#260),#285,.F.);
#260 = FACE_BOUND('',#261,.F.);
#261 = EDGE_LOOP('',(#262,#270,#271,#279));
#262 = ORIENTED_EDGE('',*,*,#263,.T.);
#263 = EDGE_CURVE('',#264,#81,#266,.T.);
#264 = VERTEX_POINT('',#265);
#265 = CARTESIAN_POINT('',(0.,85.,0.));
#266 = LINE('',#267,#268);
#267 = CARTESIAN_POINT('',(0.,85.,0.));
#268 = VECTOR('',#269,1.);
#269 = DIRECTION('',(0.,0.,1.));
#270 = ORIENTED_EDGE('',*,*,#80,.T.);
#271 = ORIENTED_EDGE('',*,*,#272,.F.);
#272 = EDGE_CURVE('',#273,#83,#275,.T.);
#273 = VERTEX_POINT('',#274);
#274 = CARTESIAN_POINT('',(0.,0.,0.));
#275 = LINE('',#276,#277);
#276 = CARTESIAN_POINT('',(0.,0.,0.));
#277 = VECTOR('',#278,1.);
#278 = DIRECTION('',(0.,0.,1.));
#279 = ORIENTED_EDGE('',*,*,#280,.F.);
#280 = EDGE_CURVE('',#264,#273,#281,.T.);
#281 = LINE('',#282,#283);
#282 = CARTESIAN_POINT('',(0.,85.,0.));
#283 = VECTOR('',#284,1.);
#284 = DIRECTION('',(0.,-1.,0.));
#285 = PLANE('',#286);
#286 = AXIS2_PLACEMENT_3D('',#287,#288,#289);
#287 = CARTESIAN_POINT('',(0.,85.,0.));
#288 = DIRECTION('',(1.,0.,0.));
#289 = DIRECTION('',(0.,-1.,0.));
#290 = ADVANCED_FACE('',(#291),#355,.F.);
#291 = FACE_BOUND('',#292,.F.);
#292 = EDGE_LOOP('',(#293,#301,#307,#308,#316,#324,#330,#331,#339,#347,
    #353,#354));
#293 = ORIENTED_EDGE('',*,*,#294,.F.);
#294 = EDGE_CURVE('',#295,#264,#297,.T.);
#295 = VERTEX_POINT('',#296);
#296 = CARTESIAN_POINT('',(105.,85.,0.));
#297 = LINE('',#298,#299);
#298 = CARTESIAN_POINT('',(105.,85.,0.));
#299 = VECTOR('',#300,1.);
#300 = DIRECTION('',(-1.,0.,0.));
#301 = ORIENTED_EDGE('',*,*,#302,.T.);
#302 = EDGE_CURVE('',#295,#99,#303,.T.);
#303 = LINE('',#304,#305);
#304 = CARTESIAN_POINT('',(105.,85.,0.));
#305 = VECTOR('',#306,1.);
#306 = DIRECTION('',(0.,0.,1.));
#307 = ORIENTED_EDGE('',*,*,#106,.T.);
#308 = ORIENTED_EDGE('',*,*,#309,.T.);
#309 = EDGE_CURVE('',#107,#310,#312,.T.);
#310 = VERTEX_POINT('',#311);
#311 = CARTESIAN_POINT('',(100.,85.,3.3));
#312 = LINE('',#313,#314);
#313 = CARTESIAN_POINT('',(100.,85.,5.));
#314 = VECTOR('',#315,1.);
#315 = DIRECTION('',(-0.,-0.,-1.));
#316 = ORIENTED_EDGE('',*,*,#317,.F.);
#317 = EDGE_CURVE('',#318,#310,#320,.T.);
#318 = VERTEX_POINT('',#319);
#319 = CARTESIAN_POINT('',(54.999999999939,85.,3.3));
#320 = LINE('',#321,#322);
#321 = CARTESIAN_POINT('',(54.999999999939,85.,3.3));
#322 = VECTOR('',#323,1.);
#323 = DIRECTION('',(1.,0.,0.));
#324 = ORIENTED_EDGE('',*,*,#325,.F.);
#325 = EDGE_CURVE('',#131,#318,#326,.T.);
#326 = LINE('',#327,#328);
#327 = CARTESIAN_POINT('',(54.999999999939,85.,5.));
#328 = VECTOR('',#329,1.);
#329 = DIRECTION('',(-0.,-0.,-1.));
#330 = ORIENTED_EDGE('',*,*,#138,.T.);
#331 = ORIENTED_EDGE('',*,*,#332,.T.);
#332 = EDGE_CURVE('',#139,#333,#335,.T.);
#333 = VERTEX_POINT('',#334);
#334 = CARTESIAN_POINT('',(50.,85.,3.3));
#335 = LINE('',#336,#337);
#336 = CARTESIAN_POINT('',(50.,85.,5.));
#337 = VECTOR('',#338,1.);
#338 = DIRECTION('',(-0.,-0.,-1.));
#339 = ORIENTED_EDGE('',*,*,#340,.F.);
#340 = EDGE_CURVE('',#341,#333,#343,.T.);
#341 = VERTEX_POINT('',#342);
#342 = CARTESIAN_POINT('',(5.,85.,3.3));
#343 = LINE('',#344,#345);
#344 = CARTESIAN_POINT('',(5.,85.,3.3));
#345 = VECTOR('',#346,1.);
#346 = DIRECTION('',(1.,0.,0.));
#347 = ORIENTED_EDGE('',*,*,#348,.F.);
#348 = EDGE_CURVE('',#163,#341,#349,.T.);
#349 = LINE('',#350,#351);
#350 = CARTESIAN_POINT('',(5.,85.,5.));
#351 = VECTOR('',#352,1.);
#352 = DIRECTION('',(-0.,-0.,-1.));
#353 = ORIENTED_EDGE('',*,*,#170,.T.);
#354 = ORIENTED_EDGE('',*,*,#263,.F.);
#355 = PLANE('',#356);
#356 = AXIS2_PLACEMENT_3D('',#357,#358,#359);
#357 = CARTESIAN_POINT('',(105.,85.,0.));
#358 = DIRECTION('',(0.,-1.,0.));
#359 = DIRECTION('',(-1.,0.,0.));
#360 = ADVANCED_FACE('',(#361),#379,.F.);
#361 = FACE_BOUND('',#362,.F.);
#362 = EDGE_LOOP('',(#363,#364,#365,#373));
#363 = ORIENTED_EDGE('',*,*,#272,.T.);
#364 = ORIENTED_EDGE('',*,*,#90,.T.);
#365 = ORIENTED_EDGE('',*,*,#366,.F.);
#366 = EDGE_CURVE('',#367,#91,#369,.T.);
#367 = VERTEX_POINT('',#368);
#368 = CARTESIAN_POINT('',(105.,0.,0.));
#369 = LINE('',#370,#371);
#370 = CARTESIAN_POINT('',(105.,0.,0.));
#371 = VECTOR('',#372,1.);
#372 = DIRECTION('',(0.,0.,1.));
#373 = ORIENTED_EDGE('',*,*,#374,.F.);
#374 = EDGE_CURVE('',#273,#367,#375,.T.);
#375 = LINE('',#376,#377);
#376 = CARTESIAN_POINT('',(0.,0.,0.));
#377 = VECTOR('',#378,1.);
#378 = DIRECTION('',(1.,0.,0.));
#379 = PLANE('',#380);
#380 = AXIS2_PLACEMENT_3D('',#381,#382,#383);
#381 = CARTESIAN_POINT('',(0.,0.,0.));
#382 = DIRECTION('',(0.,1.,0.));
#383 = DIRECTION('',(1.,0.,0.));
#384 = ADVANCED_FACE('',(#385),#403,.T.);
#385 = FACE_BOUND('',#386,.T.);
#386 = EDGE_LOOP('',(#387,#395,#401,#402));
#387 = ORIENTED_EDGE('',*,*,#388,.T.);
#388 = EDGE_CURVE('',#155,#389,#391,.T.);
#389 = VERTEX_POINT('',#390);
#390 = CARTESIAN_POINT('',(5.,73.,3.3));
#391 = LINE('',#392,#393);
#392 = CARTESIAN_POINT('',(5.,73.,5.));
#393 = VECTOR('',#394,1.);
#394 = DIRECTION('',(-0.,-0.,-1.));
#395 = ORIENTED_EDGE('',*,*,#396,.T.);
#396 = EDGE_CURVE('',#389,#341,#397,.T.);
#397 = LINE('',#398,#399);
#398 = CARTESIAN_POINT('',(5.,73.,3.3));
#399 = VECTOR('',#400,1.);
#400 = DIRECTION('',(0.,1.,0.));
#401 = ORIENTED_EDGE('',*,*,#348,.F.);
#402 = ORIENTED_EDGE('',*,*,#162,.F.);
#403 = PLANE('',#404);
#404 = AXIS2_PLACEMENT_3D('',#405,#406,#407);
#405 = CARTESIAN_POINT('',(5.,73.,5.));
#406 = DIRECTION('',(1.,0.,0.));
#407 = DIRECTION('',(0.,1.,0.));
#408 = ADVANCED_FACE('',(#409),#420,.F.);
#409 = FACE_BOUND('',#410,.F.);
#410 = EDGE_LOOP('',(#411,#412,#413,#414));
#411 = ORIENTED_EDGE('',*,*,#366,.T.);
#412 = ORIENTED_EDGE('',*,*,#98,.T.);
#413 = ORIENTED_EDGE('',*,*,#302,.F.);
#414 = ORIENTED_EDGE('',*,*,#415,.F.);
#415 = EDGE_CURVE('',#367,#295,#416,.T.);
#416 = LINE('',#417,#418);
#417 = CARTESIAN_POINT('',(105.,0.,0.));
#418 = VECTOR('',#419,1.);
#419 = DIRECTION('',(0.,1.,0.));
#420 = PLANE('',#421);
#421 = AXIS2_PLACEMENT_3D('',#422,#423,#424);
#422 = CARTESIAN_POINT('',(105.,0.,0.));
#423 = DIRECTION('',(-1.,0.,0.));
#424 = DIRECTION('',(0.,1.,0.));
#425 = ADVANCED_FACE('',(#426),#444,.T.);
#426 = FACE_BOUND('',#427,.T.);
#427 = EDGE_LOOP('',(#428,#436,#442,#443));
#428 = ORIENTED_EDGE('',*,*,#429,.T.);
#429 = EDGE_CURVE('',#147,#430,#432,.T.);
#430 = VERTEX_POINT('',#431);
#431 = CARTESIAN_POINT('',(50.,73.,3.3));
#432 = LINE('',#433,#434);
#433 = CARTESIAN_POINT('',(50.,73.,5.));
#434 = VECTOR('',#435,1.);
#435 = DIRECTION('',(-0.,-0.,-1.));
#436 = ORIENTED_EDGE('',*,*,#437,.T.);
#437 = EDGE_CURVE('',#430,#389,#438,.T.);
#438 = LINE('',#439,#440);
#439 = CARTESIAN_POINT('',(50.,73.,3.3));
#440 = VECTOR('',#441,1.);
#441 = DIRECTION('',(-1.,0.,0.));
#442 = ORIENTED_EDGE('',*,*,#388,.F.);
#443 = ORIENTED_EDGE('',*,*,#154,.F.);
#444 = PLANE('',#445);
#445 = AXIS2_PLACEMENT_3D('',#446,#447,#448);
#446 = CARTESIAN_POINT('',(50.,73.,5.));
#447 = DIRECTION('',(0.,1.,0.));
#448 = DIRECTION('',(-1.,0.,0.));
#449 = ADVANCED_FACE('',(#450),#461,.T.);
#450 = FACE_BOUND('',#451,.T.);
#451 = EDGE_LOOP('',(#452,#453,#459,#460));
#452 = ORIENTED_EDGE('',*,*,#332,.T.);
#453 = ORIENTED_EDGE('',*,*,#454,.T.);
#454 = EDGE_CURVE('',#333,#430,#455,.T.);
#455 = LINE('',#456,#457);
#456 = CARTESIAN_POINT('',(50.,85.,3.3));
#457 = VECTOR('',#458,1.);
#458 = DIRECTION('',(0.,-1.,0.));
#459 = ORIENTED_EDGE('',*,*,#429,.F.);
#460 = ORIENTED_EDGE('',*,*,#146,.F.);
#461 = PLANE('',#462);
#462 = AXIS2_PLACEMENT_3D('',#463,#464,#465);
#463 = CARTESIAN_POINT('',(50.,85.,5.));
#464 = DIRECTION('',(-1.,0.,0.));
#465 = DIRECTION('',(0.,-1.,0.));
#466 = ADVANCED_FACE('',(#467),#485,.T.);
#467 = FACE_BOUND('',#468,.T.);
#468 = EDGE_LOOP('',(#469,#470,#478,#484));
#469 = ORIENTED_EDGE('',*,*,#309,.T.);
#470 = ORIENTED_EDGE('',*,*,#471,.T.);
#471 = EDGE_CURVE('',#310,#472,#474,.T.);
#472 = VERTEX_POINT('',#473);
#473 = CARTESIAN_POINT('',(100.,73.,3.3));
#474 = LINE('',#475,#476);
#475 = CARTESIAN_POINT('',(100.,85.,3.3));
#476 = VECTOR('',#477,1.);
#477 = DIRECTION('',(0.,-1.,0.));
#478 = ORIENTED_EDGE('',*,*,#479,.F.);
#479 = EDGE_CURVE('',#115,#472,#480,.T.);
#480 = LINE('',#481,#482);
#481 = CARTESIAN_POINT('',(100.,73.,5.));
#482 = VECTOR('',#483,1.);
#483 = DIRECTION('',(-0.,-0.,-1.));
#484 = ORIENTED_EDGE('',*,*,#114,.F.);
#485 = PLANE('',#486);
#486 = AXIS2_PLACEMENT_3D('',#487,#488,#489);
#487 = CARTESIAN_POINT('',(100.,85.,5.));
#488 = DIRECTION('',(-1.,0.,0.));
#489 = DIRECTION('',(0.,-1.,0.));
#490 = ADVANCED_FACE('',(#491),#509,.T.);
#491 = FACE_BOUND('',#492,.T.);
#492 = EDGE_LOOP('',(#493,#494,#502,#508));
#493 = ORIENTED_EDGE('',*,*,#479,.T.);
#494 = ORIENTED_EDGE('',*,*,#495,.T.);
#495 = EDGE_CURVE('',#472,#496,#498,.T.);
#496 = VERTEX_POINT('',#497);
#497 = CARTESIAN_POINT('',(54.999999999939,73.,3.3));
#498 = LINE('',#499,#500);
#499 = CARTESIAN_POINT('',(100.,73.,3.3));
#500 = VECTOR('',#501,1.);
#501 = DIRECTION('',(-1.,0.,0.));
#502 = ORIENTED_EDGE('',*,*,#503,.F.);
#503 = EDGE_CURVE('',#123,#496,#504,.T.);
#504 = LINE('',#505,#506);
#505 = CARTESIAN_POINT('',(54.999999999939,73.,5.));
#506 = VECTOR('',#507,1.);
#507 = DIRECTION('',(-0.,-0.,-1.));
#508 = ORIENTED_EDGE('',*,*,#122,.F.);
#509 = PLANE('',#510);
#510 = AXIS2_PLACEMENT_3D('',#511,#512,#513);
#511 = CARTESIAN_POINT('',(100.,73.,5.));
#512 = DIRECTION('',(0.,1.,0.));
#513 = DIRECTION('',(-1.,0.,0.));
#514 = ADVANCED_FACE('',(#515),#526,.T.);
#515 = FACE_BOUND('',#516,.T.);
#516 = EDGE_LOOP('',(#517,#518,#524,#525));
#517 = ORIENTED_EDGE('',*,*,#503,.T.);
#518 = ORIENTED_EDGE('',*,*,#519,.T.);
#519 = EDGE_CURVE('',#496,#318,#520,.T.);
#520 = LINE('',#521,#522);
#521 = CARTESIAN_POINT('',(54.999999999939,73.,3.3));
#522 = VECTOR('',#523,1.);
#523 = DIRECTION('',(0.,1.,0.));
#524 = ORIENTED_EDGE('',*,*,#325,.F.);
#525 = ORIENTED_EDGE('',*,*,#130,.F.);
#526 = PLANE('',#527);
#527 = AXIS2_PLACEMENT_3D('',#528,#529,#530);
#528 = CARTESIAN_POINT('',(54.999999999939,73.,5.));
#529 = DIRECTION('',(1.,0.,0.));
#530 = DIRECTION('',(0.,1.,0.));
#531 = ADVANCED_FACE('',(#532),#551,.T.);
#532 = FACE_BOUND('',#533,.F.);
#533 = EDGE_LOOP('',(#534,#542,#549,#550));
#534 = ORIENTED_EDGE('',*,*,#535,.T.);
#535 = EDGE_CURVE('',#182,#536,#538,.T.);
#536 = VERTEX_POINT('',#537);
#537 = CARTESIAN_POINT('',(94.775,15.,6.5));
#538 = LINE('',#539,#540);
#539 = CARTESIAN_POINT('',(94.775,15.,5.));
#540 = VECTOR('',#541,1.);
#541 = DIRECTION('',(0.,0.,1.));
#542 = ORIENTED_EDGE('',*,*,#543,.T.);
#543 = EDGE_CURVE('',#536,#536,#544,.T.);
#544 = CIRCLE('',#545,2.275);
#545 = AXIS2_PLACEMENT_3D('',#546,#547,#548);
#546 = CARTESIAN_POINT('',(92.5,15.,6.5));
#547 = DIRECTION('',(0.,0.,1.));
#548 = DIRECTION('',(1.,0.,0.));
#549 = ORIENTED_EDGE('',*,*,#535,.F.);
#550 = ORIENTED_EDGE('',*,*,#181,.F.);
#551 = CYLINDRICAL_SURFACE('',#552,2.275);
#552 = AXIS2_PLACEMENT_3D('',#553,#554,#555);
#553 = CARTESIAN_POINT('',(92.5,15.,5.));
#554 = DIRECTION('',(-0.,-0.,-1.));
#555 = DIRECTION('',(1.,0.,0.));
#556 = ADVANCED_FACE('',(#557),#582,.T.);
#557 = FACE_BOUND('',#558,.T.);
#558 = EDGE_LOOP('',(#559,#567,#575,#581));
#559 = ORIENTED_EDGE('',*,*,#560,.T.);
#560 = EDGE_CURVE('',#193,#561,#563,.T.);
#561 = VERTEX_POINT('',#562);
#562 = CARTESIAN_POINT('',(17.,15.,0.));
#563 = LINE('',#564,#565);
#564 = CARTESIAN_POINT('',(17.,15.,5.));
#565 = VECTOR('',#566,1.);
#566 = DIRECTION('',(-0.,-0.,-1.));
#567 = ORIENTED_EDGE('',*,*,#568,.T.);
#568 = EDGE_CURVE('',#561,#569,#571,.T.);
#569 = VERTEX_POINT('',#570);
#570 = CARTESIAN_POINT('',(17.,45.,0.));
#571 = LINE('',#572,#573);
#572 = CARTESIAN_POINT('',(17.,15.,0.));
#573 = VECTOR('',#574,1.);
#574 = DIRECTION('',(0.,1.,0.));
#575 = ORIENTED_EDGE('',*,*,#576,.F.);
#576 = EDGE_CURVE('',#195,#569,#577,.T.);
#577 = LINE('',#578,#579);
#578 = CARTESIAN_POINT('',(17.,45.,5.));
#579 = VECTOR('',#580,1.);
#580 = DIRECTION('',(-0.,-0.,-1.));
#581 = ORIENTED_EDGE('',*,*,#192,.F.);
#582 = PLANE('',#583);
#583 = AXIS2_PLACEMENT_3D('',#584,#585,#586);
#584 = CARTESIAN_POINT('',(17.,15.,5.));
#585 = DIRECTION('',(1.,0.,0.));
#586 = DIRECTION('',(0.,1.,0.));
#587 = ADVANCED_FACE('',(#588),#606,.T.);
#588 = FACE_BOUND('',#589,.T.);
#589 = EDGE_LOOP('',(#590,#598,#604,#605));
#590 = ORIENTED_EDGE('',*,*,#591,.T.);
#591 = EDGE_CURVE('',#211,#592,#594,.T.);
#592 = VERTEX_POINT('',#593);
#593 = CARTESIAN_POINT('',(88.,15.,0.));
#594 = LINE('',#595,#596);
#595 = CARTESIAN_POINT('',(88.,15.,5.));
#596 = VECTOR('',#597,1.);
#597 = DIRECTION('',(-0.,-0.,-1.));
#598 = ORIENTED_EDGE('',*,*,#599,.T.);
#599 = EDGE_CURVE('',#592,#561,#600,.T.);
#600 = LINE('',#601,#602);
#601 = CARTESIAN_POINT('',(88.,15.,0.));
#602 = VECTOR('',#603,1.);
#603 = DIRECTION('',(-1.,0.,0.));
#604 = ORIENTED_EDGE('',*,*,#560,.F.);
#605 = ORIENTED_EDGE('',*,*,#218,.F.);
#606 = PLANE('',#607);
#607 = AXIS2_PLACEMENT_3D('',#608,#609,#610);
#608 = CARTESIAN_POINT('',(88.,15.,5.));
#609 = DIRECTION('',(0.,1.,0.));
#610 = DIRECTION('',(-1.,0.,0.));
#611 = ADVANCED_FACE('',(#612),#630,.T.);
#612 = FACE_BOUND('',#613,.T.);
#613 = EDGE_LOOP('',(#614,#615,#623,#629));
#614 = ORIENTED_EDGE('',*,*,#576,.T.);
#615 = ORIENTED_EDGE('',*,*,#616,.T.);
#616 = EDGE_CURVE('',#569,#617,#619,.T.);
#617 = VERTEX_POINT('',#618);
#618 = CARTESIAN_POINT('',(88.,45.,0.));
#619 = LINE('',#620,#621);
#620 = CARTESIAN_POINT('',(17.,45.,0.));
#621 = VECTOR('',#622,1.);
#622 = DIRECTION('',(1.,0.,0.));
#623 = ORIENTED_EDGE('',*,*,#624,.F.);
#624 = EDGE_CURVE('',#203,#617,#625,.T.);
#625 = LINE('',#626,#627);
#626 = CARTESIAN_POINT('',(88.,45.,5.));
#627 = VECTOR('',#628,1.);
#628 = DIRECTION('',(-0.,-0.,-1.));
#629 = ORIENTED_EDGE('',*,*,#202,.F.);
#630 = PLANE('',#631);
#631 = AXIS2_PLACEMENT_3D('',#632,#633,#634);
#632 = CARTESIAN_POINT('',(17.,45.,5.));
#633 = DIRECTION('',(0.,-1.,0.));
#634 = DIRECTION('',(1.,0.,0.));
#635 = ADVANCED_FACE('',(#636),#647,.T.);
#636 = FACE_BOUND('',#637,.T.);
#637 = EDGE_LOOP('',(#638,#639,#645,#646));
#638 = ORIENTED_EDGE('',*,*,#624,.T.);
#639 = ORIENTED_EDGE('',*,*,#640,.T.);
#640 = EDGE_CURVE('',#617,#592,#641,.T.);
#641 = LINE('',#642,#643);
#642 = CARTESIAN_POINT('',(88.,45.,0.));
#643 = VECTOR('',#644,1.);
#644 = DIRECTION('',(0.,-1.,0.));
#645 = ORIENTED_EDGE('',*,*,#591,.F.);
#646 = ORIENTED_EDGE('',*,*,#210,.F.);
#647 = PLANE('',#648);
#648 = AXIS2_PLACEMENT_3D('',#649,#650,#651);
#649 = CARTESIAN_POINT('',(88.,45.,5.));
#650 = DIRECTION('',(-1.,0.,0.));
#651 = DIRECTION('',(0.,-1.,0.));
#652 = ADVANCED_FACE('',(#653),#672,.T.);
#653 = FACE_BOUND('',#654,.F.);
#654 = EDGE_LOOP('',(#655,#663,#670,#671));
#655 = ORIENTED_EDGE('',*,*,#656,.T.);
#656 = EDGE_CURVE('',#227,#657,#659,.T.);
#657 = VERTEX_POINT('',#658);
#658 = CARTESIAN_POINT('',(14.775,45.,6.5));
#659 = LINE('',#660,#661);
#660 = CARTESIAN_POINT('',(14.775,45.,5.));
#661 = VECTOR('',#662,1.);
#662 = DIRECTION('',(0.,0.,1.));
#663 = ORIENTED_EDGE('',*,*,#664,.T.);
#664 = EDGE_CURVE('',#657,#657,#665,.T.);
#665 = CIRCLE('',#666,2.275);
#666 = AXIS2_PLACEMENT_3D('',#667,#668,#669);
#667 = CARTESIAN_POINT('',(12.5,45.,6.5));
#668 = DIRECTION('',(0.,0.,1.));
#669 = DIRECTION('',(1.,0.,0.));
#670 = ORIENTED_EDGE('',*,*,#656,.F.);
#671 = ORIENTED_EDGE('',*,*,#226,.F.);
#672 = CYLINDRICAL_SURFACE('',#673,2.275);
#673 = AXIS2_PLACEMENT_3D('',#674,#675,#676);
#674 = CARTESIAN_POINT('',(12.5,45.,5.));
#675 = DIRECTION('',(-0.,-0.,-1.));
#676 = DIRECTION('',(1.,0.,0.));
#677 = ADVANCED_FACE('',(#678),#697,.T.);
#678 = FACE_BOUND('',#679,.F.);
#679 = EDGE_LOOP('',(#680,#688,#695,#696));
#680 = ORIENTED_EDGE('',*,*,#681,.T.);
#681 = EDGE_CURVE('',#238,#682,#684,.T.);
#682 = VERTEX_POINT('',#683);
#683 = CARTESIAN_POINT('',(94.775,45.,6.5));
#684 = LINE('',#685,#686);
#685 = CARTESIAN_POINT('',(94.775,45.,5.));
#686 = VECTOR('',#687,1.);
#687 = DIRECTION('',(0.,0.,1.));
#688 = ORIENTED_EDGE('',*,*,#689,.T.);
#689 = EDGE_CURVE('',#682,#682,#690,.T.);
#690 = CIRCLE('',#691,2.275);
#691 = AXIS2_PLACEMENT_3D('',#692,#693,#694);
#692 = CARTESIAN_POINT('',(92.5,45.,6.5));
#693 = DIRECTION('',(0.,0.,1.));
#694 = DIRECTION('',(1.,0.,0.));
#695 = ORIENTED_EDGE('',*,*,#681,.F.);
#696 = ORIENTED_EDGE('',*,*,#237,.F.);
#697 = CYLINDRICAL_SURFACE('',#698,2.275);
#698 = AXIS2_PLACEMENT_3D('',#699,#700,#701);
#699 = CARTESIAN_POINT('',(92.5,45.,5.));
#700 = DIRECTION('',(-0.,-0.,-1.));
#701 = DIRECTION('',(1.,0.,0.));
#702 = ADVANCED_FACE('',(#703,#709,#715,#765,#815,#865,#915,#965),#1015,
  .F.);
#703 = FACE_BOUND('',#704,.F.);
#704 = EDGE_LOOP('',(#705,#706,#707,#708));
#705 = ORIENTED_EDGE('',*,*,#374,.T.);
#706 = ORIENTED_EDGE('',*,*,#415,.T.);
#707 = ORIENTED_EDGE('',*,*,#294,.T.);
#708 = ORIENTED_EDGE('',*,*,#280,.T.);
#709 = FACE_BOUND('',#710,.F.);
#710 = EDGE_LOOP('',(#711,#712,#713,#714));
#711 = ORIENTED_EDGE('',*,*,#568,.T.);
#712 = ORIENTED_EDGE('',*,*,#616,.T.);
#713 = ORIENTED_EDGE('',*,*,#640,.T.);
#714 = ORIENTED_EDGE('',*,*,#599,.T.);
#715 = FACE_BOUND('',#716,.F.);
#716 = EDGE_LOOP('',(#717,#727,#735,#743,#751,#759));
#717 = ORIENTED_EDGE('',*,*,#718,.T.);
#718 = EDGE_CURVE('',#719,#721,#723,.T.);
#719 = VERTEX_POINT('',#720);
#720 = CARTESIAN_POINT('',(13.125,82.814582562299,0.));
#721 = VERTEX_POINT('',#722);
#722 = CARTESIAN_POINT('',(14.75,80.,0.));
#723 = LINE('',#724,#725);
#724 = CARTESIAN_POINT('',(13.125,82.814582562299,0.));
#725 = VECTOR('',#726,1.);
#726 = DIRECTION('',(0.5,-0.866025403784,0.));
#727 = ORIENTED_EDGE('',*,*,#728,.T.);
#728 = EDGE_CURVE('',#721,#729,#731,.T.);
#729 = VERTEX_POINT('',#730);
#730 = CARTESIAN_POINT('',(13.125,77.185417437701,0.));
#731 = LINE('',#732,#733);
#732 = CARTESIAN_POINT('',(14.75,80.,0.));
#733 = VECTOR('',#734,1.);
#734 = DIRECTION('',(-0.5,-0.866025403784,0.));
#735 = ORIENTED_EDGE('',*,*,#736,.T.);
#736 = EDGE_CURVE('',#729,#737,#739,.T.);
#737 = VERTEX_POINT('',#738);
#738 = CARTESIAN_POINT('',(9.875,77.185417437701,0.));
#739 = LINE('',#740,#741);
#740 = CARTESIAN_POINT('',(13.125,77.185417437701,0.));
#741 = VECTOR('',#742,1.);
#742 = DIRECTION('',(-1.,0.,0.));
#743 = ORIENTED_EDGE('',*,*,#744,.T.);
#744 = EDGE_CURVE('',#737,#745,#747,.T.);
#745 = VERTEX_POINT('',#746);
#746 = CARTESIAN_POINT('',(8.25,80.,0.));
#747 = LINE('',#748,#749);
#748 = CARTESIAN_POINT('',(9.875,77.185417437701,0.));
#749 = VECTOR('',#750,1.);
#750 = DIRECTION('',(-0.5,0.866025403784,-0.));
#751 = ORIENTED_EDGE('',*,*,#752,.T.);
#752 = EDGE_CURVE('',#745,#753,#755,.T.);
#753 = VERTEX_POINT('',#754);
#754 = CARTESIAN_POINT('',(9.875,82.814582562299,0.));
#755 = LINE('',#756,#757);
#756 = CARTESIAN_POINT('',(8.25,80.,0.));
#757 = VECTOR('',#758,1.);
#758 = DIRECTION('',(0.5,0.866025403784,0.));
#759 = ORIENTED_EDGE('',*,*,#760,.T.);
#760 = EDGE_CURVE('',#753,#719,#761,.T.);
#761 = LINE('',#762,#763);
#762 = CARTESIAN_POINT('',(9.875,82.814582562299,0.));
#763 = VECTOR('',#764,1.);
#764 = DIRECTION('',(1.,0.,0.));
#765 = FACE_BOUND('',#766,.F.);
#766 = EDGE_LOOP('',(#767,#777,#785,#793,#801,#809));
#767 = ORIENTED_EDGE('',*,*,#768,.T.);
#768 = EDGE_CURVE('',#769,#771,#773,.T.);
#769 = VERTEX_POINT('',#770);
#770 = CARTESIAN_POINT('',(29.125,81.814582562299,0.));
#771 = VERTEX_POINT('',#772);
#772 = CARTESIAN_POINT('',(30.75,79.,0.));
#773 = LINE('',#774,#775);
#774 = CARTESIAN_POINT('',(29.125,81.814582562299,0.));
#775 = VECTOR('',#776,1.);
#776 = DIRECTION('',(0.5,-0.866025403784,0.));
#777 = ORIENTED_EDGE('',*,*,#778,.T.);
#778 = EDGE_CURVE('',#771,#779,#781,.T.);
#779 = VERTEX_POINT('',#780);
#780 = CARTESIAN_POINT('',(29.125,76.185417437701,0.));
#781 = LINE('',#782,#783);
#782 = CARTESIAN_POINT('',(30.75,79.,0.));
#783 = VECTOR('',#784,1.);
#784 = DIRECTION('',(-0.5,-0.866025403784,0.));
#785 = ORIENTED_EDGE('',*,*,#786,.T.);
#786 = EDGE_CURVE('',#779,#787,#789,.T.);
#787 = VERTEX_POINT('',#788);
#788 = CARTESIAN_POINT('',(25.875,76.185417437701,0.));
#789 = LINE('',#790,#791);
#790 = CARTESIAN_POINT('',(29.125,76.185417437701,0.));
#791 = VECTOR('',#792,1.);
#792 = DIRECTION('',(-1.,0.,0.));
#793 = ORIENTED_EDGE('',*,*,#794,.T.);
#794 = EDGE_CURVE('',#787,#795,#797,.T.);
#795 = VERTEX_POINT('',#796);
#796 = CARTESIAN_POINT('',(24.25,79.,0.));
#797 = LINE('',#798,#799);
#798 = CARTESIAN_POINT('',(25.875,76.185417437701,0.));
#799 = VECTOR('',#800,1.);
#800 = DIRECTION('',(-0.5,0.866025403784,-0.));
#801 = ORIENTED_EDGE('',*,*,#802,.T.);
#802 = EDGE_CURVE('',#795,#803,#805,.T.);
#803 = VERTEX_POINT('',#804);
#804 = CARTESIAN_POINT('',(25.875,81.814582562299,0.));
#805 = LINE('',#806,#807);
#806 = CARTESIAN_POINT('',(24.25,79.,0.));
#807 = VECTOR('',#808,1.);
#808 = DIRECTION('',(0.5,0.866025403784,0.));
#809 = ORIENTED_EDGE('',*,*,#810,.T.);
#810 = EDGE_CURVE('',#803,#769,#811,.T.);
#811 = LINE('',#812,#813);
#812 = CARTESIAN_POINT('',(25.875,81.814582562299,0.));
#813 = VECTOR('',#814,1.);
#814 = DIRECTION('',(1.,0.,0.));
#815 = FACE_BOUND('',#816,.F.);
#816 = EDGE_LOOP('',(#817,#827,#835,#843,#851,#859));
#817 = ORIENTED_EDGE('',*,*,#818,.T.);
#818 = EDGE_CURVE('',#819,#821,#823,.T.);
#819 = VERTEX_POINT('',#820);
#820 = CARTESIAN_POINT('',(45.125,82.814582562299,0.));
#821 = VERTEX_POINT('',#822);
#822 = CARTESIAN_POINT('',(46.75,80.,0.));
#823 = LINE('',#824,#825);
#824 = CARTESIAN_POINT('',(45.125,82.814582562299,0.));
#825 = VECTOR('',#826,1.);
#826 = DIRECTION('',(0.5,-0.866025403784,0.));
#827 = ORIENTED_EDGE('',*,*,#828,.T.);
#828 = EDGE_CURVE('',#821,#829,#831,.T.);
#829 = VERTEX_POINT('',#830);
#830 = CARTESIAN_POINT('',(45.125,77.185417437701,0.));
#831 = LINE('',#832,#833);
#832 = CARTESIAN_POINT('',(46.75,80.,0.));
#833 = VECTOR('',#834,1.);
#834 = DIRECTION('',(-0.5,-0.866025403784,0.));
#835 = ORIENTED_EDGE('',*,*,#836,.T.);
#836 = EDGE_CURVE('',#829,#837,#839,.T.);
#837 = VERTEX_POINT('',#838);
#838 = CARTESIAN_POINT('',(41.875,77.185417437701,0.));
#839 = LINE('',#840,#841);
#840 = CARTESIAN_POINT('',(45.125,77.185417437701,0.));
#841 = VECTOR('',#842,1.);
#842 = DIRECTION('',(-1.,0.,0.));
#843 = ORIENTED_EDGE('',*,*,#844,.T.);
#844 = EDGE_CURVE('',#837,#845,#847,.T.);
#845 = VERTEX_POINT('',#846);
#846 = CARTESIAN_POINT('',(40.25,80.,0.));
#847 = LINE('',#848,#849);
#848 = CARTESIAN_POINT('',(41.875,77.185417437701,0.));
#849 = VECTOR('',#850,1.);
#850 = DIRECTION('',(-0.5,0.866025403784,-0.));
#851 = ORIENTED_EDGE('',*,*,#852,.T.);
#852 = EDGE_CURVE('',#845,#853,#855,.T.);
#853 = VERTEX_POINT('',#854);
#854 = CARTESIAN_POINT('',(41.875,82.814582562299,0.));
#855 = LINE('',#856,#857);
#856 = CARTESIAN_POINT('',(40.25,80.,0.));
#857 = VECTOR('',#858,1.);
#858 = DIRECTION('',(0.5,0.866025403784,0.));
#859 = ORIENTED_EDGE('',*,*,#860,.T.);
#860 = EDGE_CURVE('',#853,#819,#861,.T.);
#861 = LINE('',#862,#863);
#862 = CARTESIAN_POINT('',(41.875,82.814582562299,0.));
#863 = VECTOR('',#864,1.);
#864 = DIRECTION('',(1.,0.,0.));
#865 = FACE_BOUND('',#866,.F.);
#866 = EDGE_LOOP('',(#867,#877,#885,#893,#901,#909));
#867 = ORIENTED_EDGE('',*,*,#868,.T.);
#868 = EDGE_CURVE('',#869,#871,#873,.T.);
#869 = VERTEX_POINT('',#870);
#870 = CARTESIAN_POINT('',(63.125,82.814582562299,0.));
#871 = VERTEX_POINT('',#872);
#872 = CARTESIAN_POINT('',(64.75,80.,0.));
#873 = LINE('',#874,#875);
#874 = CARTESIAN_POINT('',(63.125,82.814582562299,0.));
#875 = VECTOR('',#876,1.);
#876 = DIRECTION('',(0.5,-0.866025403784,0.));
#877 = ORIENTED_EDGE('',*,*,#878,.T.);
#878 = EDGE_CURVE('',#871,#879,#881,.T.);
#879 = VERTEX_POINT('',#880);
#880 = CARTESIAN_POINT('',(63.125,77.185417437701,0.));
#881 = LINE('',#882,#883);
#882 = CARTESIAN_POINT('',(64.75,80.,0.));
#883 = VECTOR('',#884,1.);
#884 = DIRECTION('',(-0.5,-0.866025403784,0.));
#885 = ORIENTED_EDGE('',*,*,#886,.T.);
#886 = EDGE_CURVE('',#879,#887,#889,.T.);
#887 = VERTEX_POINT('',#888);
#888 = CARTESIAN_POINT('',(59.875,77.185417437701,0.));
#889 = LINE('',#890,#891);
#890 = CARTESIAN_POINT('',(63.125,77.185417437701,0.));
#891 = VECTOR('',#892,1.);
#892 = DIRECTION('',(-1.,0.,0.));
#893 = ORIENTED_EDGE('',*,*,#894,.T.);
#894 = EDGE_CURVE('',#887,#895,#897,.T.);
#895 = VERTEX_POINT('',#896);
#896 = CARTESIAN_POINT('',(58.25,80.,0.));
#897 = LINE('',#898,#899);
#898 = CARTESIAN_POINT('',(59.875,77.185417437701,0.));
#899 = VECTOR('',#900,1.);
#900 = DIRECTION('',(-0.5,0.866025403784,-0.));
#901 = ORIENTED_EDGE('',*,*,#902,.T.);
#902 = EDGE_CURVE('',#895,#903,#905,.T.);
#903 = VERTEX_POINT('',#904);
#904 = CARTESIAN_POINT('',(59.875,82.814582562299,0.));
#905 = LINE('',#906,#907);
#906 = CARTESIAN_POINT('',(58.25,80.,0.));
#907 = VECTOR('',#908,1.);
#908 = DIRECTION('',(0.5,0.866025403784,0.));
#909 = ORIENTED_EDGE('',*,*,#910,.T.);
#910 = EDGE_CURVE('',#903,#869,#911,.T.);
#911 = LINE('',#912,#913);
#912 = CARTESIAN_POINT('',(59.875,82.814582562299,0.));
#913 = VECTOR('',#914,1.);
#914 = DIRECTION('',(1.,0.,0.));
#915 = FACE_BOUND('',#916,.F.);
#916 = EDGE_LOOP('',(#917,#927,#935,#943,#951,#959));
#917 = ORIENTED_EDGE('',*,*,#918,.T.);
#918 = EDGE_CURVE('',#919,#921,#923,.T.);
#919 = VERTEX_POINT('',#920);
#920 = CARTESIAN_POINT('',(79.125,81.814582562299,0.));
#921 = VERTEX_POINT('',#922);
#922 = CARTESIAN_POINT('',(80.75,79.,0.));
#923 = LINE('',#924,#925);
#924 = CARTESIAN_POINT('',(79.125,81.814582562299,0.));
#925 = VECTOR('',#926,1.);
#926 = DIRECTION('',(0.5,-0.866025403784,0.));
#927 = ORIENTED_EDGE('',*,*,#928,.T.);
#928 = EDGE_CURVE('',#921,#929,#931,.T.);
#929 = VERTEX_POINT('',#930);
#930 = CARTESIAN_POINT('',(79.125,76.185417437701,0.));
#931 = LINE('',#932,#933);
#932 = CARTESIAN_POINT('',(80.75,79.,0.));
#933 = VECTOR('',#934,1.);
#934 = DIRECTION('',(-0.5,-0.866025403784,0.));
#935 = ORIENTED_EDGE('',*,*,#936,.T.);
#936 = EDGE_CURVE('',#929,#937,#939,.T.);
#937 = VERTEX_POINT('',#938);
#938 = CARTESIAN_POINT('',(75.875,76.185417437701,0.));
#939 = LINE('',#940,#941);
#940 = CARTESIAN_POINT('',(79.125,76.185417437701,0.));
#941 = VECTOR('',#942,1.);
#942 = DIRECTION('',(-1.,0.,0.));
#943 = ORIENTED_EDGE('',*,*,#944,.T.);
#944 = EDGE_CURVE('',#937,#945,#947,.T.);
#945 = VERTEX_POINT('',#946);
#946 = CARTESIAN_POINT('',(74.25,79.,0.));
#947 = LINE('',#948,#949);
#948 = CARTESIAN_POINT('',(75.875,76.185417437701,0.));
#949 = VECTOR('',#950,1.);
#950 = DIRECTION('',(-0.5,0.866025403784,-0.));
#951 = ORIENTED_EDGE('',*,*,#952,.T.);
#952 = EDGE_CURVE('',#945,#953,#955,.T.);
#953 = VERTEX_POINT('',#954);
#954 = CARTESIAN_POINT('',(75.875,81.814582562299,0.));
#955 = LINE('',#956,#957);
#956 = CARTESIAN_POINT('',(74.25,79.,0.));
#957 = VECTOR('',#958,1.);
#958 = DIRECTION('',(0.5,0.866025403784,0.));
#959 = ORIENTED_EDGE('',*,*,#960,.T.);
#960 = EDGE_CURVE('',#953,#919,#961,.T.);
#961 = LINE('',#962,#963);
#962 = CARTESIAN_POINT('',(75.875,81.814582562299,0.));
#963 = VECTOR('',#964,1.);
#964 = DIRECTION('',(1.,0.,0.));
#965 = FACE_BOUND('',#966,.F.);
#966 = EDGE_LOOP('',(#967,#977,#985,#993,#1001,#1009));
#967 = ORIENTED_EDGE('',*,*,#968,.T.);
#968 = EDGE_CURVE('',#969,#971,#973,.T.);
#969 = VERTEX_POINT('',#970);
#970 = CARTESIAN_POINT('',(95.125,82.814582562299,0.));
#971 = VERTEX_POINT('',#972);
#972 = CARTESIAN_POINT('',(96.75,80.,0.));
#973 = LINE('',#974,#975);
#974 = CARTESIAN_POINT('',(95.125,82.814582562299,0.));
#975 = VECTOR('',#976,1.);
#976 = DIRECTION('',(0.5,-0.866025403784,0.));
#977 = ORIENTED_EDGE('',*,*,#978,.T.);
#978 = EDGE_CURVE('',#971,#979,#981,.T.);
#979 = VERTEX_POINT('',#980);
#980 = CARTESIAN_POINT('',(95.125,77.185417437701,0.));
#981 = LINE('',#982,#983);
#982 = CARTESIAN_POINT('',(96.75,80.,0.));
#983 = VECTOR('',#984,1.);
#984 = DIRECTION('',(-0.5,-0.866025403784,0.));
#985 = ORIENTED_EDGE('',*,*,#986,.T.);
#986 = EDGE_CURVE('',#979,#987,#989,.T.);
#987 = VERTEX_POINT('',#988);
#988 = CARTESIAN_POINT('',(91.875,77.185417437701,0.));
#989 = LINE('',#990,#991);
#990 = CARTESIAN_POINT('',(95.125,77.185417437701,0.));
#991 = VECTOR('',#992,1.);
#992 = DIRECTION('',(-1.,0.,0.));
#993 = ORIENTED_EDGE('',*,*,#994,.T.);
#994 = EDGE_CURVE('',#987,#995,#997,.T.);
#995 = VERTEX_POINT('',#996);
#996 = CARTESIAN_POINT('',(90.25,80.,0.));
#997 = LINE('',#998,#999);
#998 = CARTESIAN_POINT('',(91.875,77.185417437701,0.));
#999 = VECTOR('',#1000,1.);
#1000 = DIRECTION('',(-0.5,0.866025403784,-0.));
#1001 = ORIENTED_EDGE('',*,*,#1002,.T.);
#1002 = EDGE_CURVE('',#995,#1003,#1005,.T.);
#1003 = VERTEX_POINT('',#1004);
#1004 = CARTESIAN_POINT('',(91.875,82.814582562299,0.));
#1005 = LINE('',#1006,#1007);
#1006 = CARTESIAN_POINT('',(90.25,80.,0.));
#1007 = VECTOR('',#1008,1.);
#1008 = DIRECTION('',(0.5,0.866025403784,0.));
#1009 = ORIENTED_EDGE('',*,*,#1010,.T.);
#1010 = EDGE_CURVE('',#1003,#969,#1011,.T.);
#1011 = LINE('',#1012,#1013);
#1012 = CARTESIAN_POINT('',(91.875,82.814582562299,0.));
#1013 = VECTOR('',#1014,1.);
#1014 = DIRECTION('',(1.,0.,0.));
#1015 = PLANE('',#1016);
#1016 = AXIS2_PLACEMENT_3D('',#1017,#1018,#1019);
#1017 = CARTESIAN_POINT('',(52.5,42.5,0.));
#1018 = DIRECTION('',(0.,0.,1.));
#1019 = DIRECTION('',(1.,0.,0.));
#1020 = ADVANCED_FACE('',(#1021,#1027,#1038,#1049),#1060,.T.);
#1021 = FACE_BOUND('',#1022,.T.);
#1022 = EDGE_LOOP('',(#1023,#1024,#1025,#1026));
#1023 = ORIENTED_EDGE('',*,*,#340,.F.);
#1024 = ORIENTED_EDGE('',*,*,#396,.F.);
#1025 = ORIENTED_EDGE('',*,*,#437,.F.);
#1026 = ORIENTED_EDGE('',*,*,#454,.F.);
#1027 = FACE_BOUND('',#1028,.T.);
#1028 = EDGE_LOOP('',(#1029));
#1029 = ORIENTED_EDGE('',*,*,#1030,.F.);
#1030 = EDGE_CURVE('',#1031,#1031,#1033,.T.);
#1031 = VERTEX_POINT('',#1032);
#1032 = CARTESIAN_POINT('',(29.1,79.,3.3));
#1033 = CIRCLE('',#1034,1.6);
#1034 = AXIS2_PLACEMENT_3D('',#1035,#1036,#1037);
#1035 = CARTESIAN_POINT('',(27.5,79.,3.3));
#1036 = DIRECTION('',(0.,0.,1.));
#1037 = DIRECTION('',(1.,0.,0.));
#1038 = FACE_BOUND('',#1039,.T.);
#1039 = EDGE_LOOP('',(#1040));
#1040 = ORIENTED_EDGE('',*,*,#1041,.F.);
#1041 = EDGE_CURVE('',#1042,#1042,#1044,.T.);
#1042 = VERTEX_POINT('',#1043);
#1043 = CARTESIAN_POINT('',(13.1,80.,3.3));
#1044 = CIRCLE('',#1045,1.6);
#1045 = AXIS2_PLACEMENT_3D('',#1046,#1047,#1048);
#1046 = CARTESIAN_POINT('',(11.5,80.,3.3));
#1047 = DIRECTION('',(0.,0.,1.));
#1048 = DIRECTION('',(1.,0.,0.));
#1049 = FACE_BOUND('',#1050,.T.);
#1050 = EDGE_LOOP('',(#1051));
#1051 = ORIENTED_EDGE('',*,*,#1052,.F.);
#1052 = EDGE_CURVE('',#1053,#1053,#1055,.T.);
#1053 = VERTEX_POINT('',#1054);
#1054 = CARTESIAN_POINT('',(45.1,80.,3.3));
#1055 = CIRCLE('',#1056,1.6);
#1056 = AXIS2_PLACEMENT_3D('',#1057,#1058,#1059);
#1057 = CARTESIAN_POINT('',(43.5,80.,3.3));
#1058 = DIRECTION('',(0.,0.,1.));
#1059 = DIRECTION('',(1.,0.,0.));
#1060 = PLANE('',#1061);
#1061 = AXIS2_PLACEMENT_3D('',#1062,#1063,#1064);
#1062 = CARTESIAN_POINT('',(52.499999999998,79.,3.3));
#1063 = DIRECTION('',(0.,0.,1.));
#1064 = DIRECTION('',(1.,0.,0.));
#1065 = ADVANCED_FACE('',(#1066,#1072,#1083,#1094),#1105,.T.);
#1066 = FACE_BOUND('',#1067,.T.);
#1067 = EDGE_LOOP('',(#1068,#1069,#1070,#1071));
#1068 = ORIENTED_EDGE('',*,*,#317,.F.);
#1069 = ORIENTED_EDGE('',*,*,#519,.F.);
#1070 = ORIENTED_EDGE('',*,*,#495,.F.);
#1071 = ORIENTED_EDGE('',*,*,#471,.F.);
#1072 = FACE_BOUND('',#1073,.T.);
#1073 = EDGE_LOOP('',(#1074));
#1074 = ORIENTED_EDGE('',*,*,#1075,.F.);
#1075 = EDGE_CURVE('',#1076,#1076,#1078,.T.);
#1076 = VERTEX_POINT('',#1077);
#1077 = CARTESIAN_POINT('',(79.1,79.,3.3));
#1078 = CIRCLE('',#1079,1.6);
#1079 = AXIS2_PLACEMENT_3D('',#1080,#1081,#1082);
#1080 = CARTESIAN_POINT('',(77.5,79.,3.3));
#1081 = DIRECTION('',(0.,0.,1.));
#1082 = DIRECTION('',(1.,0.,0.));
#1083 = FACE_BOUND('',#1084,.T.);
#1084 = EDGE_LOOP('',(#1085));
#1085 = ORIENTED_EDGE('',*,*,#1086,.F.);
#1086 = EDGE_CURVE('',#1087,#1087,#1089,.T.);
#1087 = VERTEX_POINT('',#1088);
#1088 = CARTESIAN_POINT('',(63.1,80.,3.3));
#1089 = CIRCLE('',#1090,1.6);
#1090 = AXIS2_PLACEMENT_3D('',#1091,#1092,#1093);
#1091 = CARTESIAN_POINT('',(61.5,80.,3.3));
#1092 = DIRECTION('',(0.,0.,1.));
#1093 = DIRECTION('',(1.,0.,0.));
#1094 = FACE_BOUND('',#1095,.T.);
#1095 = EDGE_LOOP('',(#1096));
#1096 = ORIENTED_EDGE('',*,*,#1097,.F.);
#1097 = EDGE_CURVE('',#1098,#1098,#1100,.T.);
#1098 = VERTEX_POINT('',#1099);
#1099 = CARTESIAN_POINT('',(95.1,80.,3.3));
#1100 = CIRCLE('',#1101,1.6);
#1101 = AXIS2_PLACEMENT_3D('',#1102,#1103,#1104);
#1102 = CARTESIAN_POINT('',(93.5,80.,3.3));
#1103 = DIRECTION('',(0.,0.,1.));
#1104 = DIRECTION('',(1.,0.,0.));
#1105 = PLANE('',#1106);
#1106 = AXIS2_PLACEMENT_3D('',#1107,#1108,#1109);
#1107 = CARTESIAN_POINT('',(52.499999999998,79.,3.3));
#1108 = DIRECTION('',(0.,0.,1.));
#1109 = DIRECTION('',(1.,0.,0.));
#1110 = ADVANCED_FACE('',(#1111),#1131,.T.);
#1111 = FACE_BOUND('',#1112,.T.);
#1112 = EDGE_LOOP('',(#1113,#1122,#1123,#1124));
#1113 = ORIENTED_EDGE('',*,*,#1114,.F.);
#1114 = EDGE_CURVE('',#536,#1115,#1117,.T.);
#1115 = VERTEX_POINT('',#1116);
#1116 = CARTESIAN_POINT('',(93.775,15.,7.5));
#1117 = CIRCLE('',#1118,1.);
#1118 = AXIS2_PLACEMENT_3D('',#1119,#1120,#1121);
#1119 = CARTESIAN_POINT('',(93.775,15.,6.5));
#1120 = DIRECTION('',(0.,-1.,0.));
#1121 = DIRECTION('',(1.,0.,0.));
#1122 = ORIENTED_EDGE('',*,*,#543,.T.);
#1123 = ORIENTED_EDGE('',*,*,#1114,.T.);
#1124 = ORIENTED_EDGE('',*,*,#1125,.F.);
#1125 = EDGE_CURVE('',#1115,#1115,#1126,.T.);
#1126 = CIRCLE('',#1127,1.275);
#1127 = AXIS2_PLACEMENT_3D('',#1128,#1129,#1130);
#1128 = CARTESIAN_POINT('',(92.5,15.,7.5));
#1129 = DIRECTION('',(0.,0.,1.));
#1130 = DIRECTION('',(1.,0.,0.));
#1131 = TOROIDAL_SURFACE('',#1132,1.275,1.);
#1132 = AXIS2_PLACEMENT_3D('',#1133,#1134,#1135);
#1133 = CARTESIAN_POINT('',(92.5,15.,6.5));
#1134 = DIRECTION('',(0.,0.,1.));
#1135 = DIRECTION('',(1.,0.,0.));
#1136 = ADVANCED_FACE('',(#1137),#1157,.T.);
#1137 = FACE_BOUND('',#1138,.T.);
#1138 = EDGE_LOOP('',(#1139,#1148,#1149,#1150));
#1139 = ORIENTED_EDGE('',*,*,#1140,.F.);
#1140 = EDGE_CURVE('',#657,#1141,#1143,.T.);
#1141 = VERTEX_POINT('',#1142);
#1142 = CARTESIAN_POINT('',(13.775,45.,7.5));
#1143 = CIRCLE('',#1144,1.);
#1144 = AXIS2_PLACEMENT_3D('',#1145,#1146,#1147);
#1145 = CARTESIAN_POINT('',(13.775,45.,6.5));
#1146 = DIRECTION('',(0.,-1.,0.));
#1147 = DIRECTION('',(1.,0.,0.));
#1148 = ORIENTED_EDGE('',*,*,#664,.T.);
#1149 = ORIENTED_EDGE('',*,*,#1140,.T.);
#1150 = ORIENTED_EDGE('',*,*,#1151,.F.);
#1151 = EDGE_CURVE('',#1141,#1141,#1152,.T.);
#1152 = CIRCLE('',#1153,1.275);
#1153 = AXIS2_PLACEMENT_3D('',#1154,#1155,#1156);
#1154 = CARTESIAN_POINT('',(12.5,45.,7.5));
#1155 = DIRECTION('',(0.,0.,1.));
#1156 = DIRECTION('',(1.,0.,0.));
#1157 = TOROIDAL_SURFACE('',#1158,1.275,1.);
#1158 = AXIS2_PLACEMENT_3D('',#1159,#1160,#1161);
#1159 = CARTESIAN_POINT('',(12.5,45.,6.5));
#1160 = DIRECTION('',(0.,0.,1.));
#1161 = DIRECTION('',(1.,0.,0.));
#1162 = ADVANCED_FACE('',(#1163),#1183,.T.);
#1163 = FACE_BOUND('',#1164,.T.);
#1164 = EDGE_LOOP('',(#1165,#1174,#1175,#1176));
#1165 = ORIENTED_EDGE('',*,*,#1166,.F.);
#1166 = EDGE_CURVE('',#682,#1167,#1169,.T.);
#1167 = VERTEX_POINT('',#1168);
#1168 = CARTESIAN_POINT('',(93.775,45.,7.5));
#1169 = CIRCLE('',#1170,1.);
#1170 = AXIS2_PLACEMENT_3D('',#1171,#1172,#1173);
#1171 = CARTESIAN_POINT('',(93.775,45.,6.5));
#1172 = DIRECTION('',(0.,-1.,0.));
#1173 = DIRECTION('',(1.,0.,0.));
#1174 = ORIENTED_EDGE('',*,*,#689,.T.);
#1175 = ORIENTED_EDGE('',*,*,#1166,.T.);
#1176 = ORIENTED_EDGE('',*,*,#1177,.F.);
#1177 = EDGE_CURVE('',#1167,#1167,#1178,.T.);
#1178 = CIRCLE('',#1179,1.275);
#1179 = AXIS2_PLACEMENT_3D('',#1180,#1181,#1182);
#1180 = CARTESIAN_POINT('',(92.5,45.,7.5));
#1181 = DIRECTION('',(0.,0.,1.));
#1182 = DIRECTION('',(1.,0.,0.));
#1183 = TOROIDAL_SURFACE('',#1184,1.275,1.);
#1184 = AXIS2_PLACEMENT_3D('',#1185,#1186,#1187);
#1185 = CARTESIAN_POINT('',(92.5,45.,6.5));
#1186 = DIRECTION('',(0.,0.,1.));
#1187 = DIRECTION('',(1.,0.,0.));
#1188 = ADVANCED_FACE('',(#1189),#1214,.F.);
#1189 = FACE_BOUND('',#1190,.F.);
#1190 = EDGE_LOOP('',(#1191,#1199,#1207,#1213));
#1191 = ORIENTED_EDGE('',*,*,#1192,.T.);
#1192 = EDGE_CURVE('',#719,#1193,#1195,.T.);
#1193 = VERTEX_POINT('',#1194);
#1194 = CARTESIAN_POINT('',(13.125,82.814582562299,2.5));
#1195 = LINE('',#1196,#1197);
#1196 = CARTESIAN_POINT('',(13.125,82.814582562299,0.));
#1197 = VECTOR('',#1198,1.);
#1198 = DIRECTION('',(0.,0.,1.));
#1199 = ORIENTED_EDGE('',*,*,#1200,.T.);
#1200 = EDGE_CURVE('',#1193,#1201,#1203,.T.);
#1201 = VERTEX_POINT('',#1202);
#1202 = CARTESIAN_POINT('',(14.75,80.,2.5));
#1203 = LINE('',#1204,#1205);
#1204 = CARTESIAN_POINT('',(13.125,82.814582562299,2.5));
#1205 = VECTOR('',#1206,1.);
#1206 = DIRECTION('',(0.5,-0.866025403784,0.));
#1207 = ORIENTED_EDGE('',*,*,#1208,.F.);
#1208 = EDGE_CURVE('',#721,#1201,#1209,.T.);
#1209 = LINE('',#1210,#1211);
#1210 = CARTESIAN_POINT('',(14.75,80.,0.));
#1211 = VECTOR('',#1212,1.);
#1212 = DIRECTION('',(0.,0.,1.));
#1213 = ORIENTED_EDGE('',*,*,#718,.F.);
#1214 = PLANE('',#1215);
#1215 = AXIS2_PLACEMENT_3D('',#1216,#1217,#1218);
#1216 = CARTESIAN_POINT('',(13.125,82.814582562299,0.));
#1217 = DIRECTION('',(0.866025403784,0.5,0.));
#1218 = DIRECTION('',(0.5,-0.866025403784,0.));
#1219 = ADVANCED_FACE('',(#1220),#1238,.F.);
#1220 = FACE_BOUND('',#1221,.F.);
#1221 = EDGE_LOOP('',(#1222,#1230,#1236,#1237));
#1222 = ORIENTED_EDGE('',*,*,#1223,.T.);
#1223 = EDGE_CURVE('',#753,#1224,#1226,.T.);
#1224 = VERTEX_POINT('',#1225);
#1225 = CARTESIAN_POINT('',(9.875,82.814582562299,2.5));
#1226 = LINE('',#1227,#1228);
#1227 = CARTESIAN_POINT('',(9.875,82.814582562299,0.));
#1228 = VECTOR('',#1229,1.);
#1229 = DIRECTION('',(0.,0.,1.));
#1230 = ORIENTED_EDGE('',*,*,#1231,.T.);
#1231 = EDGE_CURVE('',#1224,#1193,#1232,.T.);
#1232 = LINE('',#1233,#1234);
#1233 = CARTESIAN_POINT('',(9.875,82.814582562299,2.5));
#1234 = VECTOR('',#1235,1.);
#1235 = DIRECTION('',(1.,0.,0.));
#1236 = ORIENTED_EDGE('',*,*,#1192,.F.);
#1237 = ORIENTED_EDGE('',*,*,#760,.F.);
#1238 = PLANE('',#1239);
#1239 = AXIS2_PLACEMENT_3D('',#1240,#1241,#1242);
#1240 = CARTESIAN_POINT('',(9.875,82.814582562299,0.));
#1241 = DIRECTION('',(0.,1.,0.));
#1242 = DIRECTION('',(1.,0.,0.));
#1243 = ADVANCED_FACE('',(#1244),#1262,.F.);
#1244 = FACE_BOUND('',#1245,.F.);
#1245 = EDGE_LOOP('',(#1246,#1254,#1260,#1261));
#1246 = ORIENTED_EDGE('',*,*,#1247,.T.);
#1247 = EDGE_CURVE('',#745,#1248,#1250,.T.);
#1248 = VERTEX_POINT('',#1249);
#1249 = CARTESIAN_POINT('',(8.25,80.,2.5));
#1250 = LINE('',#1251,#1252);
#1251 = CARTESIAN_POINT('',(8.25,80.,0.));
#1252 = VECTOR('',#1253,1.);
#1253 = DIRECTION('',(0.,0.,1.));
#1254 = ORIENTED_EDGE('',*,*,#1255,.T.);
#1255 = EDGE_CURVE('',#1248,#1224,#1256,.T.);
#1256 = LINE('',#1257,#1258);
#1257 = CARTESIAN_POINT('',(8.25,80.,2.5));
#1258 = VECTOR('',#1259,1.);
#1259 = DIRECTION('',(0.5,0.866025403784,0.));
#1260 = ORIENTED_EDGE('',*,*,#1223,.F.);
#1261 = ORIENTED_EDGE('',*,*,#752,.F.);
#1262 = PLANE('',#1263);
#1263 = AXIS2_PLACEMENT_3D('',#1264,#1265,#1266);
#1264 = CARTESIAN_POINT('',(8.25,80.,0.));
#1265 = DIRECTION('',(-0.866025403784,0.5,0.));
#1266 = DIRECTION('',(0.5,0.866025403784,0.));
#1267 = ADVANCED_FACE('',(#1268),#1286,.F.);
#1268 = FACE_BOUND('',#1269,.F.);
#1269 = EDGE_LOOP('',(#1270,#1278,#1284,#1285));
#1270 = ORIENTED_EDGE('',*,*,#1271,.T.);
#1271 = EDGE_CURVE('',#737,#1272,#1274,.T.);
#1272 = VERTEX_POINT('',#1273);
#1273 = CARTESIAN_POINT('',(9.875,77.185417437701,2.5));
#1274 = LINE('',#1275,#1276);
#1275 = CARTESIAN_POINT('',(9.875,77.185417437701,0.));
#1276 = VECTOR('',#1277,1.);
#1277 = DIRECTION('',(0.,0.,1.));
#1278 = ORIENTED_EDGE('',*,*,#1279,.T.);
#1279 = EDGE_CURVE('',#1272,#1248,#1280,.T.);
#1280 = LINE('',#1281,#1282);
#1281 = CARTESIAN_POINT('',(9.875,77.185417437701,2.5));
#1282 = VECTOR('',#1283,1.);
#1283 = DIRECTION('',(-0.5,0.866025403784,-0.));
#1284 = ORIENTED_EDGE('',*,*,#1247,.F.);
#1285 = ORIENTED_EDGE('',*,*,#744,.F.);
#1286 = PLANE('',#1287);
#1287 = AXIS2_PLACEMENT_3D('',#1288,#1289,#1290);
#1288 = CARTESIAN_POINT('',(9.875,77.185417437701,0.));
#1289 = DIRECTION('',(-0.866025403784,-0.5,0.));
#1290 = DIRECTION('',(-0.5,0.866025403784,0.));
#1291 = ADVANCED_FACE('',(#1292),#1310,.F.);
#1292 = FACE_BOUND('',#1293,.F.);
#1293 = EDGE_LOOP('',(#1294,#1302,#1308,#1309));
#1294 = ORIENTED_EDGE('',*,*,#1295,.T.);
#1295 = EDGE_CURVE('',#729,#1296,#1298,.T.);
#1296 = VERTEX_POINT('',#1297);
#1297 = CARTESIAN_POINT('',(13.125,77.185417437701,2.5));
#1298 = LINE('',#1299,#1300);
#1299 = CARTESIAN_POINT('',(13.125,77.185417437701,0.));
#1300 = VECTOR('',#1301,1.);
#1301 = DIRECTION('',(0.,0.,1.));
#1302 = ORIENTED_EDGE('',*,*,#1303,.T.);
#1303 = EDGE_CURVE('',#1296,#1272,#1304,.T.);
#1304 = LINE('',#1305,#1306);
#1305 = CARTESIAN_POINT('',(13.125,77.185417437701,2.5));
#1306 = VECTOR('',#1307,1.);
#1307 = DIRECTION('',(-1.,0.,0.));
#1308 = ORIENTED_EDGE('',*,*,#1271,.F.);
#1309 = ORIENTED_EDGE('',*,*,#736,.F.);
#1310 = PLANE('',#1311);
#1311 = AXIS2_PLACEMENT_3D('',#1312,#1313,#1314);
#1312 = CARTESIAN_POINT('',(13.125,77.185417437701,0.));
#1313 = DIRECTION('',(0.,-1.,0.));
#1314 = DIRECTION('',(-1.,0.,0.));
#1315 = ADVANCED_FACE('',(#1316),#1327,.F.);
#1316 = FACE_BOUND('',#1317,.F.);
#1317 = EDGE_LOOP('',(#1318,#1319,#1325,#1326));
#1318 = ORIENTED_EDGE('',*,*,#1208,.T.);
#1319 = ORIENTED_EDGE('',*,*,#1320,.T.);
#1320 = EDGE_CURVE('',#1201,#1296,#1321,.T.);
#1321 = LINE('',#1322,#1323);
#1322 = CARTESIAN_POINT('',(14.75,80.,2.5));
#1323 = VECTOR('',#1324,1.);
#1324 = DIRECTION('',(-0.5,-0.866025403784,0.));
#1325 = ORIENTED_EDGE('',*,*,#1295,.F.);
#1326 = ORIENTED_EDGE('',*,*,#728,.F.);
#1327 = PLANE('',#1328);
#1328 = AXIS2_PLACEMENT_3D('',#1329,#1330,#1331);
#1329 = CARTESIAN_POINT('',(14.75,80.,0.));
#1330 = DIRECTION('',(0.866025403784,-0.5,0.));
#1331 = DIRECTION('',(-0.5,-0.866025403784,0.));
#1332 = ADVANCED_FACE('',(#1333),#1358,.F.);
#1333 = FACE_BOUND('',#1334,.F.);
#1334 = EDGE_LOOP('',(#1335,#1343,#1351,#1357));
#1335 = ORIENTED_EDGE('',*,*,#1336,.T.);
#1336 = EDGE_CURVE('',#769,#1337,#1339,.T.);
#1337 = VERTEX_POINT('',#1338);
#1338 = CARTESIAN_POINT('',(29.125,81.814582562299,2.5));
#1339 = LINE('',#1340,#1341);
#1340 = CARTESIAN_POINT('',(29.125,81.814582562299,0.));
#1341 = VECTOR('',#1342,1.);
#1342 = DIRECTION('',(0.,0.,1.));
#1343 = ORIENTED_EDGE('',*,*,#1344,.T.);
#1344 = EDGE_CURVE('',#1337,#1345,#1347,.T.);
#1345 = VERTEX_POINT('',#1346);
#1346 = CARTESIAN_POINT('',(30.75,79.,2.5));
#1347 = LINE('',#1348,#1349);
#1348 = CARTESIAN_POINT('',(29.125,81.814582562299,2.5));
#1349 = VECTOR('',#1350,1.);
#1350 = DIRECTION('',(0.5,-0.866025403784,0.));
#1351 = ORIENTED_EDGE('',*,*,#1352,.F.);
#1352 = EDGE_CURVE('',#771,#1345,#1353,.T.);
#1353 = LINE('',#1354,#1355);
#1354 = CARTESIAN_POINT('',(30.75,79.,0.));
#1355 = VECTOR('',#1356,1.);
#1356 = DIRECTION('',(0.,0.,1.));
#1357 = ORIENTED_EDGE('',*,*,#768,.F.);
#1358 = PLANE('',#1359);
#1359 = AXIS2_PLACEMENT_3D('',#1360,#1361,#1362);
#1360 = CARTESIAN_POINT('',(29.125,81.814582562299,0.));
#1361 = DIRECTION('',(0.866025403784,0.5,0.));
#1362 = DIRECTION('',(0.5,-0.866025403784,0.));
#1363 = ADVANCED_FACE('',(#1364),#1382,.F.);
#1364 = FACE_BOUND('',#1365,.F.);
#1365 = EDGE_LOOP('',(#1366,#1374,#1380,#1381));
#1366 = ORIENTED_EDGE('',*,*,#1367,.T.);
#1367 = EDGE_CURVE('',#803,#1368,#1370,.T.);
#1368 = VERTEX_POINT('',#1369);
#1369 = CARTESIAN_POINT('',(25.875,81.814582562299,2.5));
#1370 = LINE('',#1371,#1372);
#1371 = CARTESIAN_POINT('',(25.875,81.814582562299,0.));
#1372 = VECTOR('',#1373,1.);
#1373 = DIRECTION('',(0.,0.,1.));
#1374 = ORIENTED_EDGE('',*,*,#1375,.T.);
#1375 = EDGE_CURVE('',#1368,#1337,#1376,.T.);
#1376 = LINE('',#1377,#1378);
#1377 = CARTESIAN_POINT('',(25.875,81.814582562299,2.5));
#1378 = VECTOR('',#1379,1.);
#1379 = DIRECTION('',(1.,0.,0.));
#1380 = ORIENTED_EDGE('',*,*,#1336,.F.);
#1381 = ORIENTED_EDGE('',*,*,#810,.F.);
#1382 = PLANE('',#1383);
#1383 = AXIS2_PLACEMENT_3D('',#1384,#1385,#1386);
#1384 = CARTESIAN_POINT('',(25.875,81.814582562299,0.));
#1385 = DIRECTION('',(0.,1.,0.));
#1386 = DIRECTION('',(1.,0.,0.));
#1387 = ADVANCED_FACE('',(#1388),#1406,.F.);
#1388 = FACE_BOUND('',#1389,.F.);
#1389 = EDGE_LOOP('',(#1390,#1398,#1404,#1405));
#1390 = ORIENTED_EDGE('',*,*,#1391,.T.);
#1391 = EDGE_CURVE('',#795,#1392,#1394,.T.);
#1392 = VERTEX_POINT('',#1393);
#1393 = CARTESIAN_POINT('',(24.25,79.,2.5));
#1394 = LINE('',#1395,#1396);
#1395 = CARTESIAN_POINT('',(24.25,79.,0.));
#1396 = VECTOR('',#1397,1.);
#1397 = DIRECTION('',(0.,0.,1.));
#1398 = ORIENTED_EDGE('',*,*,#1399,.T.);
#1399 = EDGE_CURVE('',#1392,#1368,#1400,.T.);
#1400 = LINE('',#1401,#1402);
#1401 = CARTESIAN_POINT('',(24.25,79.,2.5));
#1402 = VECTOR('',#1403,1.);
#1403 = DIRECTION('',(0.5,0.866025403784,0.));
#1404 = ORIENTED_EDGE('',*,*,#1367,.F.);
#1405 = ORIENTED_EDGE('',*,*,#802,.F.);
#1406 = PLANE('',#1407);
#1407 = AXIS2_PLACEMENT_3D('',#1408,#1409,#1410);
#1408 = CARTESIAN_POINT('',(24.25,79.,0.));
#1409 = DIRECTION('',(-0.866025403784,0.5,0.));
#1410 = DIRECTION('',(0.5,0.866025403784,0.));
#1411 = ADVANCED_FACE('',(#1412),#1430,.F.);
#1412 = FACE_BOUND('',#1413,.F.);
#1413 = EDGE_LOOP('',(#1414,#1422,#1428,#1429));
#1414 = ORIENTED_EDGE('',*,*,#1415,.T.);
#1415 = EDGE_CURVE('',#787,#1416,#1418,.T.);
#1416 = VERTEX_POINT('',#1417);
#1417 = CARTESIAN_POINT('',(25.875,76.185417437701,2.5));
#1418 = LINE('',#1419,#1420);
#1419 = CARTESIAN_POINT('',(25.875,76.185417437701,0.));
#1420 = VECTOR('',#1421,1.);
#1421 = DIRECTION('',(0.,0.,1.));
#1422 = ORIENTED_EDGE('',*,*,#1423,.T.);
#1423 = EDGE_CURVE('',#1416,#1392,#1424,.T.);
#1424 = LINE('',#1425,#1426);
#1425 = CARTESIAN_POINT('',(25.875,76.185417437701,2.5));
#1426 = VECTOR('',#1427,1.);
#1427 = DIRECTION('',(-0.5,0.866025403784,-0.));
#1428 = ORIENTED_EDGE('',*,*,#1391,.F.);
#1429 = ORIENTED_EDGE('',*,*,#794,.F.);
#1430 = PLANE('',#1431);
#1431 = AXIS2_PLACEMENT_3D('',#1432,#1433,#1434);
#1432 = CARTESIAN_POINT('',(25.875,76.185417437701,0.));
#1433 = DIRECTION('',(-0.866025403784,-0.5,0.));
#1434 = DIRECTION('',(-0.5,0.866025403784,0.));
#1435 = ADVANCED_FACE('',(#1436),#1454,.F.);
#1436 = FACE_BOUND('',#1437,.F.);
#1437 = EDGE_LOOP('',(#1438,#1446,#1452,#1453));
#1438 = ORIENTED_EDGE('',*,*,#1439,.T.);
#1439 = EDGE_CURVE('',#779,#1440,#1442,.T.);
#1440 = VERTEX_POINT('',#1441);
#1441 = CARTESIAN_POINT('',(29.125,76.185417437701,2.5));
#1442 = LINE('',#1443,#1444);
#1443 = CARTESIAN_POINT('',(29.125,76.185417437701,0.));
#1444 = VECTOR('',#1445,1.);
#1445 = DIRECTION('',(0.,0.,1.));
#1446 = ORIENTED_EDGE('',*,*,#1447,.T.);
#1447 = EDGE_CURVE('',#1440,#1416,#1448,.T.);
#1448 = LINE('',#1449,#1450);
#1449 = CARTESIAN_POINT('',(29.125,76.185417437701,2.5));
#1450 = VECTOR('',#1451,1.);
#1451 = DIRECTION('',(-1.,0.,0.));
#1452 = ORIENTED_EDGE('',*,*,#1415,.F.);
#1453 = ORIENTED_EDGE('',*,*,#786,.F.);
#1454 = PLANE('',#1455);
#1455 = AXIS2_PLACEMENT_3D('',#1456,#1457,#1458);
#1456 = CARTESIAN_POINT('',(29.125,76.185417437701,0.));
#1457 = DIRECTION('',(0.,-1.,0.));
#1458 = DIRECTION('',(-1.,0.,0.));
#1459 = ADVANCED_FACE('',(#1460),#1471,.F.);
#1460 = FACE_BOUND('',#1461,.F.);
#1461 = EDGE_LOOP('',(#1462,#1463,#1469,#1470));
#1462 = ORIENTED_EDGE('',*,*,#1352,.T.);
#1463 = ORIENTED_EDGE('',*,*,#1464,.T.);
#1464 = EDGE_CURVE('',#1345,#1440,#1465,.T.);
#1465 = LINE('',#1466,#1467);
#1466 = CARTESIAN_POINT('',(30.75,79.,2.5));
#1467 = VECTOR('',#1468,1.);
#1468 = DIRECTION('',(-0.5,-0.866025403784,0.));
#1469 = ORIENTED_EDGE('',*,*,#1439,.F.);
#1470 = ORIENTED_EDGE('',*,*,#778,.F.);
#1471 = PLANE('',#1472);
#1472 = AXIS2_PLACEMENT_3D('',#1473,#1474,#1475);
#1473 = CARTESIAN_POINT('',(30.75,79.,0.));
#1474 = DIRECTION('',(0.866025403784,-0.5,0.));
#1475 = DIRECTION('',(-0.5,-0.866025403784,0.));
#1476 = ADVANCED_FACE('',(#1477),#1502,.F.);
#1477 = FACE_BOUND('',#1478,.F.);
#1478 = EDGE_LOOP('',(#1479,#1487,#1495,#1501));
#1479 = ORIENTED_EDGE('',*,*,#1480,.T.);
#1480 = EDGE_CURVE('',#819,#1481,#1483,.T.);
#1481 = VERTEX_POINT('',#1482);
#1482 = CARTESIAN_POINT('',(45.125,82.814582562299,2.5));
#1483 = LINE('',#1484,#1485);
#1484 = CARTESIAN_POINT('',(45.125,82.814582562299,0.));
#1485 = VECTOR('',#1486,1.);
#1486 = DIRECTION('',(0.,0.,1.));
#1487 = ORIENTED_EDGE('',*,*,#1488,.T.);
#1488 = EDGE_CURVE('',#1481,#1489,#1491,.T.);
#1489 = VERTEX_POINT('',#1490);
#1490 = CARTESIAN_POINT('',(46.75,80.,2.5));
#1491 = LINE('',#1492,#1493);
#1492 = CARTESIAN_POINT('',(45.125,82.814582562299,2.5));
#1493 = VECTOR('',#1494,1.);
#1494 = DIRECTION('',(0.5,-0.866025403784,0.));
#1495 = ORIENTED_EDGE('',*,*,#1496,.F.);
#1496 = EDGE_CURVE('',#821,#1489,#1497,.T.);
#1497 = LINE('',#1498,#1499);
#1498 = CARTESIAN_POINT('',(46.75,80.,0.));
#1499 = VECTOR('',#1500,1.);
#1500 = DIRECTION('',(0.,0.,1.));
#1501 = ORIENTED_EDGE('',*,*,#818,.F.);
#1502 = PLANE('',#1503);
#1503 = AXIS2_PLACEMENT_3D('',#1504,#1505,#1506);
#1504 = CARTESIAN_POINT('',(45.125,82.814582562299,0.));
#1505 = DIRECTION('',(0.866025403784,0.5,0.));
#1506 = DIRECTION('',(0.5,-0.866025403784,0.));
#1507 = ADVANCED_FACE('',(#1508),#1526,.F.);
#1508 = FACE_BOUND('',#1509,.F.);
#1509 = EDGE_LOOP('',(#1510,#1518,#1524,#1525));
#1510 = ORIENTED_EDGE('',*,*,#1511,.T.);
#1511 = EDGE_CURVE('',#853,#1512,#1514,.T.);
#1512 = VERTEX_POINT('',#1513);
#1513 = CARTESIAN_POINT('',(41.875,82.814582562299,2.5));
#1514 = LINE('',#1515,#1516);
#1515 = CARTESIAN_POINT('',(41.875,82.814582562299,0.));
#1516 = VECTOR('',#1517,1.);
#1517 = DIRECTION('',(0.,0.,1.));
#1518 = ORIENTED_EDGE('',*,*,#1519,.T.);
#1519 = EDGE_CURVE('',#1512,#1481,#1520,.T.);
#1520 = LINE('',#1521,#1522);
#1521 = CARTESIAN_POINT('',(41.875,82.814582562299,2.5));
#1522 = VECTOR('',#1523,1.);
#1523 = DIRECTION('',(1.,0.,0.));
#1524 = ORIENTED_EDGE('',*,*,#1480,.F.);
#1525 = ORIENTED_EDGE('',*,*,#860,.F.);
#1526 = PLANE('',#1527);
#1527 = AXIS2_PLACEMENT_3D('',#1528,#1529,#1530);
#1528 = CARTESIAN_POINT('',(41.875,82.814582562299,0.));
#1529 = DIRECTION('',(0.,1.,0.));
#1530 = DIRECTION('',(1.,0.,0.));
#1531 = ADVANCED_FACE('',(#1532),#1550,.F.);
#1532 = FACE_BOUND('',#1533,.F.);
#1533 = EDGE_LOOP('',(#1534,#1542,#1548,#1549));
#1534 = ORIENTED_EDGE('',*,*,#1535,.T.);
#1535 = EDGE_CURVE('',#845,#1536,#1538,.T.);
#1536 = VERTEX_POINT('',#1537);
#1537 = CARTESIAN_POINT('',(40.25,80.,2.5));
#1538 = LINE('',#1539,#1540);
#1539 = CARTESIAN_POINT('',(40.25,80.,0.));
#1540 = VECTOR('',#1541,1.);
#1541 = DIRECTION('',(0.,0.,1.));
#1542 = ORIENTED_EDGE('',*,*,#1543,.T.);
#1543 = EDGE_CURVE('',#1536,#1512,#1544,.T.);
#1544 = LINE('',#1545,#1546);
#1545 = CARTESIAN_POINT('',(40.25,80.,2.5));
#1546 = VECTOR('',#1547,1.);
#1547 = DIRECTION('',(0.5,0.866025403784,0.));
#1548 = ORIENTED_EDGE('',*,*,#1511,.F.);
#1549 = ORIENTED_EDGE('',*,*,#852,.F.);
#1550 = PLANE('',#1551);
#1551 = AXIS2_PLACEMENT_3D('',#1552,#1553,#1554);
#1552 = CARTESIAN_POINT('',(40.25,80.,0.));
#1553 = DIRECTION('',(-0.866025403784,0.5,0.));
#1554 = DIRECTION('',(0.5,0.866025403784,0.));
#1555 = ADVANCED_FACE('',(#1556),#1574,.F.);
#1556 = FACE_BOUND('',#1557,.F.);
#1557 = EDGE_LOOP('',(#1558,#1566,#1572,#1573));
#1558 = ORIENTED_EDGE('',*,*,#1559,.T.);
#1559 = EDGE_CURVE('',#837,#1560,#1562,.T.);
#1560 = VERTEX_POINT('',#1561);
#1561 = CARTESIAN_POINT('',(41.875,77.185417437701,2.5));
#1562 = LINE('',#1563,#1564);
#1563 = CARTESIAN_POINT('',(41.875,77.185417437701,0.));
#1564 = VECTOR('',#1565,1.);
#1565 = DIRECTION('',(0.,0.,1.));
#1566 = ORIENTED_EDGE('',*,*,#1567,.T.);
#1567 = EDGE_CURVE('',#1560,#1536,#1568,.T.);
#1568 = LINE('',#1569,#1570);
#1569 = CARTESIAN_POINT('',(41.875,77.185417437701,2.5));
#1570 = VECTOR('',#1571,1.);
#1571 = DIRECTION('',(-0.5,0.866025403784,-0.));
#1572 = ORIENTED_EDGE('',*,*,#1535,.F.);
#1573 = ORIENTED_EDGE('',*,*,#844,.F.);
#1574 = PLANE('',#1575);
#1575 = AXIS2_PLACEMENT_3D('',#1576,#1577,#1578);
#1576 = CARTESIAN_POINT('',(41.875,77.185417437701,0.));
#1577 = DIRECTION('',(-0.866025403784,-0.5,0.));
#1578 = DIRECTION('',(-0.5,0.866025403784,0.));
#1579 = ADVANCED_FACE('',(#1580),#1598,.F.);
#1580 = FACE_BOUND('',#1581,.F.);
#1581 = EDGE_LOOP('',(#1582,#1590,#1596,#1597));
#1582 = ORIENTED_EDGE('',*,*,#1583,.T.);
#1583 = EDGE_CURVE('',#829,#1584,#1586,.T.);
#1584 = VERTEX_POINT('',#1585);
#1585 = CARTESIAN_POINT('',(45.125,77.185417437701,2.5));
#1586 = LINE('',#1587,#1588);
#1587 = CARTESIAN_POINT('',(45.125,77.185417437701,0.));
#1588 = VECTOR('',#1589,1.);
#1589 = DIRECTION('',(0.,0.,1.));
#1590 = ORIENTED_EDGE('',*,*,#1591,.T.);
#1591 = EDGE_CURVE('',#1584,#1560,#1592,.T.);
#1592 = LINE('',#1593,#1594);
#1593 = CARTESIAN_POINT('',(45.125,77.185417437701,2.5));
#1594 = VECTOR('',#1595,1.);
#1595 = DIRECTION('',(-1.,0.,0.));
#1596 = ORIENTED_EDGE('',*,*,#1559,.F.);
#1597 = ORIENTED_EDGE('',*,*,#836,.F.);
#1598 = PLANE('',#1599);
#1599 = AXIS2_PLACEMENT_3D('',#1600,#1601,#1602);
#1600 = CARTESIAN_POINT('',(45.125,77.185417437701,0.));
#1601 = DIRECTION('',(0.,-1.,0.));
#1602 = DIRECTION('',(-1.,0.,0.));
#1603 = ADVANCED_FACE('',(#1604),#1615,.F.);
#1604 = FACE_BOUND('',#1605,.F.);
#1605 = EDGE_LOOP('',(#1606,#1607,#1613,#1614));
#1606 = ORIENTED_EDGE('',*,*,#1496,.T.);
#1607 = ORIENTED_EDGE('',*,*,#1608,.T.);
#1608 = EDGE_CURVE('',#1489,#1584,#1609,.T.);
#1609 = LINE('',#1610,#1611);
#1610 = CARTESIAN_POINT('',(46.75,80.,2.5));
#1611 = VECTOR('',#1612,1.);
#1612 = DIRECTION('',(-0.5,-0.866025403784,0.));
#1613 = ORIENTED_EDGE('',*,*,#1583,.F.);
#1614 = ORIENTED_EDGE('',*,*,#828,.F.);
#1615 = PLANE('',#1616);
#1616 = AXIS2_PLACEMENT_3D('',#1617,#1618,#1619);
#1617 = CARTESIAN_POINT('',(46.75,80.,0.));
#1618 = DIRECTION('',(0.866025403784,-0.5,0.));
#1619 = DIRECTION('',(-0.5,-0.866025403784,0.));
#1620 = ADVANCED_FACE('',(#1621),#1646,.F.);
#1621 = FACE_BOUND('',#1622,.F.);
#1622 = EDGE_LOOP('',(#1623,#1631,#1639,#1645));
#1623 = ORIENTED_EDGE('',*,*,#1624,.T.);
#1624 = EDGE_CURVE('',#869,#1625,#1627,.T.);
#1625 = VERTEX_POINT('',#1626);
#1626 = CARTESIAN_POINT('',(63.125,82.814582562299,2.5));
#1627 = LINE('',#1628,#1629);
#1628 = CARTESIAN_POINT('',(63.125,82.814582562299,0.));
#1629 = VECTOR('',#1630,1.);
#1630 = DIRECTION('',(0.,0.,1.));
#1631 = ORIENTED_EDGE('',*,*,#1632,.T.);
#1632 = EDGE_CURVE('',#1625,#1633,#1635,.T.);
#1633 = VERTEX_POINT('',#1634);
#1634 = CARTESIAN_POINT('',(64.75,80.,2.5));
#1635 = LINE('',#1636,#1637);
#1636 = CARTESIAN_POINT('',(63.125,82.814582562299,2.5));
#1637 = VECTOR('',#1638,1.);
#1638 = DIRECTION('',(0.5,-0.866025403784,0.));
#1639 = ORIENTED_EDGE('',*,*,#1640,.F.);
#1640 = EDGE_CURVE('',#871,#1633,#1641,.T.);
#1641 = LINE('',#1642,#1643);
#1642 = CARTESIAN_POINT('',(64.75,80.,0.));
#1643 = VECTOR('',#1644,1.);
#1644 = DIRECTION('',(0.,0.,1.));
#1645 = ORIENTED_EDGE('',*,*,#868,.F.);
#1646 = PLANE('',#1647);
#1647 = AXIS2_PLACEMENT_3D('',#1648,#1649,#1650);
#1648 = CARTESIAN_POINT('',(63.125,82.814582562299,0.));
#1649 = DIRECTION('',(0.866025403784,0.5,0.));
#1650 = DIRECTION('',(0.5,-0.866025403784,0.));
#1651 = ADVANCED_FACE('',(#1652),#1670,.F.);
#1652 = FACE_BOUND('',#1653,.F.);
#1653 = EDGE_LOOP('',(#1654,#1662,#1668,#1669));
#1654 = ORIENTED_EDGE('',*,*,#1655,.T.);
#1655 = EDGE_CURVE('',#903,#1656,#1658,.T.);
#1656 = VERTEX_POINT('',#1657);
#1657 = CARTESIAN_POINT('',(59.875,82.814582562299,2.5));
#1658 = LINE('',#1659,#1660);
#1659 = CARTESIAN_POINT('',(59.875,82.814582562299,0.));
#1660 = VECTOR('',#1661,1.);
#1661 = DIRECTION('',(0.,0.,1.));
#1662 = ORIENTED_EDGE('',*,*,#1663,.T.);
#1663 = EDGE_CURVE('',#1656,#1625,#1664,.T.);
#1664 = LINE('',#1665,#1666);
#1665 = CARTESIAN_POINT('',(59.875,82.814582562299,2.5));
#1666 = VECTOR('',#1667,1.);
#1667 = DIRECTION('',(1.,0.,0.));
#1668 = ORIENTED_EDGE('',*,*,#1624,.F.);
#1669 = ORIENTED_EDGE('',*,*,#910,.F.);
#1670 = PLANE('',#1671);
#1671 = AXIS2_PLACEMENT_3D('',#1672,#1673,#1674);
#1672 = CARTESIAN_POINT('',(59.875,82.814582562299,0.));
#1673 = DIRECTION('',(0.,1.,0.));
#1674 = DIRECTION('',(1.,0.,0.));
#1675 = ADVANCED_FACE('',(#1676),#1694,.F.);
#1676 = FACE_BOUND('',#1677,.F.);
#1677 = EDGE_LOOP('',(#1678,#1686,#1692,#1693));
#1678 = ORIENTED_EDGE('',*,*,#1679,.T.);
#1679 = EDGE_CURVE('',#895,#1680,#1682,.T.);
#1680 = VERTEX_POINT('',#1681);
#1681 = CARTESIAN_POINT('',(58.25,80.,2.5));
#1682 = LINE('',#1683,#1684);
#1683 = CARTESIAN_POINT('',(58.25,80.,0.));
#1684 = VECTOR('',#1685,1.);
#1685 = DIRECTION('',(0.,0.,1.));
#1686 = ORIENTED_EDGE('',*,*,#1687,.T.);
#1687 = EDGE_CURVE('',#1680,#1656,#1688,.T.);
#1688 = LINE('',#1689,#1690);
#1689 = CARTESIAN_POINT('',(58.25,80.,2.5));
#1690 = VECTOR('',#1691,1.);
#1691 = DIRECTION('',(0.5,0.866025403784,0.));
#1692 = ORIENTED_EDGE('',*,*,#1655,.F.);
#1693 = ORIENTED_EDGE('',*,*,#902,.F.);
#1694 = PLANE('',#1695);
#1695 = AXIS2_PLACEMENT_3D('',#1696,#1697,#1698);
#1696 = CARTESIAN_POINT('',(58.25,80.,0.));
#1697 = DIRECTION('',(-0.866025403784,0.5,0.));
#1698 = DIRECTION('',(0.5,0.866025403784,0.));
#1699 = ADVANCED_FACE('',(#1700),#1718,.F.);
#1700 = FACE_BOUND('',#1701,.F.);
#1701 = EDGE_LOOP('',(#1702,#1710,#1716,#1717));
#1702 = ORIENTED_EDGE('',*,*,#1703,.T.);
#1703 = EDGE_CURVE('',#887,#1704,#1706,.T.);
#1704 = VERTEX_POINT('',#1705);
#1705 = CARTESIAN_POINT('',(59.875,77.185417437701,2.5));
#1706 = LINE('',#1707,#1708);
#1707 = CARTESIAN_POINT('',(59.875,77.185417437701,0.));
#1708 = VECTOR('',#1709,1.);
#1709 = DIRECTION('',(0.,0.,1.));
#1710 = ORIENTED_EDGE('',*,*,#1711,.T.);
#1711 = EDGE_CURVE('',#1704,#1680,#1712,.T.);
#1712 = LINE('',#1713,#1714);
#1713 = CARTESIAN_POINT('',(59.875,77.185417437701,2.5));
#1714 = VECTOR('',#1715,1.);
#1715 = DIRECTION('',(-0.5,0.866025403784,-0.));
#1716 = ORIENTED_EDGE('',*,*,#1679,.F.);
#1717 = ORIENTED_EDGE('',*,*,#894,.F.);
#1718 = PLANE('',#1719);
#1719 = AXIS2_PLACEMENT_3D('',#1720,#1721,#1722);
#1720 = CARTESIAN_POINT('',(59.875,77.185417437701,0.));
#1721 = DIRECTION('',(-0.866025403784,-0.5,0.));
#1722 = DIRECTION('',(-0.5,0.866025403784,0.));
#1723 = ADVANCED_FACE('',(#1724),#1742,.F.);
#1724 = FACE_BOUND('',#1725,.F.);
#1725 = EDGE_LOOP('',(#1726,#1734,#1740,#1741));
#1726 = ORIENTED_EDGE('',*,*,#1727,.T.);
#1727 = EDGE_CURVE('',#879,#1728,#1730,.T.);
#1728 = VERTEX_POINT('',#1729);
#1729 = CARTESIAN_POINT('',(63.125,77.185417437701,2.5));
#1730 = LINE('',#1731,#1732);
#1731 = CARTESIAN_POINT('',(63.125,77.185417437701,0.));
#1732 = VECTOR('',#1733,1.);
#1733 = DIRECTION('',(0.,0.,1.));
#1734 = ORIENTED_EDGE('',*,*,#1735,.T.);
#1735 = EDGE_CURVE('',#1728,#1704,#1736,.T.);
#1736 = LINE('',#1737,#1738);
#1737 = CARTESIAN_POINT('',(63.125,77.185417437701,2.5));
#1738 = VECTOR('',#1739,1.);
#1739 = DIRECTION('',(-1.,0.,0.));
#1740 = ORIENTED_EDGE('',*,*,#1703,.F.);
#1741 = ORIENTED_EDGE('',*,*,#886,.F.);
#1742 = PLANE('',#1743);
#1743 = AXIS2_PLACEMENT_3D('',#1744,#1745,#1746);
#1744 = CARTESIAN_POINT('',(63.125,77.185417437701,0.));
#1745 = DIRECTION('',(0.,-1.,0.));
#1746 = DIRECTION('',(-1.,0.,0.));
#1747 = ADVANCED_FACE('',(#1748),#1759,.F.);
#1748 = FACE_BOUND('',#1749,.F.);
#1749 = EDGE_LOOP('',(#1750,#1751,#1757,#1758));
#1750 = ORIENTED_EDGE('',*,*,#1640,.T.);
#1751 = ORIENTED_EDGE('',*,*,#1752,.T.);
#1752 = EDGE_CURVE('',#1633,#1728,#1753,.T.);
#1753 = LINE('',#1754,#1755);
#1754 = CARTESIAN_POINT('',(64.75,80.,2.5));
#1755 = VECTOR('',#1756,1.);
#1756 = DIRECTION('',(-0.5,-0.866025403784,0.));
#1757 = ORIENTED_EDGE('',*,*,#1727,.F.);
#1758 = ORIENTED_EDGE('',*,*,#878,.F.);
#1759 = PLANE('',#1760);
#1760 = AXIS2_PLACEMENT_3D('',#1761,#1762,#1763);
#1761 = CARTESIAN_POINT('',(64.75,80.,0.));
#1762 = DIRECTION('',(0.866025403784,-0.5,0.));
#1763 = DIRECTION('',(-0.5,-0.866025403784,0.));
#1764 = ADVANCED_FACE('',(#1765),#1790,.F.);
#1765 = FACE_BOUND('',#1766,.F.);
#1766 = EDGE_LOOP('',(#1767,#1775,#1783,#1789));
#1767 = ORIENTED_EDGE('',*,*,#1768,.T.);
#1768 = EDGE_CURVE('',#919,#1769,#1771,.T.);
#1769 = VERTEX_POINT('',#1770);
#1770 = CARTESIAN_POINT('',(79.125,81.814582562299,2.5));
#1771 = LINE('',#1772,#1773);
#1772 = CARTESIAN_POINT('',(79.125,81.814582562299,0.));
#1773 = VECTOR('',#1774,1.);
#1774 = DIRECTION('',(0.,0.,1.));
#1775 = ORIENTED_EDGE('',*,*,#1776,.T.);
#1776 = EDGE_CURVE('',#1769,#1777,#1779,.T.);
#1777 = VERTEX_POINT('',#1778);
#1778 = CARTESIAN_POINT('',(80.75,79.,2.5));
#1779 = LINE('',#1780,#1781);
#1780 = CARTESIAN_POINT('',(79.125,81.814582562299,2.5));
#1781 = VECTOR('',#1782,1.);
#1782 = DIRECTION('',(0.5,-0.866025403784,0.));
#1783 = ORIENTED_EDGE('',*,*,#1784,.F.);
#1784 = EDGE_CURVE('',#921,#1777,#1785,.T.);
#1785 = LINE('',#1786,#1787);
#1786 = CARTESIAN_POINT('',(80.75,79.,0.));
#1787 = VECTOR('',#1788,1.);
#1788 = DIRECTION('',(0.,0.,1.));
#1789 = ORIENTED_EDGE('',*,*,#918,.F.);
#1790 = PLANE('',#1791);
#1791 = AXIS2_PLACEMENT_3D('',#1792,#1793,#1794);
#1792 = CARTESIAN_POINT('',(79.125,81.814582562299,0.));
#1793 = DIRECTION('',(0.866025403784,0.5,0.));
#1794 = DIRECTION('',(0.5,-0.866025403784,0.));
#1795 = ADVANCED_FACE('',(#1796),#1814,.F.);
#1796 = FACE_BOUND('',#1797,.F.);
#1797 = EDGE_LOOP('',(#1798,#1806,#1812,#1813));
#1798 = ORIENTED_EDGE('',*,*,#1799,.T.);
#1799 = EDGE_CURVE('',#953,#1800,#1802,.T.);
#1800 = VERTEX_POINT('',#1801);
#1801 = CARTESIAN_POINT('',(75.875,81.814582562299,2.5));
#1802 = LINE('',#1803,#1804);
#1803 = CARTESIAN_POINT('',(75.875,81.814582562299,0.));
#1804 = VECTOR('',#1805,1.);
#1805 = DIRECTION('',(0.,0.,1.));
#1806 = ORIENTED_EDGE('',*,*,#1807,.T.);
#1807 = EDGE_CURVE('',#1800,#1769,#1808,.T.);
#1808 = LINE('',#1809,#1810);
#1809 = CARTESIAN_POINT('',(75.875,81.814582562299,2.5));
#1810 = VECTOR('',#1811,1.);
#1811 = DIRECTION('',(1.,0.,0.));
#1812 = ORIENTED_EDGE('',*,*,#1768,.F.);
#1813 = ORIENTED_EDGE('',*,*,#960,.F.);
#1814 = PLANE('',#1815);
#1815 = AXIS2_PLACEMENT_3D('',#1816,#1817,#1818);
#1816 = CARTESIAN_POINT('',(75.875,81.814582562299,0.));
#1817 = DIRECTION('',(0.,1.,0.));
#1818 = DIRECTION('',(1.,0.,0.));
#1819 = ADVANCED_FACE('',(#1820),#1838,.F.);
#1820 = FACE_BOUND('',#1821,.F.);
#1821 = EDGE_LOOP('',(#1822,#1830,#1836,#1837));
#1822 = ORIENTED_EDGE('',*,*,#1823,.T.);
#1823 = EDGE_CURVE('',#945,#1824,#1826,.T.);
#1824 = VERTEX_POINT('',#1825);
#1825 = CARTESIAN_POINT('',(74.25,79.,2.5));
#1826 = LINE('',#1827,#1828);
#1827 = CARTESIAN_POINT('',(74.25,79.,0.));
#1828 = VECTOR('',#1829,1.);
#1829 = DIRECTION('',(0.,0.,1.));
#1830 = ORIENTED_EDGE('',*,*,#1831,.T.);
#1831 = EDGE_CURVE('',#1824,#1800,#1832,.T.);
#1832 = LINE('',#1833,#1834);
#1833 = CARTESIAN_POINT('',(74.25,79.,2.5));
#1834 = VECTOR('',#1835,1.);
#1835 = DIRECTION('',(0.5,0.866025403784,0.));
#1836 = ORIENTED_EDGE('',*,*,#1799,.F.);
#1837 = ORIENTED_EDGE('',*,*,#952,.F.);
#1838 = PLANE('',#1839);
#1839 = AXIS2_PLACEMENT_3D('',#1840,#1841,#1842);
#1840 = CARTESIAN_POINT('',(74.25,79.,0.));
#1841 = DIRECTION('',(-0.866025403784,0.5,0.));
#1842 = DIRECTION('',(0.5,0.866025403784,0.));
#1843 = ADVANCED_FACE('',(#1844),#1862,.F.);
#1844 = FACE_BOUND('',#1845,.F.);
#1845 = EDGE_LOOP('',(#1846,#1854,#1860,#1861));
#1846 = ORIENTED_EDGE('',*,*,#1847,.T.);
#1847 = EDGE_CURVE('',#937,#1848,#1850,.T.);
#1848 = VERTEX_POINT('',#1849);
#1849 = CARTESIAN_POINT('',(75.875,76.185417437701,2.5));
#1850 = LINE('',#1851,#1852);
#1851 = CARTESIAN_POINT('',(75.875,76.185417437701,0.));
#1852 = VECTOR('',#1853,1.);
#1853 = DIRECTION('',(0.,0.,1.));
#1854 = ORIENTED_EDGE('',*,*,#1855,.T.);
#1855 = EDGE_CURVE('',#1848,#1824,#1856,.T.);
#1856 = LINE('',#1857,#1858);
#1857 = CARTESIAN_POINT('',(75.875,76.185417437701,2.5));
#1858 = VECTOR('',#1859,1.);
#1859 = DIRECTION('',(-0.5,0.866025403784,-0.));
#1860 = ORIENTED_EDGE('',*,*,#1823,.F.);
#1861 = ORIENTED_EDGE('',*,*,#944,.F.);
#1862 = PLANE('',#1863);
#1863 = AXIS2_PLACEMENT_3D('',#1864,#1865,#1866);
#1864 = CARTESIAN_POINT('',(75.875,76.185417437701,0.));
#1865 = DIRECTION('',(-0.866025403784,-0.5,0.));
#1866 = DIRECTION('',(-0.5,0.866025403784,0.));
#1867 = ADVANCED_FACE('',(#1868),#1886,.F.);
#1868 = FACE_BOUND('',#1869,.F.);
#1869 = EDGE_LOOP('',(#1870,#1878,#1884,#1885));
#1870 = ORIENTED_EDGE('',*,*,#1871,.T.);
#1871 = EDGE_CURVE('',#929,#1872,#1874,.T.);
#1872 = VERTEX_POINT('',#1873);
#1873 = CARTESIAN_POINT('',(79.125,76.185417437701,2.5));
#1874 = LINE('',#1875,#1876);
#1875 = CARTESIAN_POINT('',(79.125,76.185417437701,0.));
#1876 = VECTOR('',#1877,1.);
#1877 = DIRECTION('',(0.,0.,1.));
#1878 = ORIENTED_EDGE('',*,*,#1879,.T.);
#1879 = EDGE_CURVE('',#1872,#1848,#1880,.T.);
#1880 = LINE('',#1881,#1882);
#1881 = CARTESIAN_POINT('',(79.125,76.185417437701,2.5));
#1882 = VECTOR('',#1883,1.);
#1883 = DIRECTION('',(-1.,0.,0.));
#1884 = ORIENTED_EDGE('',*,*,#1847,.F.);
#1885 = ORIENTED_EDGE('',*,*,#936,.F.);
#1886 = PLANE('',#1887);
#1887 = AXIS2_PLACEMENT_3D('',#1888,#1889,#1890);
#1888 = CARTESIAN_POINT('',(79.125,76.185417437701,0.));
#1889 = DIRECTION('',(0.,-1.,0.));
#1890 = DIRECTION('',(-1.,0.,0.));
#1891 = ADVANCED_FACE('',(#1892),#1903,.F.);
#1892 = FACE_BOUND('',#1893,.F.);
#1893 = EDGE_LOOP('',(#1894,#1895,#1901,#1902));
#1894 = ORIENTED_EDGE('',*,*,#1784,.T.);
#1895 = ORIENTED_EDGE('',*,*,#1896,.T.);
#1896 = EDGE_CURVE('',#1777,#1872,#1897,.T.);
#1897 = LINE('',#1898,#1899);
#1898 = CARTESIAN_POINT('',(80.75,79.,2.5));
#1899 = VECTOR('',#1900,1.);
#1900 = DIRECTION('',(-0.5,-0.866025403784,0.));
#1901 = ORIENTED_EDGE('',*,*,#1871,.F.);
#1902 = ORIENTED_EDGE('',*,*,#928,.F.);
#1903 = PLANE('',#1904);
#1904 = AXIS2_PLACEMENT_3D('',#1905,#1906,#1907);
#1905 = CARTESIAN_POINT('',(80.75,79.,0.));
#1906 = DIRECTION('',(0.866025403784,-0.5,0.));
#1907 = DIRECTION('',(-0.5,-0.866025403784,0.));
#1908 = ADVANCED_FACE('',(#1909),#1934,.F.);
#1909 = FACE_BOUND('',#1910,.F.);
#1910 = EDGE_LOOP('',(#1911,#1919,#1927,#1933));
#1911 = ORIENTED_EDGE('',*,*,#1912,.T.);
#1912 = EDGE_CURVE('',#969,#1913,#1915,.T.);
#1913 = VERTEX_POINT('',#1914);
#1914 = CARTESIAN_POINT('',(95.125,82.814582562299,2.5));
#1915 = LINE('',#1916,#1917);
#1916 = CARTESIAN_POINT('',(95.125,82.814582562299,0.));
#1917 = VECTOR('',#1918,1.);
#1918 = DIRECTION('',(0.,0.,1.));
#1919 = ORIENTED_EDGE('',*,*,#1920,.T.);
#1920 = EDGE_CURVE('',#1913,#1921,#1923,.T.);
#1921 = VERTEX_POINT('',#1922);
#1922 = CARTESIAN_POINT('',(96.75,80.,2.5));
#1923 = LINE('',#1924,#1925);
#1924 = CARTESIAN_POINT('',(95.125,82.814582562299,2.5));
#1925 = VECTOR('',#1926,1.);
#1926 = DIRECTION('',(0.5,-0.866025403784,0.));
#1927 = ORIENTED_EDGE('',*,*,#1928,.F.);
#1928 = EDGE_CURVE('',#971,#1921,#1929,.T.);
#1929 = LINE('',#1930,#1931);
#1930 = CARTESIAN_POINT('',(96.75,80.,0.));
#1931 = VECTOR('',#1932,1.);
#1932 = DIRECTION('',(0.,0.,1.));
#1933 = ORIENTED_EDGE('',*,*,#968,.F.);
#1934 = PLANE('',#1935);
#1935 = AXIS2_PLACEMENT_3D('',#1936,#1937,#1938);
#1936 = CARTESIAN_POINT('',(95.125,82.814582562299,0.));
#1937 = DIRECTION('',(0.866025403784,0.5,0.));
#1938 = DIRECTION('',(0.5,-0.866025403784,0.));
#1939 = ADVANCED_FACE('',(#1940),#1958,.F.);
#1940 = FACE_BOUND('',#1941,.F.);
#1941 = EDGE_LOOP('',(#1942,#1950,#1956,#1957));
#1942 = ORIENTED_EDGE('',*,*,#1943,.T.);
#1943 = EDGE_CURVE('',#1003,#1944,#1946,.T.);
#1944 = VERTEX_POINT('',#1945);
#1945 = CARTESIAN_POINT('',(91.875,82.814582562299,2.5));
#1946 = LINE('',#1947,#1948);
#1947 = CARTESIAN_POINT('',(91.875,82.814582562299,0.));
#1948 = VECTOR('',#1949,1.);
#1949 = DIRECTION('',(0.,0.,1.));
#1950 = ORIENTED_EDGE('',*,*,#1951,.T.);
#1951 = EDGE_CURVE('',#1944,#1913,#1952,.T.);
#1952 = LINE('',#1953,#1954);
#1953 = CARTESIAN_POINT('',(91.875,82.814582562299,2.5));
#1954 = VECTOR('',#1955,1.);
#1955 = DIRECTION('',(1.,0.,0.));
#1956 = ORIENTED_EDGE('',*,*,#1912,.F.);
#1957 = ORIENTED_EDGE('',*,*,#1010,.F.);
#1958 = PLANE('',#1959);
#1959 = AXIS2_PLACEMENT_3D('',#1960,#1961,#1962);
#1960 = CARTESIAN_POINT('',(91.875,82.814582562299,0.));
#1961 = DIRECTION('',(0.,1.,0.));
#1962 = DIRECTION('',(1.,0.,0.));
#1963 = ADVANCED_FACE('',(#1964),#1982,.F.);
#1964 = FACE_BOUND('',#1965,.F.);
#1965 = EDGE_LOOP('',(#1966,#1974,#1980,#1981));
#1966 = ORIENTED_EDGE('',*,*,#1967,.T.);
#1967 = EDGE_CURVE('',#995,#1968,#1970,.T.);
#1968 = VERTEX_POINT('',#1969);
#1969 = CARTESIAN_POINT('',(90.25,80.,2.5));
#1970 = LINE('',#1971,#1972);
#1971 = CARTESIAN_POINT('',(90.25,80.,0.));
#1972 = VECTOR('',#1973,1.);
#1973 = DIRECTION('',(0.,0.,1.));
#1974 = ORIENTED_EDGE('',*,*,#1975,.T.);
#1975 = EDGE_CURVE('',#1968,#1944,#1976,.T.);
#1976 = LINE('',#1977,#1978);
#1977 = CARTESIAN_POINT('',(90.25,80.,2.5));
#1978 = VECTOR('',#1979,1.);
#1979 = DIRECTION('',(0.5,0.866025403784,0.));
#1980 = ORIENTED_EDGE('',*,*,#1943,.F.);
#1981 = ORIENTED_EDGE('',*,*,#1002,.F.);
#1982 = PLANE('',#1983);
#1983 = AXIS2_PLACEMENT_3D('',#1984,#1985,#1986);
#1984 = CARTESIAN_POINT('',(90.25,80.,0.));
#1985 = DIRECTION('',(-0.866025403784,0.5,0.));
#1986 = DIRECTION('',(0.5,0.866025403784,0.));
#1987 = ADVANCED_FACE('',(#1988),#2006,.F.);
#1988 = FACE_BOUND('',#1989,.F.);
#1989 = EDGE_LOOP('',(#1990,#1998,#2004,#2005));
#1990 = ORIENTED_EDGE('',*,*,#1991,.T.);
#1991 = EDGE_CURVE('',#987,#1992,#1994,.T.);
#1992 = VERTEX_POINT('',#1993);
#1993 = CARTESIAN_POINT('',(91.875,77.185417437701,2.5));
#1994 = LINE('',#1995,#1996);
#1995 = CARTESIAN_POINT('',(91.875,77.185417437701,0.));
#1996 = VECTOR('',#1997,1.);
#1997 = DIRECTION('',(0.,0.,1.));
#1998 = ORIENTED_EDGE('',*,*,#1999,.T.);
#1999 = EDGE_CURVE('',#1992,#1968,#2000,.T.);
#2000 = LINE('',#2001,#2002);
#2001 = CARTESIAN_POINT('',(91.875,77.185417437701,2.5));
#2002 = VECTOR('',#2003,1.);
#2003 = DIRECTION('',(-0.5,0.866025403784,-0.));
#2004 = ORIENTED_EDGE('',*,*,#1967,.F.);
#2005 = ORIENTED_EDGE('',*,*,#994,.F.);
#2006 = PLANE('',#2007);
#2007 = AXIS2_PLACEMENT_3D('',#2008,#2009,#2010);
#2008 = CARTESIAN_POINT('',(91.875,77.185417437701,0.));
#2009 = DIRECTION('',(-0.866025403784,-0.5,0.));
#2010 = DIRECTION('',(-0.5,0.866025403784,0.));
#2011 = ADVANCED_FACE('',(#2012),#2030,.F.);
#2012 = FACE_BOUND('',#2013,.F.);
#2013 = EDGE_LOOP('',(#2014,#2022,#2028,#2029));
#2014 = ORIENTED_EDGE('',*,*,#2015,.T.);
#2015 = EDGE_CURVE('',#979,#2016,#2018,.T.);
#2016 = VERTEX_POINT('',#2017);
#2017 = CARTESIAN_POINT('',(95.125,77.185417437701,2.5));
#2018 = LINE('',#2019,#2020);
#2019 = CARTESIAN_POINT('',(95.125,77.185417437701,0.));
#2020 = VECTOR('',#2021,1.);
#2021 = DIRECTION('',(0.,0.,1.));
#2022 = ORIENTED_EDGE('',*,*,#2023,.T.);
#2023 = EDGE_CURVE('',#2016,#1992,#2024,.T.);
#2024 = LINE('',#2025,#2026);
#2025 = CARTESIAN_POINT('',(95.125,77.185417437701,2.5));
#2026 = VECTOR('',#2027,1.);
#2027 = DIRECTION('',(-1.,0.,0.));
#2028 = ORIENTED_EDGE('',*,*,#1991,.F.);
#2029 = ORIENTED_EDGE('',*,*,#986,.F.);
#2030 = PLANE('',#2031);
#2031 = AXIS2_PLACEMENT_3D('',#2032,#2033,#2034);
#2032 = CARTESIAN_POINT('',(95.125,77.185417437701,0.));
#2033 = DIRECTION('',(0.,-1.,0.));
#2034 = DIRECTION('',(-1.,0.,0.));
#2035 = ADVANCED_FACE('',(#2036),#2047,.F.);
#2036 = FACE_BOUND('',#2037,.F.);
#2037 = EDGE_LOOP('',(#2038,#2039,#2045,#2046));
#2038 = ORIENTED_EDGE('',*,*,#1928,.T.);
#2039 = ORIENTED_EDGE('',*,*,#2040,.T.);
#2040 = EDGE_CURVE('',#1921,#2016,#2041,.T.);
#2041 = LINE('',#2042,#2043);
#2042 = CARTESIAN_POINT('',(96.75,80.,2.5));
#2043 = VECTOR('',#2044,1.);
#2044 = DIRECTION('',(-0.5,-0.866025403784,0.));
#2045 = ORIENTED_EDGE('',*,*,#2015,.F.);
#2046 = ORIENTED_EDGE('',*,*,#978,.F.);
#2047 = PLANE('',#2048);
#2048 = AXIS2_PLACEMENT_3D('',#2049,#2050,#2051);
#2049 = CARTESIAN_POINT('',(96.75,80.,0.));
#2050 = DIRECTION('',(0.866025403784,-0.5,0.));
#2051 = DIRECTION('',(-0.5,-0.866025403784,0.));
#2052 = ADVANCED_FACE('',(#2053),#2072,.F.);
#2053 = FACE_BOUND('',#2054,.F.);
#2054 = EDGE_LOOP('',(#2055,#2063,#2064,#2065));
#2055 = ORIENTED_EDGE('',*,*,#2056,.F.);
#2056 = EDGE_CURVE('',#1031,#2057,#2059,.T.);
#2057 = VERTEX_POINT('',#2058);
#2058 = CARTESIAN_POINT('',(29.1,79.,2.5));
#2059 = LINE('',#2060,#2061);
#2060 = CARTESIAN_POINT('',(29.1,79.,3.3));
#2061 = VECTOR('',#2062,1.);
#2062 = DIRECTION('',(-0.,-0.,-1.));
#2063 = ORIENTED_EDGE('',*,*,#1030,.F.);
#2064 = ORIENTED_EDGE('',*,*,#2056,.T.);
#2065 = ORIENTED_EDGE('',*,*,#2066,.T.);
#2066 = EDGE_CURVE('',#2057,#2057,#2067,.T.);
#2067 = CIRCLE('',#2068,1.6);
#2068 = AXIS2_PLACEMENT_3D('',#2069,#2070,#2071);
#2069 = CARTESIAN_POINT('',(27.5,79.,2.5));
#2070 = DIRECTION('',(0.,0.,1.));
#2071 = DIRECTION('',(1.,0.,0.));
#2072 = CYLINDRICAL_SURFACE('',#2073,1.6);
#2073 = AXIS2_PLACEMENT_3D('',#2074,#2075,#2076);
#2074 = CARTESIAN_POINT('',(27.5,79.,3.3));
#2075 = DIRECTION('',(0.,0.,1.));
#2076 = DIRECTION('',(1.,0.,0.));
#2077 = ADVANCED_FACE('',(#2078),#2097,.F.);
#2078 = FACE_BOUND('',#2079,.F.);
#2079 = EDGE_LOOP('',(#2080,#2088,#2089,#2090));
#2080 = ORIENTED_EDGE('',*,*,#2081,.F.);
#2081 = EDGE_CURVE('',#1042,#2082,#2084,.T.);
#2082 = VERTEX_POINT('',#2083);
#2083 = CARTESIAN_POINT('',(13.1,80.,2.5));
#2084 = LINE('',#2085,#2086);
#2085 = CARTESIAN_POINT('',(13.1,80.,3.3));
#2086 = VECTOR('',#2087,1.);
#2087 = DIRECTION('',(-0.,-0.,-1.));
#2088 = ORIENTED_EDGE('',*,*,#1041,.F.);
#2089 = ORIENTED_EDGE('',*,*,#2081,.T.);
#2090 = ORIENTED_EDGE('',*,*,#2091,.T.);
#2091 = EDGE_CURVE('',#2082,#2082,#2092,.T.);
#2092 = CIRCLE('',#2093,1.6);
#2093 = AXIS2_PLACEMENT_3D('',#2094,#2095,#2096);
#2094 = CARTESIAN_POINT('',(11.5,80.,2.5));
#2095 = DIRECTION('',(0.,0.,1.));
#2096 = DIRECTION('',(1.,0.,0.));
#2097 = CYLINDRICAL_SURFACE('',#2098,1.6);
#2098 = AXIS2_PLACEMENT_3D('',#2099,#2100,#2101);
#2099 = CARTESIAN_POINT('',(11.5,80.,3.3));
#2100 = DIRECTION('',(0.,0.,1.));
#2101 = DIRECTION('',(1.,0.,0.));
#2102 = ADVANCED_FACE('',(#2103),#2122,.F.);
#2103 = FACE_BOUND('',#2104,.F.);
#2104 = EDGE_LOOP('',(#2105,#2113,#2114,#2115));
#2105 = ORIENTED_EDGE('',*,*,#2106,.F.);
#2106 = EDGE_CURVE('',#1053,#2107,#2109,.T.);
#2107 = VERTEX_POINT('',#2108);
#2108 = CARTESIAN_POINT('',(45.1,80.,2.5));
#2109 = LINE('',#2110,#2111);
#2110 = CARTESIAN_POINT('',(45.1,80.,3.3));
#2111 = VECTOR('',#2112,1.);
#2112 = DIRECTION('',(-0.,-0.,-1.));
#2113 = ORIENTED_EDGE('',*,*,#1052,.F.);
#2114 = ORIENTED_EDGE('',*,*,#2106,.T.);
#2115 = ORIENTED_EDGE('',*,*,#2116,.T.);
#2116 = EDGE_CURVE('',#2107,#2107,#2117,.T.);
#2117 = CIRCLE('',#2118,1.6);
#2118 = AXIS2_PLACEMENT_3D('',#2119,#2120,#2121);
#2119 = CARTESIAN_POINT('',(43.5,80.,2.5));
#2120 = DIRECTION('',(0.,0.,1.));
#2121 = DIRECTION('',(1.,0.,0.));
#2122 = CYLINDRICAL_SURFACE('',#2123,1.6);
#2123 = AXIS2_PLACEMENT_3D('',#2124,#2125,#2126);
#2124 = CARTESIAN_POINT('',(43.5,80.,3.3));
#2125 = DIRECTION('',(0.,0.,1.));
#2126 = DIRECTION('',(1.,0.,0.));
#2127 = ADVANCED_FACE('',(#2128),#2147,.F.);
#2128 = FACE_BOUND('',#2129,.F.);
#2129 = EDGE_LOOP('',(#2130,#2138,#2139,#2140));
#2130 = ORIENTED_EDGE('',*,*,#2131,.F.);
#2131 = EDGE_CURVE('',#1076,#2132,#2134,.T.);
#2132 = VERTEX_POINT('',#2133);
#2133 = CARTESIAN_POINT('',(79.1,79.,2.5));
#2134 = LINE('',#2135,#2136);
#2135 = CARTESIAN_POINT('',(79.1,79.,3.3));
#2136 = VECTOR('',#2137,1.);
#2137 = DIRECTION('',(-0.,-0.,-1.));
#2138 = ORIENTED_EDGE('',*,*,#1075,.F.);
#2139 = ORIENTED_EDGE('',*,*,#2131,.T.);
#2140 = ORIENTED_EDGE('',*,*,#2141,.T.);
#2141 = EDGE_CURVE('',#2132,#2132,#2142,.T.);
#2142 = CIRCLE('',#2143,1.6);
#2143 = AXIS2_PLACEMENT_3D('',#2144,#2145,#2146);
#2144 = CARTESIAN_POINT('',(77.5,79.,2.5));
#2145 = DIRECTION('',(0.,0.,1.));
#2146 = DIRECTION('',(1.,0.,0.));
#2147 = CYLINDRICAL_SURFACE('',#2148,1.6);
#2148 = AXIS2_PLACEMENT_3D('',#2149,#2150,#2151);
#2149 = CARTESIAN_POINT('',(77.5,79.,3.3));
#2150 = DIRECTION('',(0.,0.,1.));
#2151 = DIRECTION('',(1.,0.,0.));
#2152 = ADVANCED_FACE('',(#2153),#2172,.F.);
#2153 = FACE_BOUND('',#2154,.F.);
#2154 = EDGE_LOOP('',(#2155,#2163,#2164,#2165));
#2155 = ORIENTED_EDGE('',*,*,#2156,.F.);
#2156 = EDGE_CURVE('',#1087,#2157,#2159,.T.);
#2157 = VERTEX_POINT('',#2158);
#2158 = CARTESIAN_POINT('',(63.1,80.,2.5));
#2159 = LINE('',#2160,#2161);
#2160 = CARTESIAN_POINT('',(63.1,80.,3.3));
#2161 = VECTOR('',#2162,1.);
#2162 = DIRECTION('',(-0.,-0.,-1.));
#2163 = ORIENTED_EDGE('',*,*,#1086,.F.);
#2164 = ORIENTED_EDGE('',*,*,#2156,.T.);
#2165 = ORIENTED_EDGE('',*,*,#2166,.T.);
#2166 = EDGE_CURVE('',#2157,#2157,#2167,.T.);
#2167 = CIRCLE('',#2168,1.6);
#2168 = AXIS2_PLACEMENT_3D('',#2169,#2170,#2171);
#2169 = CARTESIAN_POINT('',(61.5,80.,2.5));
#2170 = DIRECTION('',(0.,0.,1.));
#2171 = DIRECTION('',(1.,0.,0.));
#2172 = CYLINDRICAL_SURFACE('',#2173,1.6);
#2173 = AXIS2_PLACEMENT_3D('',#2174,#2175,#2176);
#2174 = CARTESIAN_POINT('',(61.5,80.,3.3));
#2175 = DIRECTION('',(0.,0.,1.));
#2176 = DIRECTION('',(1.,0.,0.));
#2177 = ADVANCED_FACE('',(#2178),#2197,.F.);
#2178 = FACE_BOUND('',#2179,.F.);
#2179 = EDGE_LOOP('',(#2180,#2188,#2189,#2190));
#2180 = ORIENTED_EDGE('',*,*,#2181,.F.);
#2181 = EDGE_CURVE('',#1098,#2182,#2184,.T.);
#2182 = VERTEX_POINT('',#2183);
#2183 = CARTESIAN_POINT('',(95.1,80.,2.5));
#2184 = LINE('',#2185,#2186);
#2185 = CARTESIAN_POINT('',(95.1,80.,3.3));
#2186 = VECTOR('',#2187,1.);
#2187 = DIRECTION('',(-0.,-0.,-1.));
#2188 = ORIENTED_EDGE('',*,*,#1097,.F.);
#2189 = ORIENTED_EDGE('',*,*,#2181,.T.);
#2190 = ORIENTED_EDGE('',*,*,#2191,.T.);
#2191 = EDGE_CURVE('',#2182,#2182,#2192,.T.);
#2192 = CIRCLE('',#2193,1.6);
#2193 = AXIS2_PLACEMENT_3D('',#2194,#2195,#2196);
#2194 = CARTESIAN_POINT('',(93.5,80.,2.5));
#2195 = DIRECTION('',(0.,0.,1.));
#2196 = DIRECTION('',(1.,0.,0.));
#2197 = CYLINDRICAL_SURFACE('',#2198,1.6);
#2198 = AXIS2_PLACEMENT_3D('',#2199,#2200,#2201);
#2199 = CARTESIAN_POINT('',(93.5,80.,3.3));
#2200 = DIRECTION('',(0.,0.,1.));
#2201 = DIRECTION('',(1.,0.,0.));
#2202 = ADVANCED_FACE('',(#2203),#2206,.T.);
#2203 = FACE_BOUND('',#2204,.T.);
#2204 = EDGE_LOOP('',(#2205));
#2205 = ORIENTED_EDGE('',*,*,#1125,.T.);
#2206 = PLANE('',#2207);
#2207 = AXIS2_PLACEMENT_3D('',#2208,#2209,#2210);
#2208 = CARTESIAN_POINT('',(52.5,30.,7.5));
#2209 = DIRECTION('',(0.,0.,1.));
#2210 = DIRECTION('',(1.,0.,0.));
#2211 = ADVANCED_FACE('',(#2212),#2215,.T.);
#2212 = FACE_BOUND('',#2213,.T.);
#2213 = EDGE_LOOP('',(#2214));
#2214 = ORIENTED_EDGE('',*,*,#1151,.T.);
#2215 = PLANE('',#2216);
#2216 = AXIS2_PLACEMENT_3D('',#2217,#2218,#2219);
#2217 = CARTESIAN_POINT('',(52.5,30.,7.5));
#2218 = DIRECTION('',(0.,0.,1.));
#2219 = DIRECTION('',(1.,0.,0.));
#2220 = ADVANCED_FACE('',(#2221),#2224,.T.);
#2221 = FACE_BOUND('',#2222,.T.);
#2222 = EDGE_LOOP('',(#2223));
#2223 = ORIENTED_EDGE('',*,*,#1177,.T.);
#2224 = PLANE('',#2225);
#2225 = AXIS2_PLACEMENT_3D('',#2226,#2227,#2228);
#2226 = CARTESIAN_POINT('',(52.5,30.,7.5));
#2227 = DIRECTION('',(0.,0.,1.));
#2228 = DIRECTION('',(1.,0.,0.));
#2229 = ADVANCED_FACE('',(#2230,#2238),#2241,.F.);
#2230 = FACE_BOUND('',#2231,.F.);
#2231 = EDGE_LOOP('',(#2232,#2233,#2234,#2235,#2236,#2237));
#2232 = ORIENTED_EDGE('',*,*,#1320,.F.);
#2233 = ORIENTED_EDGE('',*,*,#1200,.F.);
#2234 = ORIENTED_EDGE('',*,*,#1231,.F.);
#2235 = ORIENTED_EDGE('',*,*,#1255,.F.);
#2236 = ORIENTED_EDGE('',*,*,#1279,.F.);
#2237 = ORIENTED_EDGE('',*,*,#1303,.F.);
#2238 = FACE_BOUND('',#2239,.F.);
#2239 = EDGE_LOOP('',(#2240));
#2240 = ORIENTED_EDGE('',*,*,#2091,.F.);
#2241 = PLANE('',#2242);
#2242 = AXIS2_PLACEMENT_3D('',#2243,#2244,#2245);
#2243 = CARTESIAN_POINT('',(52.5,79.666666666667,2.5));
#2244 = DIRECTION('',(0.,0.,1.));
#2245 = DIRECTION('',(1.,0.,0.));
#2246 = ADVANCED_FACE('',(#2247,#2255),#2258,.F.);
#2247 = FACE_BOUND('',#2248,.F.);
#2248 = EDGE_LOOP('',(#2249,#2250,#2251,#2252,#2253,#2254));
#2249 = ORIENTED_EDGE('',*,*,#1464,.F.);
#2250 = ORIENTED_EDGE('',*,*,#1344,.F.);
#2251 = ORIENTED_EDGE('',*,*,#1375,.F.);
#2252 = ORIENTED_EDGE('',*,*,#1399,.F.);
#2253 = ORIENTED_EDGE('',*,*,#1423,.F.);
#2254 = ORIENTED_EDGE('',*,*,#1447,.F.);
#2255 = FACE_BOUND('',#2256,.F.);
#2256 = EDGE_LOOP('',(#2257));
#2257 = ORIENTED_EDGE('',*,*,#2066,.F.);
#2258 = PLANE('',#2259);
#2259 = AXIS2_PLACEMENT_3D('',#2260,#2261,#2262);
#2260 = CARTESIAN_POINT('',(52.5,79.666666666667,2.5));
#2261 = DIRECTION('',(0.,0.,1.));
#2262 = DIRECTION('',(1.,0.,0.));
#2263 = ADVANCED_FACE('',(#2264,#2272),#2275,.F.);
#2264 = FACE_BOUND('',#2265,.F.);
#2265 = EDGE_LOOP('',(#2266,#2267,#2268,#2269,#2270,#2271));
#2266 = ORIENTED_EDGE('',*,*,#1608,.F.);
#2267 = ORIENTED_EDGE('',*,*,#1488,.F.);
#2268 = ORIENTED_EDGE('',*,*,#1519,.F.);
#2269 = ORIENTED_EDGE('',*,*,#1543,.F.);
#2270 = ORIENTED_EDGE('',*,*,#1567,.F.);
#2271 = ORIENTED_EDGE('',*,*,#1591,.F.);
#2272 = FACE_BOUND('',#2273,.F.);
#2273 = EDGE_LOOP('',(#2274));
#2274 = ORIENTED_EDGE('',*,*,#2116,.F.);
#2275 = PLANE('',#2276);
#2276 = AXIS2_PLACEMENT_3D('',#2277,#2278,#2279);
#2277 = CARTESIAN_POINT('',(52.5,79.666666666667,2.5));
#2278 = DIRECTION('',(0.,0.,1.));
#2279 = DIRECTION('',(1.,0.,0.));
#2280 = ADVANCED_FACE('',(#2281,#2289),#2292,.F.);
#2281 = FACE_BOUND('',#2282,.F.);
#2282 = EDGE_LOOP('',(#2283,#2284,#2285,#2286,#2287,#2288));
#2283 = ORIENTED_EDGE('',*,*,#1752,.F.);
#2284 = ORIENTED_EDGE('',*,*,#1632,.F.);
#2285 = ORIENTED_EDGE('',*,*,#1663,.F.);
#2286 = ORIENTED_EDGE('',*,*,#1687,.F.);
#2287 = ORIENTED_EDGE('',*,*,#1711,.F.);
#2288 = ORIENTED_EDGE('',*,*,#1735,.F.);
#2289 = FACE_BOUND('',#2290,.F.);
#2290 = EDGE_LOOP('',(#2291));
#2291 = ORIENTED_EDGE('',*,*,#2166,.F.);
#2292 = PLANE('',#2293);
#2293 = AXIS2_PLACEMENT_3D('',#2294,#2295,#2296);
#2294 = CARTESIAN_POINT('',(52.5,79.666666666667,2.5));
#2295 = DIRECTION('',(0.,0.,1.));
#2296 = DIRECTION('',(1.,0.,0.));
#2297 = ADVANCED_FACE('',(#2298,#2306),#2309,.F.);
#2298 = FACE_BOUND('',#2299,.F.);
#2299 = EDGE_LOOP('',(#2300,#2301,#2302,#2303,#2304,#2305));
#2300 = ORIENTED_EDGE('',*,*,#1896,.F.);
#2301 = ORIENTED_EDGE('',*,*,#1776,.F.);
#2302 = ORIENTED_EDGE('',*,*,#1807,.F.);
#2303 = ORIENTED_EDGE('',*,*,#1831,.F.);
#2304 = ORIENTED_EDGE('',*,*,#1855,.F.);
#2305 = ORIENTED_EDGE('',*,*,#1879,.F.);
#2306 = FACE_BOUND('',#2307,.F.);
#2307 = EDGE_LOOP('',(#2308));
#2308 = ORIENTED_EDGE('',*,*,#2141,.F.);
#2309 = PLANE('',#2310);
#2310 = AXIS2_PLACEMENT_3D('',#2311,#2312,#2313);
#2311 = CARTESIAN_POINT('',(52.5,79.666666666667,2.5));
#2312 = DIRECTION('',(0.,0.,1.));
#2313 = DIRECTION('',(1.,0.,0.));
#2314 = ADVANCED_FACE('',(#2315,#2323),#2326,.F.);
#2315 = FACE_BOUND('',#2316,.F.);
#2316 = EDGE_LOOP('',(#2317,#2318,#2319,#2320,#2321,#2322));
#2317 = ORIENTED_EDGE('',*,*,#2040,.F.);
#2318 = ORIENTED_EDGE('',*,*,#1920,.F.);
#2319 = ORIENTED_EDGE('',*,*,#1951,.F.);
#2320 = ORIENTED_EDGE('',*,*,#1975,.F.);
#2321 = ORIENTED_EDGE('',*,*,#1999,.F.);
#2322 = ORIENTED_EDGE('',*,*,#2023,.F.);
#2323 = FACE_BOUND('',#2324,.F.);
#2324 = EDGE_LOOP('',(#2325));
#2325 = ORIENTED_EDGE('',*,*,#2191,.F.);
#2326 = PLANE('',#2327);
#2327 = AXIS2_PLACEMENT_3D('',#2328,#2329,#2330);
#2328 = CARTESIAN_POINT('',(52.5,79.666666666667,2.5));
#2329 = DIRECTION('',(0.,0.,1.));
#2330 = DIRECTION('',(1.,0.,0.));
#2331 = ( GEOMETRIC_REPRESENTATION_CONTEXT(3) 
GLOBAL_UNCERTAINTY_ASSIGNED_CONTEXT((#2335)) 
GLOBAL_UNIT_ASSIGNED_CONTEXT((#2332,#2333,#2334)) REPRESENTATION_CONTEXT
('Context #1','3D Context with UNIT and UNCERTAINTY') );
#2332 = ( LENGTH_UNIT() NAMED_UNIT(*) SI_UNIT(.MILLI.,.METRE.) );
#2333 = ( NAMED_UNIT(*) PLANE_ANGLE_UNIT() SI_UNIT($,.RADIAN.) );
#2334 = ( NAMED_UNIT(*) SI_UNIT($,.STERADIAN.) SOLID_ANGLE_UNIT() );
#2335 = UNCERTAINTY_MEASURE_WITH_UNIT(LENGTH_MEASURE(1.E-07),#2332,
  'distance_accuracy_value','confusion accuracy');
#2336 = PRODUCT_RELATED_PRODUCT_CATEGORY('part',$,(#7));
#2337 = MECHANICAL_DESIGN_GEOMETRIC_PRESENTATION_REPRESENTATION('',(
    #2338),#2331);
#2338 = STYLED_ITEM('color',(#2339),#15);
#2339 = PRESENTATION_STYLE_ASSIGNMENT((#2340,#2348));
#2340 = SURFACE_STYLE_USAGE(.BOTH.,#2341);
#2341 = SURFACE_SIDE_STYLE('',(#2342,#2346));
#2342 = SURFACE_STYLE_FILL_AREA(#2343);
#2343 = FILL_AREA_STYLE('',(#2344));
#2344 = FILL_AREA_STYLE_COLOUR('',#2345);
#2345 = COLOUR_RGB('',0.380392165758,0.450980401079,0.639215714193);
#2346 = SURFACE_STYLE_RENDERING_WITH_PROPERTIES(.NORMAL_SHADING.,#2345,(
    #2347));
#2347 = SURFACE_STYLE_TRANSPARENT(0.699999988079);
#2348 = CURVE_STYLE('',#2349,POSITIVE_LENGTH_MEASURE(0.1),#2350);
#2349 = DRAUGHTING_PRE_DEFINED_CURVE_FONT('continuous');
#2350 = COLOUR_RGB('',9.803921802644E-02,9.803921802644E-02,
  9.803921802644E-02);
ENDSEC;
END-ISO-10303-21;
