ISO-10303-21;
HEADER;
FILE_DESCRIPTION(('FreeCAD Model'),'2;1');
FILE_NAME('Open CASCADE Shape Model','2025-10-07T20:44:50',(''),(''),
  'Open CASCADE STEP processor 7.9','FreeCAD','Unknown');
FILE_SCHEMA(('AUTOMOTIVE_DESIGN { 1 0 10303 214 1 1 1 1 }'));
ENDSEC;
DATA;
#1 = APPLICATION_PROTOCOL_DEFINITION('international standard',
  'automotive_design',2000,#2);
#2 = APPLICATION_CONTEXT(
  'core data for automotive mechanical design processes');
#3 = SHAPE_DEFINITION_REPRESENTATION(#4,#10);
#4 = PRODUCT_DEFINITION_SHAPE('','',#5);
#5 = PRODUCT_DEFINITION('design','',#6,#9);
#6 = PRODUCT_DEFINITION_FORMATION('','',#7);
#7 = PRODUCT('Body','Body','',(#8));
#8 = PRODUCT_CONTEXT('',#2,'mechanical');
#9 = PRODUCT_DEFINITION_CONTEXT('part definition',#2,'design');
#10 = ADVANCED_BREP_SHAPE_REPRESENTATION('',(#11,#15),#2227);
#11 = AXIS2_PLACEMENT_3D('',#12,#13,#14);
#12 = CARTESIAN_POINT('',(0.,0.,0.));
#13 = DIRECTION('',(0.,0.,1.));
#14 = DIRECTION('',(1.,0.,-0.));
#15 = MANIFOLD_SOLID_BREP('',#16);
#16 = CLOSED_SHELL('',(#17,#57,#88,#119,#470,#629,#687,#709,#726,#743,
    #755,#786,#810,#834,#858,#882,#899,#930,#954,#978,#1002,#1026,#1043,
    #1074,#1098,#1122,#1146,#1170,#1187,#1218,#1242,#1266,#1290,#1314,
    #1331,#1362,#1386,#1410,#1434,#1458,#1475,#1506,#1530,#1554,#1578,
    #1602,#1619,#1643,#1667,#1684,#1708,#1732,#1749,#1774,#1799,#1824,
    #1849,#1894,#1939,#1964,#1989,#2014,#2039,#2064,#2089,#2098,#2107,
    #2116,#2125,#2142,#2159,#2176,#2193,#2210));
#17 = ADVANCED_FACE('',(#18),#52,.F.);
#18 = FACE_BOUND('',#19,.F.);
#19 = EDGE_LOOP('',(#20,#30,#38,#46));
#20 = ORIENTED_EDGE('',*,*,#21,.T.);
#21 = EDGE_CURVE('',#22,#24,#26,.T.);
#22 = VERTEX_POINT('',#23);
#23 = CARTESIAN_POINT('',(0.,0.,0.));
#24 = VERTEX_POINT('',#25);
#25 = CARTESIAN_POINT('',(0.,0.,5.));
#26 = LINE('',#27,#28);
#27 = CARTESIAN_POINT('',(0.,0.,0.));
#28 = VECTOR('',#29,1.);
#29 = DIRECTION('',(0.,0.,1.));
#30 = ORIENTED_EDGE('',*,*,#31,.T.);
#31 = EDGE_CURVE('',#24,#32,#34,.T.);
#32 = VERTEX_POINT('',#33);
#33 = CARTESIAN_POINT('',(110.,0.,5.));
#34 = LINE('',#35,#36);
#35 = CARTESIAN_POINT('',(0.,0.,5.));
#36 = VECTOR('',#37,1.);
#37 = DIRECTION('',(1.,0.,0.));
#38 = ORIENTED_EDGE('',*,*,#39,.F.);
#39 = EDGE_CURVE('',#40,#32,#42,.T.);
#40 = VERTEX_POINT('',#41);
#41 = CARTESIAN_POINT('',(110.,0.,0.));
#42 = LINE('',#43,#44);
#43 = CARTESIAN_POINT('',(110.,0.,0.));
#44 = VECTOR('',#45,1.);
#45 = DIRECTION('',(0.,0.,1.));
#46 = ORIENTED_EDGE('',*,*,#47,.F.);
#47 = EDGE_CURVE('',#22,#40,#48,.T.);
#48 = LINE('',#49,#50);
#49 = CARTESIAN_POINT('',(0.,0.,0.));
#50 = VECTOR('',#51,1.);
#51 = DIRECTION('',(1.,0.,0.));
#52 = PLANE('',#53);
#53 = AXIS2_PLACEMENT_3D('',#54,#55,#56);
#54 = CARTESIAN_POINT('',(0.,0.,0.));
#55 = DIRECTION('',(0.,1.,0.));
#56 = DIRECTION('',(1.,0.,0.));
#57 = ADVANCED_FACE('',(#58),#83,.F.);
#58 = FACE_BOUND('',#59,.F.);
#59 = EDGE_LOOP('',(#60,#70,#76,#77));
#60 = ORIENTED_EDGE('',*,*,#61,.T.);
#61 = EDGE_CURVE('',#62,#64,#66,.T.);
#62 = VERTEX_POINT('',#63);
#63 = CARTESIAN_POINT('',(0.,100.,0.));
#64 = VERTEX_POINT('',#65);
#65 = CARTESIAN_POINT('',(0.,100.,5.));
#66 = LINE('',#67,#68);
#67 = CARTESIAN_POINT('',(0.,100.,0.));
#68 = VECTOR('',#69,1.);
#69 = DIRECTION('',(0.,0.,1.));
#70 = ORIENTED_EDGE('',*,*,#71,.T.);
#71 = EDGE_CURVE('',#64,#24,#72,.T.);
#72 = LINE('',#73,#74);
#73 = CARTESIAN_POINT('',(0.,100.,5.));
#74 = VECTOR('',#75,1.);
#75 = DIRECTION('',(0.,-1.,0.));
#76 = ORIENTED_EDGE('',*,*,#21,.F.);
#77 = ORIENTED_EDGE('',*,*,#78,.F.);
#78 = EDGE_CURVE('',#62,#22,#79,.T.);
#79 = LINE('',#80,#81);
#80 = CARTESIAN_POINT('',(0.,100.,0.));
#81 = VECTOR('',#82,1.);
#82 = DIRECTION('',(0.,-1.,0.));
#83 = PLANE('',#84);
#84 = AXIS2_PLACEMENT_3D('',#85,#86,#87);
#85 = CARTESIAN_POINT('',(0.,100.,0.));
#86 = DIRECTION('',(1.,0.,0.));
#87 = DIRECTION('',(0.,-1.,0.));
#88 = ADVANCED_FACE('',(#89),#114,.F.);
#89 = FACE_BOUND('',#90,.F.);
#90 = EDGE_LOOP('',(#91,#92,#100,#108));
#91 = ORIENTED_EDGE('',*,*,#39,.T.);
#92 = ORIENTED_EDGE('',*,*,#93,.T.);
#93 = EDGE_CURVE('',#32,#94,#96,.T.);
#94 = VERTEX_POINT('',#95);
#95 = CARTESIAN_POINT('',(110.,100.,5.));
#96 = LINE('',#97,#98);
#97 = CARTESIAN_POINT('',(110.,0.,5.));
#98 = VECTOR('',#99,1.);
#99 = DIRECTION('',(0.,1.,0.));
#100 = ORIENTED_EDGE('',*,*,#101,.F.);
#101 = EDGE_CURVE('',#102,#94,#104,.T.);
#102 = VERTEX_POINT('',#103);
#103 = CARTESIAN_POINT('',(110.,100.,0.));
#104 = LINE('',#105,#106);
#105 = CARTESIAN_POINT('',(110.,100.,0.));
#106 = VECTOR('',#107,1.);
#107 = DIRECTION('',(0.,0.,1.));
#108 = ORIENTED_EDGE('',*,*,#109,.F.);
#109 = EDGE_CURVE('',#40,#102,#110,.T.);
#110 = LINE('',#111,#112);
#111 = CARTESIAN_POINT('',(110.,0.,0.));
#112 = VECTOR('',#113,1.);
#113 = DIRECTION('',(0.,1.,0.));
#114 = PLANE('',#115);
#115 = AXIS2_PLACEMENT_3D('',#116,#117,#118);
#116 = CARTESIAN_POINT('',(110.,0.,0.));
#117 = DIRECTION('',(-1.,0.,0.));
#118 = DIRECTION('',(0.,1.,0.));
#119 = ADVANCED_FACE('',(#120,#131,#165,#215,#265,#315,#365,#415),#465,
  .F.);
#120 = FACE_BOUND('',#121,.F.);
#121 = EDGE_LOOP('',(#122,#123,#124,#130));
#122 = ORIENTED_EDGE('',*,*,#47,.T.);
#123 = ORIENTED_EDGE('',*,*,#109,.T.);
#124 = ORIENTED_EDGE('',*,*,#125,.T.);
#125 = EDGE_CURVE('',#102,#62,#126,.T.);
#126 = LINE('',#127,#128);
#127 = CARTESIAN_POINT('',(110.,100.,0.));
#128 = VECTOR('',#129,1.);
#129 = DIRECTION('',(-1.,0.,0.));
#130 = ORIENTED_EDGE('',*,*,#78,.T.);
#131 = FACE_BOUND('',#132,.F.);
#132 = EDGE_LOOP('',(#133,#143,#151,#159));
#133 = ORIENTED_EDGE('',*,*,#134,.T.);
#134 = EDGE_CURVE('',#135,#137,#139,.T.);
#135 = VERTEX_POINT('',#136);
#136 = CARTESIAN_POINT('',(15.,17.,0.));
#137 = VERTEX_POINT('',#138);
#138 = CARTESIAN_POINT('',(15.,67.,0.));
#139 = LINE('',#140,#141);
#140 = CARTESIAN_POINT('',(15.,17.,0.));
#141 = VECTOR('',#142,1.);
#142 = DIRECTION('',(0.,1.,0.));
#143 = ORIENTED_EDGE('',*,*,#144,.T.);
#144 = EDGE_CURVE('',#137,#145,#147,.T.);
#145 = VERTEX_POINT('',#146);
#146 = CARTESIAN_POINT('',(95.,67.,0.));
#147 = LINE('',#148,#149);
#148 = CARTESIAN_POINT('',(15.,67.,0.));
#149 = VECTOR('',#150,1.);
#150 = DIRECTION('',(1.,0.,0.));
#151 = ORIENTED_EDGE('',*,*,#152,.T.);
#152 = EDGE_CURVE('',#145,#153,#155,.T.);
#153 = VERTEX_POINT('',#154);
#154 = CARTESIAN_POINT('',(95.,17.,0.));
#155 = LINE('',#156,#157);
#156 = CARTESIAN_POINT('',(95.,67.,0.));
#157 = VECTOR('',#158,1.);
#158 = DIRECTION('',(0.,-1.,0.));
#159 = ORIENTED_EDGE('',*,*,#160,.T.);
#160 = EDGE_CURVE('',#153,#135,#161,.T.);
#161 = LINE('',#162,#163);
#162 = CARTESIAN_POINT('',(95.,17.,0.));
#163 = VECTOR('',#164,1.);
#164 = DIRECTION('',(-1.,0.,0.));
#165 = FACE_BOUND('',#166,.F.);
#166 = EDGE_LOOP('',(#167,#177,#185,#193,#201,#209));
#167 = ORIENTED_EDGE('',*,*,#168,.T.);
#168 = EDGE_CURVE('',#169,#171,#173,.T.);
#169 = VERTEX_POINT('',#170);
#170 = CARTESIAN_POINT('',(13.125,97.814582562299,0.));
#171 = VERTEX_POINT('',#172);
#172 = CARTESIAN_POINT('',(14.75,95.,0.));
#173 = LINE('',#174,#175);
#174 = CARTESIAN_POINT('',(13.125,97.814582562299,0.));
#175 = VECTOR('',#176,1.);
#176 = DIRECTION('',(0.5,-0.866025403784,0.));
#177 = ORIENTED_EDGE('',*,*,#178,.T.);
#178 = EDGE_CURVE('',#171,#179,#181,.T.);
#179 = VERTEX_POINT('',#180);
#180 = CARTESIAN_POINT('',(13.124999999999,92.185417437701,0.));
#181 = LINE('',#182,#183);
#182 = CARTESIAN_POINT('',(14.75,95.,0.));
#183 = VECTOR('',#184,1.);
#184 = DIRECTION('',(-0.5,-0.866025403784,0.));
#185 = ORIENTED_EDGE('',*,*,#186,.T.);
#186 = EDGE_CURVE('',#179,#187,#189,.T.);
#187 = VERTEX_POINT('',#188);
#188 = CARTESIAN_POINT('',(9.875000000001,92.185417437701,0.));
#189 = LINE('',#190,#191);
#190 = CARTESIAN_POINT('',(13.124999999999,92.185417437701,0.));
#191 = VECTOR('',#192,1.);
#192 = DIRECTION('',(-1.,-2.623542408961E-14,0.));
#193 = ORIENTED_EDGE('',*,*,#194,.T.);
#194 = EDGE_CURVE('',#187,#195,#197,.T.);
#195 = VERTEX_POINT('',#196);
#196 = CARTESIAN_POINT('',(8.25,95.,0.));
#197 = LINE('',#198,#199);
#198 = CARTESIAN_POINT('',(9.875000000001,92.185417437701,0.));
#199 = VECTOR('',#200,1.);
#200 = DIRECTION('',(-0.5,0.866025403784,-0.));
#201 = ORIENTED_EDGE('',*,*,#202,.T.);
#202 = EDGE_CURVE('',#195,#203,#205,.T.);
#203 = VERTEX_POINT('',#204);
#204 = CARTESIAN_POINT('',(9.875,97.814582562299,0.));
#205 = LINE('',#206,#207);
#206 = CARTESIAN_POINT('',(8.25,95.,0.));
#207 = VECTOR('',#208,1.);
#208 = DIRECTION('',(0.5,0.866025403784,0.));
#209 = ORIENTED_EDGE('',*,*,#210,.T.);
#210 = EDGE_CURVE('',#203,#169,#211,.T.);
#211 = LINE('',#212,#213);
#212 = CARTESIAN_POINT('',(9.875,97.814582562299,0.));
#213 = VECTOR('',#214,1.);
#214 = DIRECTION('',(1.,0.,0.));
#215 = FACE_BOUND('',#216,.F.);
#216 = EDGE_LOOP('',(#217,#227,#235,#243,#251,#259));
#217 = ORIENTED_EDGE('',*,*,#218,.T.);
#218 = EDGE_CURVE('',#219,#221,#223,.T.);
#219 = VERTEX_POINT('',#220);
#220 = CARTESIAN_POINT('',(29.124999999999,96.814582562298,0.));
#221 = VERTEX_POINT('',#222);
#222 = CARTESIAN_POINT('',(30.749999999999,94.,0.));
#223 = LINE('',#224,#225);
#224 = CARTESIAN_POINT('',(29.124999999999,96.814582562298,0.));
#225 = VECTOR('',#226,1.);
#226 = DIRECTION('',(0.5,-0.866025403784,0.));
#227 = ORIENTED_EDGE('',*,*,#228,.T.);
#228 = EDGE_CURVE('',#221,#229,#231,.T.);
#229 = VERTEX_POINT('',#230);
#230 = CARTESIAN_POINT('',(29.124999999999,91.185417437702,0.));
#231 = LINE('',#232,#233);
#232 = CARTESIAN_POINT('',(30.749999999999,94.,0.));
#233 = VECTOR('',#234,1.);
#234 = DIRECTION('',(-0.5,-0.866025403784,0.));
#235 = ORIENTED_EDGE('',*,*,#236,.T.);
#236 = EDGE_CURVE('',#229,#237,#239,.T.);
#237 = VERTEX_POINT('',#238);
#238 = CARTESIAN_POINT('',(25.875000000001,91.185417437702,0.));
#239 = LINE('',#240,#241);
#240 = CARTESIAN_POINT('',(29.124999999999,91.185417437702,0.));
#241 = VECTOR('',#242,1.);
#242 = DIRECTION('',(-1.,4.372570681602E-15,-0.));
#243 = ORIENTED_EDGE('',*,*,#244,.T.);
#244 = EDGE_CURVE('',#237,#245,#247,.T.);
#245 = VERTEX_POINT('',#246);
#246 = CARTESIAN_POINT('',(24.250000000001,94.,0.));
#247 = LINE('',#248,#249);
#248 = CARTESIAN_POINT('',(25.875000000001,91.185417437702,0.));
#249 = VECTOR('',#250,1.);
#250 = DIRECTION('',(-0.5,0.866025403784,-0.));
#251 = ORIENTED_EDGE('',*,*,#252,.T.);
#252 = EDGE_CURVE('',#245,#253,#255,.T.);
#253 = VERTEX_POINT('',#254);
#254 = CARTESIAN_POINT('',(25.875000000001,96.814582562298,0.));
#255 = LINE('',#256,#257);
#256 = CARTESIAN_POINT('',(24.250000000001,94.,0.));
#257 = VECTOR('',#258,1.);
#258 = DIRECTION('',(0.5,0.866025403784,0.));
#259 = ORIENTED_EDGE('',*,*,#260,.T.);
#260 = EDGE_CURVE('',#253,#219,#261,.T.);
#261 = LINE('',#262,#263);
#262 = CARTESIAN_POINT('',(25.875000000001,96.814582562298,0.));
#263 = VECTOR('',#264,1.);
#264 = DIRECTION('',(1.,0.,0.));
#265 = FACE_BOUND('',#266,.F.);
#266 = EDGE_LOOP('',(#267,#277,#285,#293,#301,#309));
#267 = ORIENTED_EDGE('',*,*,#268,.T.);
#268 = EDGE_CURVE('',#269,#271,#273,.T.);
#269 = VERTEX_POINT('',#270);
#270 = CARTESIAN_POINT('',(45.124999999999,97.814582562298,0.));
#271 = VERTEX_POINT('',#272);
#272 = CARTESIAN_POINT('',(46.749999999999,95.,0.));
#273 = LINE('',#274,#275);
#274 = CARTESIAN_POINT('',(45.124999999999,97.814582562298,0.));
#275 = VECTOR('',#276,1.);
#276 = DIRECTION('',(0.5,-0.866025403784,0.));
#277 = ORIENTED_EDGE('',*,*,#278,.T.);
#278 = EDGE_CURVE('',#271,#279,#281,.T.);
#279 = VERTEX_POINT('',#280);
#280 = CARTESIAN_POINT('',(45.124999999999,92.185417437702,0.));
#281 = LINE('',#282,#283);
#282 = CARTESIAN_POINT('',(46.749999999999,95.,0.));
#283 = VECTOR('',#284,1.);
#284 = DIRECTION('',(-0.5,-0.866025403784,0.));
#285 = ORIENTED_EDGE('',*,*,#286,.T.);
#286 = EDGE_CURVE('',#279,#287,#289,.T.);
#287 = VERTEX_POINT('',#288);
#288 = CARTESIAN_POINT('',(41.875000000001,92.185417437702,0.));
#289 = LINE('',#290,#291);
#290 = CARTESIAN_POINT('',(45.124999999999,92.185417437702,0.));
#291 = VECTOR('',#292,1.);
#292 = DIRECTION('',(-1.,4.372570681602E-15,-0.));
#293 = ORIENTED_EDGE('',*,*,#294,.T.);
#294 = EDGE_CURVE('',#287,#295,#297,.T.);
#295 = VERTEX_POINT('',#296);
#296 = CARTESIAN_POINT('',(40.250000000001,95.,0.));
#297 = LINE('',#298,#299);
#298 = CARTESIAN_POINT('',(41.875000000001,92.185417437702,0.));
#299 = VECTOR('',#300,1.);
#300 = DIRECTION('',(-0.5,0.866025403784,-0.));
#301 = ORIENTED_EDGE('',*,*,#302,.T.);
#302 = EDGE_CURVE('',#295,#303,#305,.T.);
#303 = VERTEX_POINT('',#304);
#304 = CARTESIAN_POINT('',(41.875000000001,97.814582562298,0.));
#305 = LINE('',#306,#307);
#306 = CARTESIAN_POINT('',(40.250000000001,95.,0.));
#307 = VECTOR('',#308,1.);
#308 = DIRECTION('',(0.5,0.866025403784,0.));
#309 = ORIENTED_EDGE('',*,*,#310,.T.);
#310 = EDGE_CURVE('',#303,#269,#311,.T.);
#311 = LINE('',#312,#313);
#312 = CARTESIAN_POINT('',(41.875000000001,97.814582562298,0.));
#313 = VECTOR('',#314,1.);
#314 = DIRECTION('',(1.,0.,0.));
#315 = FACE_BOUND('',#316,.F.);
#316 = EDGE_LOOP('',(#317,#327,#335,#343,#351,#359));
#317 = ORIENTED_EDGE('',*,*,#318,.T.);
#318 = EDGE_CURVE('',#319,#321,#323,.T.);
#319 = VERTEX_POINT('',#320);
#320 = CARTESIAN_POINT('',(68.124999999999,97.814582562298,0.));
#321 = VERTEX_POINT('',#322);
#322 = CARTESIAN_POINT('',(69.749999999999,95.,0.));
#323 = LINE('',#324,#325);
#324 = CARTESIAN_POINT('',(68.124999999999,97.814582562298,0.));
#325 = VECTOR('',#326,1.);
#326 = DIRECTION('',(0.5,-0.866025403784,0.));
#327 = ORIENTED_EDGE('',*,*,#328,.T.);
#328 = EDGE_CURVE('',#321,#329,#331,.T.);
#329 = VERTEX_POINT('',#330);
#330 = CARTESIAN_POINT('',(68.124999999999,92.185417437702,0.));
#331 = LINE('',#332,#333);
#332 = CARTESIAN_POINT('',(69.749999999999,95.,0.));
#333 = VECTOR('',#334,1.);
#334 = DIRECTION('',(-0.5,-0.866025403784,0.));
#335 = ORIENTED_EDGE('',*,*,#336,.T.);
#336 = EDGE_CURVE('',#329,#337,#339,.T.);
#337 = VERTEX_POINT('',#338);
#338 = CARTESIAN_POINT('',(64.875000000001,92.185417437702,0.));
#339 = LINE('',#340,#341);
#340 = CARTESIAN_POINT('',(68.124999999999,92.185417437702,0.));
#341 = VECTOR('',#342,1.);
#342 = DIRECTION('',(-1.,4.372570681602E-15,-0.));
#343 = ORIENTED_EDGE('',*,*,#344,.T.);
#344 = EDGE_CURVE('',#337,#345,#347,.T.);
#345 = VERTEX_POINT('',#346);
#346 = CARTESIAN_POINT('',(63.250000000001,95.,0.));
#347 = LINE('',#348,#349);
#348 = CARTESIAN_POINT('',(64.875000000001,92.185417437702,0.));
#349 = VECTOR('',#350,1.);
#350 = DIRECTION('',(-0.5,0.866025403784,-0.));
#351 = ORIENTED_EDGE('',*,*,#352,.T.);
#352 = EDGE_CURVE('',#345,#353,#355,.T.);
#353 = VERTEX_POINT('',#354);
#354 = CARTESIAN_POINT('',(64.875000000001,97.814582562298,0.));
#355 = LINE('',#356,#357);
#356 = CARTESIAN_POINT('',(63.250000000001,95.,0.));
#357 = VECTOR('',#358,1.);
#358 = DIRECTION('',(0.5,0.866025403784,0.));
#359 = ORIENTED_EDGE('',*,*,#360,.T.);
#360 = EDGE_CURVE('',#353,#319,#361,.T.);
#361 = LINE('',#362,#363);
#362 = CARTESIAN_POINT('',(64.875000000001,97.814582562298,0.));
#363 = VECTOR('',#364,1.);
#364 = DIRECTION('',(1.,0.,0.));
#365 = FACE_BOUND('',#366,.F.);
#366 = EDGE_LOOP('',(#367,#377,#385,#393,#401,#409));
#367 = ORIENTED_EDGE('',*,*,#368,.T.);
#368 = EDGE_CURVE('',#369,#371,#373,.T.);
#369 = VERTEX_POINT('',#370);
#370 = CARTESIAN_POINT('',(84.124999999999,96.814582562298,0.));
#371 = VERTEX_POINT('',#372);
#372 = CARTESIAN_POINT('',(85.749999999999,94.,0.));
#373 = LINE('',#374,#375);
#374 = CARTESIAN_POINT('',(84.124999999999,96.814582562298,0.));
#375 = VECTOR('',#376,1.);
#376 = DIRECTION('',(0.5,-0.866025403784,0.));
#377 = ORIENTED_EDGE('',*,*,#378,.T.);
#378 = EDGE_CURVE('',#371,#379,#381,.T.);
#379 = VERTEX_POINT('',#380);
#380 = CARTESIAN_POINT('',(84.124999999999,91.185417437702,0.));
#381 = LINE('',#382,#383);
#382 = CARTESIAN_POINT('',(85.749999999999,94.,0.));
#383 = VECTOR('',#384,1.);
#384 = DIRECTION('',(-0.5,-0.866025403784,0.));
#385 = ORIENTED_EDGE('',*,*,#386,.T.);
#386 = EDGE_CURVE('',#379,#387,#389,.T.);
#387 = VERTEX_POINT('',#388);
#388 = CARTESIAN_POINT('',(80.875000000001,91.185417437702,0.));
#389 = LINE('',#390,#391);
#390 = CARTESIAN_POINT('',(84.124999999999,91.185417437702,0.));
#391 = VECTOR('',#392,1.);
#392 = DIRECTION('',(-1.,4.372570681602E-15,-0.));
#393 = ORIENTED_EDGE('',*,*,#394,.T.);
#394 = EDGE_CURVE('',#387,#395,#397,.T.);
#395 = VERTEX_POINT('',#396);
#396 = CARTESIAN_POINT('',(79.250000000001,94.,0.));
#397 = LINE('',#398,#399);
#398 = CARTESIAN_POINT('',(80.875000000001,91.185417437702,0.));
#399 = VECTOR('',#400,1.);
#400 = DIRECTION('',(-0.5,0.866025403784,-0.));
#401 = ORIENTED_EDGE('',*,*,#402,.T.);
#402 = EDGE_CURVE('',#395,#403,#405,.T.);
#403 = VERTEX_POINT('',#404);
#404 = CARTESIAN_POINT('',(80.875000000001,96.814582562298,0.));
#405 = LINE('',#406,#407);
#406 = CARTESIAN_POINT('',(79.250000000001,94.,0.));
#407 = VECTOR('',#408,1.);
#408 = DIRECTION('',(0.5,0.866025403784,0.));
#409 = ORIENTED_EDGE('',*,*,#410,.T.);
#410 = EDGE_CURVE('',#403,#369,#411,.T.);
#411 = LINE('',#412,#413);
#412 = CARTESIAN_POINT('',(80.875000000001,96.814582562298,0.));
#413 = VECTOR('',#414,1.);
#414 = DIRECTION('',(1.,0.,0.));
#415 = FACE_BOUND('',#416,.F.);
#416 = EDGE_LOOP('',(#417,#427,#435,#443,#451,#459));
#417 = ORIENTED_EDGE('',*,*,#418,.T.);
#418 = EDGE_CURVE('',#419,#421,#423,.T.);
#419 = VERTEX_POINT('',#420);
#420 = CARTESIAN_POINT('',(100.12499999999,97.814582562298,0.));
#421 = VERTEX_POINT('',#422);
#422 = CARTESIAN_POINT('',(101.74999999999,95.,0.));
#423 = LINE('',#424,#425);
#424 = CARTESIAN_POINT('',(100.12499999999,97.814582562298,0.));
#425 = VECTOR('',#426,1.);
#426 = DIRECTION('',(0.5,-0.866025403784,0.));
#427 = ORIENTED_EDGE('',*,*,#428,.T.);
#428 = EDGE_CURVE('',#421,#429,#431,.T.);
#429 = VERTEX_POINT('',#430);
#430 = CARTESIAN_POINT('',(100.12499999999,92.185417437702,0.));
#431 = LINE('',#432,#433);
#432 = CARTESIAN_POINT('',(101.74999999999,95.,0.));
#433 = VECTOR('',#434,1.);
#434 = DIRECTION('',(-0.5,-0.866025403784,0.));
#435 = ORIENTED_EDGE('',*,*,#436,.T.);
#436 = EDGE_CURVE('',#429,#437,#439,.T.);
#437 = VERTEX_POINT('',#438);
#438 = CARTESIAN_POINT('',(96.875000000001,92.185417437702,0.));
#439 = LINE('',#440,#441);
#440 = CARTESIAN_POINT('',(100.12499999999,92.185417437702,0.));
#441 = VECTOR('',#442,1.);
#442 = DIRECTION('',(-1.,4.372570681602E-15,-0.));
#443 = ORIENTED_EDGE('',*,*,#444,.T.);
#444 = EDGE_CURVE('',#437,#445,#447,.T.);
#445 = VERTEX_POINT('',#446);
#446 = CARTESIAN_POINT('',(95.250000000001,95.,0.));
#447 = LINE('',#448,#449);
#448 = CARTESIAN_POINT('',(96.875000000001,92.185417437702,0.));
#449 = VECTOR('',#450,1.);
#450 = DIRECTION('',(-0.5,0.866025403784,-0.));
#451 = ORIENTED_EDGE('',*,*,#452,.T.);
#452 = EDGE_CURVE('',#445,#453,#455,.T.);
#453 = VERTEX_POINT('',#454);
#454 = CARTESIAN_POINT('',(96.875000000001,97.814582562298,0.));
#455 = LINE('',#456,#457);
#456 = CARTESIAN_POINT('',(95.250000000001,95.,0.));
#457 = VECTOR('',#458,1.);
#458 = DIRECTION('',(0.5,0.866025403784,0.));
#459 = ORIENTED_EDGE('',*,*,#460,.T.);
#460 = EDGE_CURVE('',#453,#419,#461,.T.);
#461 = LINE('',#462,#463);
#462 = CARTESIAN_POINT('',(96.875000000001,97.814582562298,0.));
#463 = VECTOR('',#464,1.);
#464 = DIRECTION('',(1.,0.,0.));
#465 = PLANE('',#466);
#466 = AXIS2_PLACEMENT_3D('',#467,#468,#469);
#467 = CARTESIAN_POINT('',(55.,50.,0.));
#468 = DIRECTION('',(0.,0.,1.));
#469 = DIRECTION('',(1.,0.,0.));
#470 = ADVANCED_FACE('',(#471,#546,#557,#568,#579,#613),#624,.T.);
#471 = FACE_BOUND('',#472,.T.);
#472 = EDGE_LOOP('',(#473,#474,#475,#476,#484,#492,#500,#508,#516,#524,
    #532,#540));
#473 = ORIENTED_EDGE('',*,*,#71,.T.);
#474 = ORIENTED_EDGE('',*,*,#31,.T.);
#475 = ORIENTED_EDGE('',*,*,#93,.T.);
#476 = ORIENTED_EDGE('',*,*,#477,.T.);
#477 = EDGE_CURVE('',#94,#478,#480,.T.);
#478 = VERTEX_POINT('',#479);
#479 = CARTESIAN_POINT('',(105.,100.,5.));
#480 = LINE('',#481,#482);
#481 = CARTESIAN_POINT('',(110.,100.,5.));
#482 = VECTOR('',#483,1.);
#483 = DIRECTION('',(-1.,0.,0.));
#484 = ORIENTED_EDGE('',*,*,#485,.T.);
#485 = EDGE_CURVE('',#478,#486,#488,.T.);
#486 = VERTEX_POINT('',#487);
#487 = CARTESIAN_POINT('',(105.,88.,5.));
#488 = LINE('',#489,#490);
#489 = CARTESIAN_POINT('',(105.,100.,5.));
#490 = VECTOR('',#491,1.);
#491 = DIRECTION('',(0.,-1.,0.));
#492 = ORIENTED_EDGE('',*,*,#493,.T.);
#493 = EDGE_CURVE('',#486,#494,#496,.T.);
#494 = VERTEX_POINT('',#495);
#495 = CARTESIAN_POINT('',(59.999999999939,88.,5.));
#496 = LINE('',#497,#498);
#497 = CARTESIAN_POINT('',(105.,88.,5.));
#498 = VECTOR('',#499,1.);
#499 = DIRECTION('',(-1.,0.,0.));
#500 = ORIENTED_EDGE('',*,*,#501,.T.);
#501 = EDGE_CURVE('',#494,#502,#504,.T.);
#502 = VERTEX_POINT('',#503);
#503 = CARTESIAN_POINT('',(59.999999999939,100.,5.));
#504 = LINE('',#505,#506);
#505 = CARTESIAN_POINT('',(59.999999999939,88.,5.));
#506 = VECTOR('',#507,1.);
#507 = DIRECTION('',(0.,1.,0.));
#508 = ORIENTED_EDGE('',*,*,#509,.T.);
#509 = EDGE_CURVE('',#502,#510,#512,.T.);
#510 = VERTEX_POINT('',#511);
#511 = CARTESIAN_POINT('',(50.,100.,5.));
#512 = LINE('',#513,#514);
#513 = CARTESIAN_POINT('',(110.,100.,5.));
#514 = VECTOR('',#515,1.);
#515 = DIRECTION('',(-1.,0.,0.));
#516 = ORIENTED_EDGE('',*,*,#517,.T.);
#517 = EDGE_CURVE('',#510,#518,#520,.T.);
#518 = VERTEX_POINT('',#519);
#519 = CARTESIAN_POINT('',(50.,88.,5.));
#520 = LINE('',#521,#522);
#521 = CARTESIAN_POINT('',(50.,100.,5.));
#522 = VECTOR('',#523,1.);
#523 = DIRECTION('',(0.,-1.,0.));
#524 = ORIENTED_EDGE('',*,*,#525,.T.);
#525 = EDGE_CURVE('',#518,#526,#528,.T.);
#526 = VERTEX_POINT('',#527);
#527 = CARTESIAN_POINT('',(5.,88.,5.));
#528 = LINE('',#529,#530);
#529 = CARTESIAN_POINT('',(50.,88.,5.));
#530 = VECTOR('',#531,1.);
#531 = DIRECTION('',(-1.,0.,0.));
#532 = ORIENTED_EDGE('',*,*,#533,.T.);
#533 = EDGE_CURVE('',#526,#534,#536,.T.);
#534 = VERTEX_POINT('',#535);
#535 = CARTESIAN_POINT('',(5.,100.,5.));
#536 = LINE('',#537,#538);
#537 = CARTESIAN_POINT('',(5.,88.,5.));
#538 = VECTOR('',#539,1.);
#539 = DIRECTION('',(0.,1.,0.));
#540 = ORIENTED_EDGE('',*,*,#541,.T.);
#541 = EDGE_CURVE('',#534,#64,#542,.T.);
#542 = LINE('',#543,#544);
#543 = CARTESIAN_POINT('',(110.,100.,5.));
#544 = VECTOR('',#545,1.);
#545 = DIRECTION('',(-1.,0.,0.));
#546 = FACE_BOUND('',#547,.T.);
#547 = EDGE_LOOP('',(#548));
#548 = ORIENTED_EDGE('',*,*,#549,.F.);
#549 = EDGE_CURVE('',#550,#550,#552,.T.);
#550 = VERTEX_POINT('',#551);
#551 = CARTESIAN_POINT('',(12.35,25.,5.));
#552 = CIRCLE('',#553,2.35);
#553 = AXIS2_PLACEMENT_3D('',#554,#555,#556);
#554 = CARTESIAN_POINT('',(10.,25.,5.));
#555 = DIRECTION('',(0.,0.,1.));
#556 = DIRECTION('',(1.,0.,0.));
#557 = FACE_BOUND('',#558,.T.);
#558 = EDGE_LOOP('',(#559));
#559 = ORIENTED_EDGE('',*,*,#560,.F.);
#560 = EDGE_CURVE('',#561,#561,#563,.T.);
#561 = VERTEX_POINT('',#562);
#562 = CARTESIAN_POINT('',(102.35,25.,5.));
#563 = CIRCLE('',#564,2.35);
#564 = AXIS2_PLACEMENT_3D('',#565,#566,#567);
#565 = CARTESIAN_POINT('',(100.,25.,5.));
#566 = DIRECTION('',(0.,0.,1.));
#567 = DIRECTION('',(1.,0.,0.));
#568 = FACE_BOUND('',#569,.T.);
#569 = EDGE_LOOP('',(#570));
#570 = ORIENTED_EDGE('',*,*,#571,.F.);
#571 = EDGE_CURVE('',#572,#572,#574,.T.);
#572 = VERTEX_POINT('',#573);
#573 = CARTESIAN_POINT('',(12.35,58.,5.));
#574 = CIRCLE('',#575,2.35);
#575 = AXIS2_PLACEMENT_3D('',#576,#577,#578);
#576 = CARTESIAN_POINT('',(10.,58.,5.));
#577 = DIRECTION('',(0.,0.,1.));
#578 = DIRECTION('',(1.,0.,0.));
#579 = FACE_BOUND('',#580,.T.);
#580 = EDGE_LOOP('',(#581,#591,#599,#607));
#581 = ORIENTED_EDGE('',*,*,#582,.T.);
#582 = EDGE_CURVE('',#583,#585,#587,.T.);
#583 = VERTEX_POINT('',#584);
#584 = CARTESIAN_POINT('',(15.,17.,5.));
#585 = VERTEX_POINT('',#586);
#586 = CARTESIAN_POINT('',(15.,67.,5.));
#587 = LINE('',#588,#589);
#588 = CARTESIAN_POINT('',(15.,17.,5.));
#589 = VECTOR('',#590,1.);
#590 = DIRECTION('',(0.,1.,0.));
#591 = ORIENTED_EDGE('',*,*,#592,.T.);
#592 = EDGE_CURVE('',#585,#593,#595,.T.);
#593 = VERTEX_POINT('',#594);
#594 = CARTESIAN_POINT('',(95.,67.,5.));
#595 = LINE('',#596,#597);
#596 = CARTESIAN_POINT('',(15.,67.,5.));
#597 = VECTOR('',#598,1.);
#598 = DIRECTION('',(1.,0.,0.));
#599 = ORIENTED_EDGE('',*,*,#600,.T.);
#600 = EDGE_CURVE('',#593,#601,#603,.T.);
#601 = VERTEX_POINT('',#602);
#602 = CARTESIAN_POINT('',(95.,17.,5.));
#603 = LINE('',#604,#605);
#604 = CARTESIAN_POINT('',(95.,67.,5.));
#605 = VECTOR('',#606,1.);
#606 = DIRECTION('',(0.,-1.,0.));
#607 = ORIENTED_EDGE('',*,*,#608,.T.);
#608 = EDGE_CURVE('',#601,#583,#609,.T.);
#609 = LINE('',#610,#611);
#610 = CARTESIAN_POINT('',(95.,17.,5.));
#611 = VECTOR('',#612,1.);
#612 = DIRECTION('',(-1.,0.,0.));
#613 = FACE_BOUND('',#614,.T.);
#614 = EDGE_LOOP('',(#615));
#615 = ORIENTED_EDGE('',*,*,#616,.F.);
#616 = EDGE_CURVE('',#617,#617,#619,.T.);
#617 = VERTEX_POINT('',#618);
#618 = CARTESIAN_POINT('',(102.35,58.,5.));
#619 = CIRCLE('',#620,2.35);
#620 = AXIS2_PLACEMENT_3D('',#621,#622,#623);
#621 = CARTESIAN_POINT('',(100.,58.,5.));
#622 = DIRECTION('',(0.,0.,1.));
#623 = DIRECTION('',(1.,0.,0.));
#624 = PLANE('',#625);
#625 = AXIS2_PLACEMENT_3D('',#626,#627,#628);
#626 = CARTESIAN_POINT('',(55.,50.,5.));
#627 = DIRECTION('',(0.,0.,1.));
#628 = DIRECTION('',(1.,0.,0.));
#629 = ADVANCED_FACE('',(#630),#682,.F.);
#630 = FACE_BOUND('',#631,.F.);
#631 = EDGE_LOOP('',(#632,#633,#634,#635,#643,#651,#657,#658,#666,#674,
    #680,#681));
#632 = ORIENTED_EDGE('',*,*,#125,.F.);
#633 = ORIENTED_EDGE('',*,*,#101,.T.);
#634 = ORIENTED_EDGE('',*,*,#477,.T.);
#635 = ORIENTED_EDGE('',*,*,#636,.T.);
#636 = EDGE_CURVE('',#478,#637,#639,.T.);
#637 = VERTEX_POINT('',#638);
#638 = CARTESIAN_POINT('',(105.,100.,3.3));
#639 = LINE('',#640,#641);
#640 = CARTESIAN_POINT('',(105.,100.,5.));
#641 = VECTOR('',#642,1.);
#642 = DIRECTION('',(-0.,-0.,-1.));
#643 = ORIENTED_EDGE('',*,*,#644,.F.);
#644 = EDGE_CURVE('',#645,#637,#647,.T.);
#645 = VERTEX_POINT('',#646);
#646 = CARTESIAN_POINT('',(59.999999999939,100.,3.3));
#647 = LINE('',#648,#649);
#648 = CARTESIAN_POINT('',(59.999999999939,100.,3.3));
#649 = VECTOR('',#650,1.);
#650 = DIRECTION('',(1.,0.,0.));
#651 = ORIENTED_EDGE('',*,*,#652,.F.);
#652 = EDGE_CURVE('',#502,#645,#653,.T.);
#653 = LINE('',#654,#655);
#654 = CARTESIAN_POINT('',(59.999999999939,100.,5.));
#655 = VECTOR('',#656,1.);
#656 = DIRECTION('',(-0.,-0.,-1.));
#657 = ORIENTED_EDGE('',*,*,#509,.T.);
#658 = ORIENTED_EDGE('',*,*,#659,.T.);
#659 = EDGE_CURVE('',#510,#660,#662,.T.);
#660 = VERTEX_POINT('',#661);
#661 = CARTESIAN_POINT('',(50.,100.,3.3));
#662 = LINE('',#663,#664);
#663 = CARTESIAN_POINT('',(50.,100.,5.));
#664 = VECTOR('',#665,1.);
#665 = DIRECTION('',(-0.,-0.,-1.));
#666 = ORIENTED_EDGE('',*,*,#667,.F.);
#667 = EDGE_CURVE('',#668,#660,#670,.T.);
#668 = VERTEX_POINT('',#669);
#669 = CARTESIAN_POINT('',(5.,100.,3.3));
#670 = LINE('',#671,#672);
#671 = CARTESIAN_POINT('',(5.,100.,3.3));
#672 = VECTOR('',#673,1.);
#673 = DIRECTION('',(1.,0.,0.));
#674 = ORIENTED_EDGE('',*,*,#675,.F.);
#675 = EDGE_CURVE('',#534,#668,#676,.T.);
#676 = LINE('',#677,#678);
#677 = CARTESIAN_POINT('',(5.,100.,5.));
#678 = VECTOR('',#679,1.);
#679 = DIRECTION('',(-0.,-0.,-1.));
#680 = ORIENTED_EDGE('',*,*,#541,.T.);
#681 = ORIENTED_EDGE('',*,*,#61,.F.);
#682 = PLANE('',#683);
#683 = AXIS2_PLACEMENT_3D('',#684,#685,#686);
#684 = CARTESIAN_POINT('',(110.,100.,0.));
#685 = DIRECTION('',(0.,-1.,0.));
#686 = DIRECTION('',(-1.,0.,0.));
#687 = ADVANCED_FACE('',(#688),#704,.T.);
#688 = FACE_BOUND('',#689,.T.);
#689 = EDGE_LOOP('',(#690,#696,#697,#703));
#690 = ORIENTED_EDGE('',*,*,#691,.T.);
#691 = EDGE_CURVE('',#583,#135,#692,.T.);
#692 = LINE('',#693,#694);
#693 = CARTESIAN_POINT('',(15.,17.,5.));
#694 = VECTOR('',#695,1.);
#695 = DIRECTION('',(-0.,-0.,-1.));
#696 = ORIENTED_EDGE('',*,*,#134,.T.);
#697 = ORIENTED_EDGE('',*,*,#698,.F.);
#698 = EDGE_CURVE('',#585,#137,#699,.T.);
#699 = LINE('',#700,#701);
#700 = CARTESIAN_POINT('',(15.,67.,5.));
#701 = VECTOR('',#702,1.);
#702 = DIRECTION('',(-0.,-0.,-1.));
#703 = ORIENTED_EDGE('',*,*,#582,.F.);
#704 = PLANE('',#705);
#705 = AXIS2_PLACEMENT_3D('',#706,#707,#708);
#706 = CARTESIAN_POINT('',(15.,17.,5.));
#707 = DIRECTION('',(1.,0.,0.));
#708 = DIRECTION('',(0.,1.,0.));
#709 = ADVANCED_FACE('',(#710),#721,.T.);
#710 = FACE_BOUND('',#711,.T.);
#711 = EDGE_LOOP('',(#712,#718,#719,#720));
#712 = ORIENTED_EDGE('',*,*,#713,.T.);
#713 = EDGE_CURVE('',#601,#153,#714,.T.);
#714 = LINE('',#715,#716);
#715 = CARTESIAN_POINT('',(95.,17.,5.));
#716 = VECTOR('',#717,1.);
#717 = DIRECTION('',(-0.,-0.,-1.));
#718 = ORIENTED_EDGE('',*,*,#160,.T.);
#719 = ORIENTED_EDGE('',*,*,#691,.F.);
#720 = ORIENTED_EDGE('',*,*,#608,.F.);
#721 = PLANE('',#722);
#722 = AXIS2_PLACEMENT_3D('',#723,#724,#725);
#723 = CARTESIAN_POINT('',(95.,17.,5.));
#724 = DIRECTION('',(0.,1.,0.));
#725 = DIRECTION('',(-1.,0.,0.));
#726 = ADVANCED_FACE('',(#727),#738,.T.);
#727 = FACE_BOUND('',#728,.T.);
#728 = EDGE_LOOP('',(#729,#730,#731,#737));
#729 = ORIENTED_EDGE('',*,*,#698,.T.);
#730 = ORIENTED_EDGE('',*,*,#144,.T.);
#731 = ORIENTED_EDGE('',*,*,#732,.F.);
#732 = EDGE_CURVE('',#593,#145,#733,.T.);
#733 = LINE('',#734,#735);
#734 = CARTESIAN_POINT('',(95.,67.,5.));
#735 = VECTOR('',#736,1.);
#736 = DIRECTION('',(-0.,-0.,-1.));
#737 = ORIENTED_EDGE('',*,*,#592,.F.);
#738 = PLANE('',#739);
#739 = AXIS2_PLACEMENT_3D('',#740,#741,#742);
#740 = CARTESIAN_POINT('',(15.,67.,5.));
#741 = DIRECTION('',(0.,-1.,0.));
#742 = DIRECTION('',(1.,0.,0.));
#743 = ADVANCED_FACE('',(#744),#750,.T.);
#744 = FACE_BOUND('',#745,.T.);
#745 = EDGE_LOOP('',(#746,#747,#748,#749));
#746 = ORIENTED_EDGE('',*,*,#732,.T.);
#747 = ORIENTED_EDGE('',*,*,#152,.T.);
#748 = ORIENTED_EDGE('',*,*,#713,.F.);
#749 = ORIENTED_EDGE('',*,*,#600,.F.);
#750 = PLANE('',#751);
#751 = AXIS2_PLACEMENT_3D('',#752,#753,#754);
#752 = CARTESIAN_POINT('',(95.,67.,5.));
#753 = DIRECTION('',(-1.,0.,0.));
#754 = DIRECTION('',(0.,-1.,0.));
#755 = ADVANCED_FACE('',(#756),#781,.F.);
#756 = FACE_BOUND('',#757,.F.);
#757 = EDGE_LOOP('',(#758,#766,#774,#780));
#758 = ORIENTED_EDGE('',*,*,#759,.T.);
#759 = EDGE_CURVE('',#169,#760,#762,.T.);
#760 = VERTEX_POINT('',#761);
#761 = CARTESIAN_POINT('',(13.125,97.814582562299,2.5));
#762 = LINE('',#763,#764);
#763 = CARTESIAN_POINT('',(13.125,97.814582562299,0.));
#764 = VECTOR('',#765,1.);
#765 = DIRECTION('',(0.,0.,1.));
#766 = ORIENTED_EDGE('',*,*,#767,.T.);
#767 = EDGE_CURVE('',#760,#768,#770,.T.);
#768 = VERTEX_POINT('',#769);
#769 = CARTESIAN_POINT('',(14.75,95.,2.5));
#770 = LINE('',#771,#772);
#771 = CARTESIAN_POINT('',(13.125,97.814582562299,2.5));
#772 = VECTOR('',#773,1.);
#773 = DIRECTION('',(0.5,-0.866025403784,0.));
#774 = ORIENTED_EDGE('',*,*,#775,.F.);
#775 = EDGE_CURVE('',#171,#768,#776,.T.);
#776 = LINE('',#777,#778);
#777 = CARTESIAN_POINT('',(14.75,95.,0.));
#778 = VECTOR('',#779,1.);
#779 = DIRECTION('',(0.,0.,1.));
#780 = ORIENTED_EDGE('',*,*,#168,.F.);
#781 = PLANE('',#782);
#782 = AXIS2_PLACEMENT_3D('',#783,#784,#785);
#783 = CARTESIAN_POINT('',(13.125,97.814582562299,0.));
#784 = DIRECTION('',(0.866025403784,0.5,0.));
#785 = DIRECTION('',(0.5,-0.866025403784,0.));
#786 = ADVANCED_FACE('',(#787),#805,.F.);
#787 = FACE_BOUND('',#788,.F.);
#788 = EDGE_LOOP('',(#789,#797,#803,#804));
#789 = ORIENTED_EDGE('',*,*,#790,.T.);
#790 = EDGE_CURVE('',#203,#791,#793,.T.);
#791 = VERTEX_POINT('',#792);
#792 = CARTESIAN_POINT('',(9.875,97.814582562299,2.5));
#793 = LINE('',#794,#795);
#794 = CARTESIAN_POINT('',(9.875,97.814582562299,0.));
#795 = VECTOR('',#796,1.);
#796 = DIRECTION('',(0.,0.,1.));
#797 = ORIENTED_EDGE('',*,*,#798,.T.);
#798 = EDGE_CURVE('',#791,#760,#799,.T.);
#799 = LINE('',#800,#801);
#800 = CARTESIAN_POINT('',(9.875,97.814582562299,2.5));
#801 = VECTOR('',#802,1.);
#802 = DIRECTION('',(1.,0.,0.));
#803 = ORIENTED_EDGE('',*,*,#759,.F.);
#804 = ORIENTED_EDGE('',*,*,#210,.F.);
#805 = PLANE('',#806);
#806 = AXIS2_PLACEMENT_3D('',#807,#808,#809);
#807 = CARTESIAN_POINT('',(9.875,97.814582562299,0.));
#808 = DIRECTION('',(0.,1.,0.));
#809 = DIRECTION('',(1.,0.,0.));
#810 = ADVANCED_FACE('',(#811),#829,.F.);
#811 = FACE_BOUND('',#812,.F.);
#812 = EDGE_LOOP('',(#813,#821,#827,#828));
#813 = ORIENTED_EDGE('',*,*,#814,.T.);
#814 = EDGE_CURVE('',#195,#815,#817,.T.);
#815 = VERTEX_POINT('',#816);
#816 = CARTESIAN_POINT('',(8.25,95.,2.5));
#817 = LINE('',#818,#819);
#818 = CARTESIAN_POINT('',(8.25,95.,0.));
#819 = VECTOR('',#820,1.);
#820 = DIRECTION('',(0.,0.,1.));
#821 = ORIENTED_EDGE('',*,*,#822,.T.);
#822 = EDGE_CURVE('',#815,#791,#823,.T.);
#823 = LINE('',#824,#825);
#824 = CARTESIAN_POINT('',(8.25,95.,2.5));
#825 = VECTOR('',#826,1.);
#826 = DIRECTION('',(0.5,0.866025403784,0.));
#827 = ORIENTED_EDGE('',*,*,#790,.F.);
#828 = ORIENTED_EDGE('',*,*,#202,.F.);
#829 = PLANE('',#830);
#830 = AXIS2_PLACEMENT_3D('',#831,#832,#833);
#831 = CARTESIAN_POINT('',(8.25,95.,0.));
#832 = DIRECTION('',(-0.866025403784,0.5,0.));
#833 = DIRECTION('',(0.5,0.866025403784,0.));
#834 = ADVANCED_FACE('',(#835),#853,.F.);
#835 = FACE_BOUND('',#836,.F.);
#836 = EDGE_LOOP('',(#837,#845,#851,#852));
#837 = ORIENTED_EDGE('',*,*,#838,.T.);
#838 = EDGE_CURVE('',#187,#839,#841,.T.);
#839 = VERTEX_POINT('',#840);
#840 = CARTESIAN_POINT('',(9.875000000001,92.185417437701,2.5));
#841 = LINE('',#842,#843);
#842 = CARTESIAN_POINT('',(9.875000000001,92.185417437701,0.));
#843 = VECTOR('',#844,1.);
#844 = DIRECTION('',(0.,0.,1.));
#845 = ORIENTED_EDGE('',*,*,#846,.T.);
#846 = EDGE_CURVE('',#839,#815,#847,.T.);
#847 = LINE('',#848,#849);
#848 = CARTESIAN_POINT('',(9.875000000001,92.185417437701,2.5));
#849 = VECTOR('',#850,1.);
#850 = DIRECTION('',(-0.5,0.866025403784,-0.));
#851 = ORIENTED_EDGE('',*,*,#814,.F.);
#852 = ORIENTED_EDGE('',*,*,#194,.F.);
#853 = PLANE('',#854);
#854 = AXIS2_PLACEMENT_3D('',#855,#856,#857);
#855 = CARTESIAN_POINT('',(9.875000000001,92.185417437701,0.));
#856 = DIRECTION('',(-0.866025403784,-0.5,0.));
#857 = DIRECTION('',(-0.5,0.866025403784,0.));
#858 = ADVANCED_FACE('',(#859),#877,.F.);
#859 = FACE_BOUND('',#860,.F.);
#860 = EDGE_LOOP('',(#861,#869,#875,#876));
#861 = ORIENTED_EDGE('',*,*,#862,.T.);
#862 = EDGE_CURVE('',#179,#863,#865,.T.);
#863 = VERTEX_POINT('',#864);
#864 = CARTESIAN_POINT('',(13.124999999999,92.185417437701,2.5));
#865 = LINE('',#866,#867);
#866 = CARTESIAN_POINT('',(13.124999999999,92.185417437701,0.));
#867 = VECTOR('',#868,1.);
#868 = DIRECTION('',(0.,0.,1.));
#869 = ORIENTED_EDGE('',*,*,#870,.T.);
#870 = EDGE_CURVE('',#863,#839,#871,.T.);
#871 = LINE('',#872,#873);
#872 = CARTESIAN_POINT('',(13.124999999999,92.185417437701,2.5));
#873 = VECTOR('',#874,1.);
#874 = DIRECTION('',(-1.,-2.623542408961E-14,0.));
#875 = ORIENTED_EDGE('',*,*,#838,.F.);
#876 = ORIENTED_EDGE('',*,*,#186,.F.);
#877 = PLANE('',#878);
#878 = AXIS2_PLACEMENT_3D('',#879,#880,#881);
#879 = CARTESIAN_POINT('',(13.124999999999,92.185417437701,0.));
#880 = DIRECTION('',(2.623542408961E-14,-1.,0.));
#881 = DIRECTION('',(-1.,-2.623542408961E-14,0.));
#882 = ADVANCED_FACE('',(#883),#894,.F.);
#883 = FACE_BOUND('',#884,.F.);
#884 = EDGE_LOOP('',(#885,#886,#892,#893));
#885 = ORIENTED_EDGE('',*,*,#775,.T.);
#886 = ORIENTED_EDGE('',*,*,#887,.T.);
#887 = EDGE_CURVE('',#768,#863,#888,.T.);
#888 = LINE('',#889,#890);
#889 = CARTESIAN_POINT('',(14.75,95.,2.5));
#890 = VECTOR('',#891,1.);
#891 = DIRECTION('',(-0.5,-0.866025403784,0.));
#892 = ORIENTED_EDGE('',*,*,#862,.F.);
#893 = ORIENTED_EDGE('',*,*,#178,.F.);
#894 = PLANE('',#895);
#895 = AXIS2_PLACEMENT_3D('',#896,#897,#898);
#896 = CARTESIAN_POINT('',(14.75,95.,0.));
#897 = DIRECTION('',(0.866025403784,-0.5,0.));
#898 = DIRECTION('',(-0.5,-0.866025403784,0.));
#899 = ADVANCED_FACE('',(#900),#925,.F.);
#900 = FACE_BOUND('',#901,.F.);
#901 = EDGE_LOOP('',(#902,#910,#918,#924));
#902 = ORIENTED_EDGE('',*,*,#903,.T.);
#903 = EDGE_CURVE('',#219,#904,#906,.T.);
#904 = VERTEX_POINT('',#905);
#905 = CARTESIAN_POINT('',(29.124999999999,96.814582562298,2.5));
#906 = LINE('',#907,#908);
#907 = CARTESIAN_POINT('',(29.124999999999,96.814582562298,0.));
#908 = VECTOR('',#909,1.);
#909 = DIRECTION('',(0.,0.,1.));
#910 = ORIENTED_EDGE('',*,*,#911,.T.);
#911 = EDGE_CURVE('',#904,#912,#914,.T.);
#912 = VERTEX_POINT('',#913);
#913 = CARTESIAN_POINT('',(30.749999999999,94.,2.5));
#914 = LINE('',#915,#916);
#915 = CARTESIAN_POINT('',(29.124999999999,96.814582562298,2.5));
#916 = VECTOR('',#917,1.);
#917 = DIRECTION('',(0.5,-0.866025403784,0.));
#918 = ORIENTED_EDGE('',*,*,#919,.F.);
#919 = EDGE_CURVE('',#221,#912,#920,.T.);
#920 = LINE('',#921,#922);
#921 = CARTESIAN_POINT('',(30.749999999999,94.,0.));
#922 = VECTOR('',#923,1.);
#923 = DIRECTION('',(0.,0.,1.));
#924 = ORIENTED_EDGE('',*,*,#218,.F.);
#925 = PLANE('',#926);
#926 = AXIS2_PLACEMENT_3D('',#927,#928,#929);
#927 = CARTESIAN_POINT('',(29.124999999999,96.814582562298,0.));
#928 = DIRECTION('',(0.866025403784,0.5,0.));
#929 = DIRECTION('',(0.5,-0.866025403784,0.));
#930 = ADVANCED_FACE('',(#931),#949,.F.);
#931 = FACE_BOUND('',#932,.F.);
#932 = EDGE_LOOP('',(#933,#941,#947,#948));
#933 = ORIENTED_EDGE('',*,*,#934,.T.);
#934 = EDGE_CURVE('',#253,#935,#937,.T.);
#935 = VERTEX_POINT('',#936);
#936 = CARTESIAN_POINT('',(25.875000000001,96.814582562298,2.5));
#937 = LINE('',#938,#939);
#938 = CARTESIAN_POINT('',(25.875000000001,96.814582562298,0.));
#939 = VECTOR('',#940,1.);
#940 = DIRECTION('',(0.,0.,1.));
#941 = ORIENTED_EDGE('',*,*,#942,.T.);
#942 = EDGE_CURVE('',#935,#904,#943,.T.);
#943 = LINE('',#944,#945);
#944 = CARTESIAN_POINT('',(25.875000000001,96.814582562298,2.5));
#945 = VECTOR('',#946,1.);
#946 = DIRECTION('',(1.,0.,0.));
#947 = ORIENTED_EDGE('',*,*,#903,.F.);
#948 = ORIENTED_EDGE('',*,*,#260,.F.);
#949 = PLANE('',#950);
#950 = AXIS2_PLACEMENT_3D('',#951,#952,#953);
#951 = CARTESIAN_POINT('',(25.875000000001,96.814582562298,0.));
#952 = DIRECTION('',(0.,1.,0.));
#953 = DIRECTION('',(1.,0.,0.));
#954 = ADVANCED_FACE('',(#955),#973,.F.);
#955 = FACE_BOUND('',#956,.F.);
#956 = EDGE_LOOP('',(#957,#965,#971,#972));
#957 = ORIENTED_EDGE('',*,*,#958,.T.);
#958 = EDGE_CURVE('',#245,#959,#961,.T.);
#959 = VERTEX_POINT('',#960);
#960 = CARTESIAN_POINT('',(24.250000000001,94.,2.5));
#961 = LINE('',#962,#963);
#962 = CARTESIAN_POINT('',(24.250000000001,94.,0.));
#963 = VECTOR('',#964,1.);
#964 = DIRECTION('',(0.,0.,1.));
#965 = ORIENTED_EDGE('',*,*,#966,.T.);
#966 = EDGE_CURVE('',#959,#935,#967,.T.);
#967 = LINE('',#968,#969);
#968 = CARTESIAN_POINT('',(24.250000000001,94.,2.5));
#969 = VECTOR('',#970,1.);
#970 = DIRECTION('',(0.5,0.866025403784,0.));
#971 = ORIENTED_EDGE('',*,*,#934,.F.);
#972 = ORIENTED_EDGE('',*,*,#252,.F.);
#973 = PLANE('',#974);
#974 = AXIS2_PLACEMENT_3D('',#975,#976,#977);
#975 = CARTESIAN_POINT('',(24.250000000001,94.,0.));
#976 = DIRECTION('',(-0.866025403784,0.5,0.));
#977 = DIRECTION('',(0.5,0.866025403784,0.));
#978 = ADVANCED_FACE('',(#979),#997,.F.);
#979 = FACE_BOUND('',#980,.F.);
#980 = EDGE_LOOP('',(#981,#989,#995,#996));
#981 = ORIENTED_EDGE('',*,*,#982,.T.);
#982 = EDGE_CURVE('',#237,#983,#985,.T.);
#983 = VERTEX_POINT('',#984);
#984 = CARTESIAN_POINT('',(25.875000000001,91.185417437702,2.5));
#985 = LINE('',#986,#987);
#986 = CARTESIAN_POINT('',(25.875000000001,91.185417437702,0.));
#987 = VECTOR('',#988,1.);
#988 = DIRECTION('',(0.,0.,1.));
#989 = ORIENTED_EDGE('',*,*,#990,.T.);
#990 = EDGE_CURVE('',#983,#959,#991,.T.);
#991 = LINE('',#992,#993);
#992 = CARTESIAN_POINT('',(25.875000000001,91.185417437702,2.5));
#993 = VECTOR('',#994,1.);
#994 = DIRECTION('',(-0.5,0.866025403784,-0.));
#995 = ORIENTED_EDGE('',*,*,#958,.F.);
#996 = ORIENTED_EDGE('',*,*,#244,.F.);
#997 = PLANE('',#998);
#998 = AXIS2_PLACEMENT_3D('',#999,#1000,#1001);
#999 = CARTESIAN_POINT('',(25.875000000001,91.185417437702,0.));
#1000 = DIRECTION('',(-0.866025403784,-0.5,0.));
#1001 = DIRECTION('',(-0.5,0.866025403784,0.));
#1002 = ADVANCED_FACE('',(#1003),#1021,.F.);
#1003 = FACE_BOUND('',#1004,.F.);
#1004 = EDGE_LOOP('',(#1005,#1013,#1019,#1020));
#1005 = ORIENTED_EDGE('',*,*,#1006,.T.);
#1006 = EDGE_CURVE('',#229,#1007,#1009,.T.);
#1007 = VERTEX_POINT('',#1008);
#1008 = CARTESIAN_POINT('',(29.124999999999,91.185417437702,2.5));
#1009 = LINE('',#1010,#1011);
#1010 = CARTESIAN_POINT('',(29.124999999999,91.185417437702,0.));
#1011 = VECTOR('',#1012,1.);
#1012 = DIRECTION('',(0.,0.,1.));
#1013 = ORIENTED_EDGE('',*,*,#1014,.T.);
#1014 = EDGE_CURVE('',#1007,#983,#1015,.T.);
#1015 = LINE('',#1016,#1017);
#1016 = CARTESIAN_POINT('',(29.124999999999,91.185417437702,2.5));
#1017 = VECTOR('',#1018,1.);
#1018 = DIRECTION('',(-1.,4.372570681602E-15,-0.));
#1019 = ORIENTED_EDGE('',*,*,#982,.F.);
#1020 = ORIENTED_EDGE('',*,*,#236,.F.);
#1021 = PLANE('',#1022);
#1022 = AXIS2_PLACEMENT_3D('',#1023,#1024,#1025);
#1023 = CARTESIAN_POINT('',(29.124999999999,91.185417437702,0.));
#1024 = DIRECTION('',(-4.372570681602E-15,-1.,0.));
#1025 = DIRECTION('',(-1.,4.372570681602E-15,0.));
#1026 = ADVANCED_FACE('',(#1027),#1038,.F.);
#1027 = FACE_BOUND('',#1028,.F.);
#1028 = EDGE_LOOP('',(#1029,#1030,#1036,#1037));
#1029 = ORIENTED_EDGE('',*,*,#919,.T.);
#1030 = ORIENTED_EDGE('',*,*,#1031,.T.);
#1031 = EDGE_CURVE('',#912,#1007,#1032,.T.);
#1032 = LINE('',#1033,#1034);
#1033 = CARTESIAN_POINT('',(30.749999999999,94.,2.5));
#1034 = VECTOR('',#1035,1.);
#1035 = DIRECTION('',(-0.5,-0.866025403784,0.));
#1036 = ORIENTED_EDGE('',*,*,#1006,.F.);
#1037 = ORIENTED_EDGE('',*,*,#228,.F.);
#1038 = PLANE('',#1039);
#1039 = AXIS2_PLACEMENT_3D('',#1040,#1041,#1042);
#1040 = CARTESIAN_POINT('',(30.749999999999,94.,0.));
#1041 = DIRECTION('',(0.866025403784,-0.5,0.));
#1042 = DIRECTION('',(-0.5,-0.866025403784,0.));
#1043 = ADVANCED_FACE('',(#1044),#1069,.F.);
#1044 = FACE_BOUND('',#1045,.F.);
#1045 = EDGE_LOOP('',(#1046,#1054,#1062,#1068));
#1046 = ORIENTED_EDGE('',*,*,#1047,.T.);
#1047 = EDGE_CURVE('',#269,#1048,#1050,.T.);
#1048 = VERTEX_POINT('',#1049);
#1049 = CARTESIAN_POINT('',(45.124999999999,97.814582562298,2.5));
#1050 = LINE('',#1051,#1052);
#1051 = CARTESIAN_POINT('',(45.124999999999,97.814582562298,0.));
#1052 = VECTOR('',#1053,1.);
#1053 = DIRECTION('',(0.,0.,1.));
#1054 = ORIENTED_EDGE('',*,*,#1055,.T.);
#1055 = EDGE_CURVE('',#1048,#1056,#1058,.T.);
#1056 = VERTEX_POINT('',#1057);
#1057 = CARTESIAN_POINT('',(46.749999999999,95.,2.5));
#1058 = LINE('',#1059,#1060);
#1059 = CARTESIAN_POINT('',(45.124999999999,97.814582562298,2.5));
#1060 = VECTOR('',#1061,1.);
#1061 = DIRECTION('',(0.5,-0.866025403784,0.));
#1062 = ORIENTED_EDGE('',*,*,#1063,.F.);
#1063 = EDGE_CURVE('',#271,#1056,#1064,.T.);
#1064 = LINE('',#1065,#1066);
#1065 = CARTESIAN_POINT('',(46.749999999999,95.,0.));
#1066 = VECTOR('',#1067,1.);
#1067 = DIRECTION('',(0.,0.,1.));
#1068 = ORIENTED_EDGE('',*,*,#268,.F.);
#1069 = PLANE('',#1070);
#1070 = AXIS2_PLACEMENT_3D('',#1071,#1072,#1073);
#1071 = CARTESIAN_POINT('',(45.124999999999,97.814582562298,0.));
#1072 = DIRECTION('',(0.866025403784,0.5,0.));
#1073 = DIRECTION('',(0.5,-0.866025403784,0.));
#1074 = ADVANCED_FACE('',(#1075),#1093,.F.);
#1075 = FACE_BOUND('',#1076,.F.);
#1076 = EDGE_LOOP('',(#1077,#1085,#1091,#1092));
#1077 = ORIENTED_EDGE('',*,*,#1078,.T.);
#1078 = EDGE_CURVE('',#303,#1079,#1081,.T.);
#1079 = VERTEX_POINT('',#1080);
#1080 = CARTESIAN_POINT('',(41.875000000001,97.814582562298,2.5));
#1081 = LINE('',#1082,#1083);
#1082 = CARTESIAN_POINT('',(41.875000000001,97.814582562298,0.));
#1083 = VECTOR('',#1084,1.);
#1084 = DIRECTION('',(0.,0.,1.));
#1085 = ORIENTED_EDGE('',*,*,#1086,.T.);
#1086 = EDGE_CURVE('',#1079,#1048,#1087,.T.);
#1087 = LINE('',#1088,#1089);
#1088 = CARTESIAN_POINT('',(41.875000000001,97.814582562298,2.5));
#1089 = VECTOR('',#1090,1.);
#1090 = DIRECTION('',(1.,0.,0.));
#1091 = ORIENTED_EDGE('',*,*,#1047,.F.);
#1092 = ORIENTED_EDGE('',*,*,#310,.F.);
#1093 = PLANE('',#1094);
#1094 = AXIS2_PLACEMENT_3D('',#1095,#1096,#1097);
#1095 = CARTESIAN_POINT('',(41.875000000001,97.814582562298,0.));
#1096 = DIRECTION('',(0.,1.,0.));
#1097 = DIRECTION('',(1.,0.,0.));
#1098 = ADVANCED_FACE('',(#1099),#1117,.F.);
#1099 = FACE_BOUND('',#1100,.F.);
#1100 = EDGE_LOOP('',(#1101,#1109,#1115,#1116));
#1101 = ORIENTED_EDGE('',*,*,#1102,.T.);
#1102 = EDGE_CURVE('',#295,#1103,#1105,.T.);
#1103 = VERTEX_POINT('',#1104);
#1104 = CARTESIAN_POINT('',(40.250000000001,95.,2.5));
#1105 = LINE('',#1106,#1107);
#1106 = CARTESIAN_POINT('',(40.250000000001,95.,0.));
#1107 = VECTOR('',#1108,1.);
#1108 = DIRECTION('',(0.,0.,1.));
#1109 = ORIENTED_EDGE('',*,*,#1110,.T.);
#1110 = EDGE_CURVE('',#1103,#1079,#1111,.T.);
#1111 = LINE('',#1112,#1113);
#1112 = CARTESIAN_POINT('',(40.250000000001,95.,2.5));
#1113 = VECTOR('',#1114,1.);
#1114 = DIRECTION('',(0.5,0.866025403784,0.));
#1115 = ORIENTED_EDGE('',*,*,#1078,.F.);
#1116 = ORIENTED_EDGE('',*,*,#302,.F.);
#1117 = PLANE('',#1118);
#1118 = AXIS2_PLACEMENT_3D('',#1119,#1120,#1121);
#1119 = CARTESIAN_POINT('',(40.250000000001,95.,0.));
#1120 = DIRECTION('',(-0.866025403784,0.5,0.));
#1121 = DIRECTION('',(0.5,0.866025403784,0.));
#1122 = ADVANCED_FACE('',(#1123),#1141,.F.);
#1123 = FACE_BOUND('',#1124,.F.);
#1124 = EDGE_LOOP('',(#1125,#1133,#1139,#1140));
#1125 = ORIENTED_EDGE('',*,*,#1126,.T.);
#1126 = EDGE_CURVE('',#287,#1127,#1129,.T.);
#1127 = VERTEX_POINT('',#1128);
#1128 = CARTESIAN_POINT('',(41.875000000001,92.185417437702,2.5));
#1129 = LINE('',#1130,#1131);
#1130 = CARTESIAN_POINT('',(41.875000000001,92.185417437702,0.));
#1131 = VECTOR('',#1132,1.);
#1132 = DIRECTION('',(0.,0.,1.));
#1133 = ORIENTED_EDGE('',*,*,#1134,.T.);
#1134 = EDGE_CURVE('',#1127,#1103,#1135,.T.);
#1135 = LINE('',#1136,#1137);
#1136 = CARTESIAN_POINT('',(41.875000000001,92.185417437702,2.5));
#1137 = VECTOR('',#1138,1.);
#1138 = DIRECTION('',(-0.5,0.866025403784,-0.));
#1139 = ORIENTED_EDGE('',*,*,#1102,.F.);
#1140 = ORIENTED_EDGE('',*,*,#294,.F.);
#1141 = PLANE('',#1142);
#1142 = AXIS2_PLACEMENT_3D('',#1143,#1144,#1145);
#1143 = CARTESIAN_POINT('',(41.875000000001,92.185417437702,0.));
#1144 = DIRECTION('',(-0.866025403784,-0.5,0.));
#1145 = DIRECTION('',(-0.5,0.866025403784,0.));
#1146 = ADVANCED_FACE('',(#1147),#1165,.F.);
#1147 = FACE_BOUND('',#1148,.F.);
#1148 = EDGE_LOOP('',(#1149,#1157,#1163,#1164));
#1149 = ORIENTED_EDGE('',*,*,#1150,.T.);
#1150 = EDGE_CURVE('',#279,#1151,#1153,.T.);
#1151 = VERTEX_POINT('',#1152);
#1152 = CARTESIAN_POINT('',(45.124999999999,92.185417437702,2.5));
#1153 = LINE('',#1154,#1155);
#1154 = CARTESIAN_POINT('',(45.124999999999,92.185417437702,0.));
#1155 = VECTOR('',#1156,1.);
#1156 = DIRECTION('',(0.,0.,1.));
#1157 = ORIENTED_EDGE('',*,*,#1158,.T.);
#1158 = EDGE_CURVE('',#1151,#1127,#1159,.T.);
#1159 = LINE('',#1160,#1161);
#1160 = CARTESIAN_POINT('',(45.124999999999,92.185417437702,2.5));
#1161 = VECTOR('',#1162,1.);
#1162 = DIRECTION('',(-1.,4.372570681602E-15,-0.));
#1163 = ORIENTED_EDGE('',*,*,#1126,.F.);
#1164 = ORIENTED_EDGE('',*,*,#286,.F.);
#1165 = PLANE('',#1166);
#1166 = AXIS2_PLACEMENT_3D('',#1167,#1168,#1169);
#1167 = CARTESIAN_POINT('',(45.124999999999,92.185417437702,0.));
#1168 = DIRECTION('',(-4.372570681602E-15,-1.,0.));
#1169 = DIRECTION('',(-1.,4.372570681602E-15,0.));
#1170 = ADVANCED_FACE('',(#1171),#1182,.F.);
#1171 = FACE_BOUND('',#1172,.F.);
#1172 = EDGE_LOOP('',(#1173,#1174,#1180,#1181));
#1173 = ORIENTED_EDGE('',*,*,#1063,.T.);
#1174 = ORIENTED_EDGE('',*,*,#1175,.T.);
#1175 = EDGE_CURVE('',#1056,#1151,#1176,.T.);
#1176 = LINE('',#1177,#1178);
#1177 = CARTESIAN_POINT('',(46.749999999999,95.,2.5));
#1178 = VECTOR('',#1179,1.);
#1179 = DIRECTION('',(-0.5,-0.866025403784,0.));
#1180 = ORIENTED_EDGE('',*,*,#1150,.F.);
#1181 = ORIENTED_EDGE('',*,*,#278,.F.);
#1182 = PLANE('',#1183);
#1183 = AXIS2_PLACEMENT_3D('',#1184,#1185,#1186);
#1184 = CARTESIAN_POINT('',(46.749999999999,95.,0.));
#1185 = DIRECTION('',(0.866025403784,-0.5,0.));
#1186 = DIRECTION('',(-0.5,-0.866025403784,0.));
#1187 = ADVANCED_FACE('',(#1188),#1213,.F.);
#1188 = FACE_BOUND('',#1189,.F.);
#1189 = EDGE_LOOP('',(#1190,#1198,#1206,#1212));
#1190 = ORIENTED_EDGE('',*,*,#1191,.T.);
#1191 = EDGE_CURVE('',#319,#1192,#1194,.T.);
#1192 = VERTEX_POINT('',#1193);
#1193 = CARTESIAN_POINT('',(68.124999999999,97.814582562298,2.5));
#1194 = LINE('',#1195,#1196);
#1195 = CARTESIAN_POINT('',(68.124999999999,97.814582562298,0.));
#1196 = VECTOR('',#1197,1.);
#1197 = DIRECTION('',(0.,0.,1.));
#1198 = ORIENTED_EDGE('',*,*,#1199,.T.);
#1199 = EDGE_CURVE('',#1192,#1200,#1202,.T.);
#1200 = VERTEX_POINT('',#1201);
#1201 = CARTESIAN_POINT('',(69.749999999999,95.,2.5));
#1202 = LINE('',#1203,#1204);
#1203 = CARTESIAN_POINT('',(68.124999999999,97.814582562298,2.5));
#1204 = VECTOR('',#1205,1.);
#1205 = DIRECTION('',(0.5,-0.866025403784,0.));
#1206 = ORIENTED_EDGE('',*,*,#1207,.F.);
#1207 = EDGE_CURVE('',#321,#1200,#1208,.T.);
#1208 = LINE('',#1209,#1210);
#1209 = CARTESIAN_POINT('',(69.749999999999,95.,0.));
#1210 = VECTOR('',#1211,1.);
#1211 = DIRECTION('',(0.,0.,1.));
#1212 = ORIENTED_EDGE('',*,*,#318,.F.);
#1213 = PLANE('',#1214);
#1214 = AXIS2_PLACEMENT_3D('',#1215,#1216,#1217);
#1215 = CARTESIAN_POINT('',(68.124999999999,97.814582562298,0.));
#1216 = DIRECTION('',(0.866025403784,0.5,0.));
#1217 = DIRECTION('',(0.5,-0.866025403784,0.));
#1218 = ADVANCED_FACE('',(#1219),#1237,.F.);
#1219 = FACE_BOUND('',#1220,.F.);
#1220 = EDGE_LOOP('',(#1221,#1229,#1235,#1236));
#1221 = ORIENTED_EDGE('',*,*,#1222,.T.);
#1222 = EDGE_CURVE('',#353,#1223,#1225,.T.);
#1223 = VERTEX_POINT('',#1224);
#1224 = CARTESIAN_POINT('',(64.875000000001,97.814582562298,2.5));
#1225 = LINE('',#1226,#1227);
#1226 = CARTESIAN_POINT('',(64.875000000001,97.814582562298,0.));
#1227 = VECTOR('',#1228,1.);
#1228 = DIRECTION('',(0.,0.,1.));
#1229 = ORIENTED_EDGE('',*,*,#1230,.T.);
#1230 = EDGE_CURVE('',#1223,#1192,#1231,.T.);
#1231 = LINE('',#1232,#1233);
#1232 = CARTESIAN_POINT('',(64.875000000001,97.814582562298,2.5));
#1233 = VECTOR('',#1234,1.);
#1234 = DIRECTION('',(1.,0.,0.));
#1235 = ORIENTED_EDGE('',*,*,#1191,.F.);
#1236 = ORIENTED_EDGE('',*,*,#360,.F.);
#1237 = PLANE('',#1238);
#1238 = AXIS2_PLACEMENT_3D('',#1239,#1240,#1241);
#1239 = CARTESIAN_POINT('',(64.875000000001,97.814582562298,0.));
#1240 = DIRECTION('',(0.,1.,0.));
#1241 = DIRECTION('',(1.,0.,0.));
#1242 = ADVANCED_FACE('',(#1243),#1261,.F.);
#1243 = FACE_BOUND('',#1244,.F.);
#1244 = EDGE_LOOP('',(#1245,#1253,#1259,#1260));
#1245 = ORIENTED_EDGE('',*,*,#1246,.T.);
#1246 = EDGE_CURVE('',#345,#1247,#1249,.T.);
#1247 = VERTEX_POINT('',#1248);
#1248 = CARTESIAN_POINT('',(63.250000000001,95.,2.5));
#1249 = LINE('',#1250,#1251);
#1250 = CARTESIAN_POINT('',(63.250000000001,95.,0.));
#1251 = VECTOR('',#1252,1.);
#1252 = DIRECTION('',(0.,0.,1.));
#1253 = ORIENTED_EDGE('',*,*,#1254,.T.);
#1254 = EDGE_CURVE('',#1247,#1223,#1255,.T.);
#1255 = LINE('',#1256,#1257);
#1256 = CARTESIAN_POINT('',(63.250000000001,95.,2.5));
#1257 = VECTOR('',#1258,1.);
#1258 = DIRECTION('',(0.5,0.866025403784,0.));
#1259 = ORIENTED_EDGE('',*,*,#1222,.F.);
#1260 = ORIENTED_EDGE('',*,*,#352,.F.);
#1261 = PLANE('',#1262);
#1262 = AXIS2_PLACEMENT_3D('',#1263,#1264,#1265);
#1263 = CARTESIAN_POINT('',(63.250000000001,95.,0.));
#1264 = DIRECTION('',(-0.866025403784,0.5,0.));
#1265 = DIRECTION('',(0.5,0.866025403784,0.));
#1266 = ADVANCED_FACE('',(#1267),#1285,.F.);
#1267 = FACE_BOUND('',#1268,.F.);
#1268 = EDGE_LOOP('',(#1269,#1277,#1283,#1284));
#1269 = ORIENTED_EDGE('',*,*,#1270,.T.);
#1270 = EDGE_CURVE('',#337,#1271,#1273,.T.);
#1271 = VERTEX_POINT('',#1272);
#1272 = CARTESIAN_POINT('',(64.875000000001,92.185417437702,2.5));
#1273 = LINE('',#1274,#1275);
#1274 = CARTESIAN_POINT('',(64.875000000001,92.185417437702,0.));
#1275 = VECTOR('',#1276,1.);
#1276 = DIRECTION('',(0.,0.,1.));
#1277 = ORIENTED_EDGE('',*,*,#1278,.T.);
#1278 = EDGE_CURVE('',#1271,#1247,#1279,.T.);
#1279 = LINE('',#1280,#1281);
#1280 = CARTESIAN_POINT('',(64.875000000001,92.185417437702,2.5));
#1281 = VECTOR('',#1282,1.);
#1282 = DIRECTION('',(-0.5,0.866025403784,-0.));
#1283 = ORIENTED_EDGE('',*,*,#1246,.F.);
#1284 = ORIENTED_EDGE('',*,*,#344,.F.);
#1285 = PLANE('',#1286);
#1286 = AXIS2_PLACEMENT_3D('',#1287,#1288,#1289);
#1287 = CARTESIAN_POINT('',(64.875000000001,92.185417437702,0.));
#1288 = DIRECTION('',(-0.866025403784,-0.5,0.));
#1289 = DIRECTION('',(-0.5,0.866025403784,0.));
#1290 = ADVANCED_FACE('',(#1291),#1309,.F.);
#1291 = FACE_BOUND('',#1292,.F.);
#1292 = EDGE_LOOP('',(#1293,#1301,#1307,#1308));
#1293 = ORIENTED_EDGE('',*,*,#1294,.T.);
#1294 = EDGE_CURVE('',#329,#1295,#1297,.T.);
#1295 = VERTEX_POINT('',#1296);
#1296 = CARTESIAN_POINT('',(68.124999999999,92.185417437702,2.5));
#1297 = LINE('',#1298,#1299);
#1298 = CARTESIAN_POINT('',(68.124999999999,92.185417437702,0.));
#1299 = VECTOR('',#1300,1.);
#1300 = DIRECTION('',(0.,0.,1.));
#1301 = ORIENTED_EDGE('',*,*,#1302,.T.);
#1302 = EDGE_CURVE('',#1295,#1271,#1303,.T.);
#1303 = LINE('',#1304,#1305);
#1304 = CARTESIAN_POINT('',(68.124999999999,92.185417437702,2.5));
#1305 = VECTOR('',#1306,1.);
#1306 = DIRECTION('',(-1.,4.372570681602E-15,-0.));
#1307 = ORIENTED_EDGE('',*,*,#1270,.F.);
#1308 = ORIENTED_EDGE('',*,*,#336,.F.);
#1309 = PLANE('',#1310);
#1310 = AXIS2_PLACEMENT_3D('',#1311,#1312,#1313);
#1311 = CARTESIAN_POINT('',(68.124999999999,92.185417437702,0.));
#1312 = DIRECTION('',(-4.372570681602E-15,-1.,0.));
#1313 = DIRECTION('',(-1.,4.372570681602E-15,0.));
#1314 = ADVANCED_FACE('',(#1315),#1326,.F.);
#1315 = FACE_BOUND('',#1316,.F.);
#1316 = EDGE_LOOP('',(#1317,#1318,#1324,#1325));
#1317 = ORIENTED_EDGE('',*,*,#1207,.T.);
#1318 = ORIENTED_EDGE('',*,*,#1319,.T.);
#1319 = EDGE_CURVE('',#1200,#1295,#1320,.T.);
#1320 = LINE('',#1321,#1322);
#1321 = CARTESIAN_POINT('',(69.749999999999,95.,2.5));
#1322 = VECTOR('',#1323,1.);
#1323 = DIRECTION('',(-0.5,-0.866025403784,0.));
#1324 = ORIENTED_EDGE('',*,*,#1294,.F.);
#1325 = ORIENTED_EDGE('',*,*,#328,.F.);
#1326 = PLANE('',#1327);
#1327 = AXIS2_PLACEMENT_3D('',#1328,#1329,#1330);
#1328 = CARTESIAN_POINT('',(69.749999999999,95.,0.));
#1329 = DIRECTION('',(0.866025403784,-0.5,0.));
#1330 = DIRECTION('',(-0.5,-0.866025403784,0.));
#1331 = ADVANCED_FACE('',(#1332),#1357,.F.);
#1332 = FACE_BOUND('',#1333,.F.);
#1333 = EDGE_LOOP('',(#1334,#1342,#1350,#1356));
#1334 = ORIENTED_EDGE('',*,*,#1335,.T.);
#1335 = EDGE_CURVE('',#369,#1336,#1338,.T.);
#1336 = VERTEX_POINT('',#1337);
#1337 = CARTESIAN_POINT('',(84.124999999999,96.814582562298,2.5));
#1338 = LINE('',#1339,#1340);
#1339 = CARTESIAN_POINT('',(84.124999999999,96.814582562298,0.));
#1340 = VECTOR('',#1341,1.);
#1341 = DIRECTION('',(0.,0.,1.));
#1342 = ORIENTED_EDGE('',*,*,#1343,.T.);
#1343 = EDGE_CURVE('',#1336,#1344,#1346,.T.);
#1344 = VERTEX_POINT('',#1345);
#1345 = CARTESIAN_POINT('',(85.749999999999,94.,2.5));
#1346 = LINE('',#1347,#1348);
#1347 = CARTESIAN_POINT('',(84.124999999999,96.814582562298,2.5));
#1348 = VECTOR('',#1349,1.);
#1349 = DIRECTION('',(0.5,-0.866025403784,0.));
#1350 = ORIENTED_EDGE('',*,*,#1351,.F.);
#1351 = EDGE_CURVE('',#371,#1344,#1352,.T.);
#1352 = LINE('',#1353,#1354);
#1353 = CARTESIAN_POINT('',(85.749999999999,94.,0.));
#1354 = VECTOR('',#1355,1.);
#1355 = DIRECTION('',(0.,0.,1.));
#1356 = ORIENTED_EDGE('',*,*,#368,.F.);
#1357 = PLANE('',#1358);
#1358 = AXIS2_PLACEMENT_3D('',#1359,#1360,#1361);
#1359 = CARTESIAN_POINT('',(84.124999999999,96.814582562298,0.));
#1360 = DIRECTION('',(0.866025403784,0.5,0.));
#1361 = DIRECTION('',(0.5,-0.866025403784,0.));
#1362 = ADVANCED_FACE('',(#1363),#1381,.F.);
#1363 = FACE_BOUND('',#1364,.F.);
#1364 = EDGE_LOOP('',(#1365,#1373,#1379,#1380));
#1365 = ORIENTED_EDGE('',*,*,#1366,.T.);
#1366 = EDGE_CURVE('',#403,#1367,#1369,.T.);
#1367 = VERTEX_POINT('',#1368);
#1368 = CARTESIAN_POINT('',(80.875000000001,96.814582562298,2.5));
#1369 = LINE('',#1370,#1371);
#1370 = CARTESIAN_POINT('',(80.875000000001,96.814582562298,0.));
#1371 = VECTOR('',#1372,1.);
#1372 = DIRECTION('',(0.,0.,1.));
#1373 = ORIENTED_EDGE('',*,*,#1374,.T.);
#1374 = EDGE_CURVE('',#1367,#1336,#1375,.T.);
#1375 = LINE('',#1376,#1377);
#1376 = CARTESIAN_POINT('',(80.875000000001,96.814582562298,2.5));
#1377 = VECTOR('',#1378,1.);
#1378 = DIRECTION('',(1.,0.,0.));
#1379 = ORIENTED_EDGE('',*,*,#1335,.F.);
#1380 = ORIENTED_EDGE('',*,*,#410,.F.);
#1381 = PLANE('',#1382);
#1382 = AXIS2_PLACEMENT_3D('',#1383,#1384,#1385);
#1383 = CARTESIAN_POINT('',(80.875000000001,96.814582562298,0.));
#1384 = DIRECTION('',(0.,1.,0.));
#1385 = DIRECTION('',(1.,0.,0.));
#1386 = ADVANCED_FACE('',(#1387),#1405,.F.);
#1387 = FACE_BOUND('',#1388,.F.);
#1388 = EDGE_LOOP('',(#1389,#1397,#1403,#1404));
#1389 = ORIENTED_EDGE('',*,*,#1390,.T.);
#1390 = EDGE_CURVE('',#395,#1391,#1393,.T.);
#1391 = VERTEX_POINT('',#1392);
#1392 = CARTESIAN_POINT('',(79.250000000001,94.,2.5));
#1393 = LINE('',#1394,#1395);
#1394 = CARTESIAN_POINT('',(79.250000000001,94.,0.));
#1395 = VECTOR('',#1396,1.);
#1396 = DIRECTION('',(0.,0.,1.));
#1397 = ORIENTED_EDGE('',*,*,#1398,.T.);
#1398 = EDGE_CURVE('',#1391,#1367,#1399,.T.);
#1399 = LINE('',#1400,#1401);
#1400 = CARTESIAN_POINT('',(79.250000000001,94.,2.5));
#1401 = VECTOR('',#1402,1.);
#1402 = DIRECTION('',(0.5,0.866025403784,0.));
#1403 = ORIENTED_EDGE('',*,*,#1366,.F.);
#1404 = ORIENTED_EDGE('',*,*,#402,.F.);
#1405 = PLANE('',#1406);
#1406 = AXIS2_PLACEMENT_3D('',#1407,#1408,#1409);
#1407 = CARTESIAN_POINT('',(79.250000000001,94.,0.));
#1408 = DIRECTION('',(-0.866025403784,0.5,0.));
#1409 = DIRECTION('',(0.5,0.866025403784,0.));
#1410 = ADVANCED_FACE('',(#1411),#1429,.F.);
#1411 = FACE_BOUND('',#1412,.F.);
#1412 = EDGE_LOOP('',(#1413,#1421,#1427,#1428));
#1413 = ORIENTED_EDGE('',*,*,#1414,.T.);
#1414 = EDGE_CURVE('',#387,#1415,#1417,.T.);
#1415 = VERTEX_POINT('',#1416);
#1416 = CARTESIAN_POINT('',(80.875000000001,91.185417437702,2.5));
#1417 = LINE('',#1418,#1419);
#1418 = CARTESIAN_POINT('',(80.875000000001,91.185417437702,0.));
#1419 = VECTOR('',#1420,1.);
#1420 = DIRECTION('',(0.,0.,1.));
#1421 = ORIENTED_EDGE('',*,*,#1422,.T.);
#1422 = EDGE_CURVE('',#1415,#1391,#1423,.T.);
#1423 = LINE('',#1424,#1425);
#1424 = CARTESIAN_POINT('',(80.875000000001,91.185417437702,2.5));
#1425 = VECTOR('',#1426,1.);
#1426 = DIRECTION('',(-0.5,0.866025403784,-0.));
#1427 = ORIENTED_EDGE('',*,*,#1390,.F.);
#1428 = ORIENTED_EDGE('',*,*,#394,.F.);
#1429 = PLANE('',#1430);
#1430 = AXIS2_PLACEMENT_3D('',#1431,#1432,#1433);
#1431 = CARTESIAN_POINT('',(80.875000000001,91.185417437702,0.));
#1432 = DIRECTION('',(-0.866025403784,-0.5,0.));
#1433 = DIRECTION('',(-0.5,0.866025403784,0.));
#1434 = ADVANCED_FACE('',(#1435),#1453,.F.);
#1435 = FACE_BOUND('',#1436,.F.);
#1436 = EDGE_LOOP('',(#1437,#1445,#1451,#1452));
#1437 = ORIENTED_EDGE('',*,*,#1438,.T.);
#1438 = EDGE_CURVE('',#379,#1439,#1441,.T.);
#1439 = VERTEX_POINT('',#1440);
#1440 = CARTESIAN_POINT('',(84.124999999999,91.185417437702,2.5));
#1441 = LINE('',#1442,#1443);
#1442 = CARTESIAN_POINT('',(84.124999999999,91.185417437702,0.));
#1443 = VECTOR('',#1444,1.);
#1444 = DIRECTION('',(0.,0.,1.));
#1445 = ORIENTED_EDGE('',*,*,#1446,.T.);
#1446 = EDGE_CURVE('',#1439,#1415,#1447,.T.);
#1447 = LINE('',#1448,#1449);
#1448 = CARTESIAN_POINT('',(84.124999999999,91.185417437702,2.5));
#1449 = VECTOR('',#1450,1.);
#1450 = DIRECTION('',(-1.,4.372570681602E-15,-0.));
#1451 = ORIENTED_EDGE('',*,*,#1414,.F.);
#1452 = ORIENTED_EDGE('',*,*,#386,.F.);
#1453 = PLANE('',#1454);
#1454 = AXIS2_PLACEMENT_3D('',#1455,#1456,#1457);
#1455 = CARTESIAN_POINT('',(84.124999999999,91.185417437702,0.));
#1456 = DIRECTION('',(-4.372570681602E-15,-1.,0.));
#1457 = DIRECTION('',(-1.,4.372570681602E-15,0.));
#1458 = ADVANCED_FACE('',(#1459),#1470,.F.);
#1459 = FACE_BOUND('',#1460,.F.);
#1460 = EDGE_LOOP('',(#1461,#1462,#1468,#1469));
#1461 = ORIENTED_EDGE('',*,*,#1351,.T.);
#1462 = ORIENTED_EDGE('',*,*,#1463,.T.);
#1463 = EDGE_CURVE('',#1344,#1439,#1464,.T.);
#1464 = LINE('',#1465,#1466);
#1465 = CARTESIAN_POINT('',(85.749999999999,94.,2.5));
#1466 = VECTOR('',#1467,1.);
#1467 = DIRECTION('',(-0.5,-0.866025403784,0.));
#1468 = ORIENTED_EDGE('',*,*,#1438,.F.);
#1469 = ORIENTED_EDGE('',*,*,#378,.F.);
#1470 = PLANE('',#1471);
#1471 = AXIS2_PLACEMENT_3D('',#1472,#1473,#1474);
#1472 = CARTESIAN_POINT('',(85.749999999999,94.,0.));
#1473 = DIRECTION('',(0.866025403784,-0.5,0.));
#1474 = DIRECTION('',(-0.5,-0.866025403784,0.));
#1475 = ADVANCED_FACE('',(#1476),#1501,.F.);
#1476 = FACE_BOUND('',#1477,.F.);
#1477 = EDGE_LOOP('',(#1478,#1486,#1494,#1500));
#1478 = ORIENTED_EDGE('',*,*,#1479,.T.);
#1479 = EDGE_CURVE('',#419,#1480,#1482,.T.);
#1480 = VERTEX_POINT('',#1481);
#1481 = CARTESIAN_POINT('',(100.12499999999,97.814582562298,2.5));
#1482 = LINE('',#1483,#1484);
#1483 = CARTESIAN_POINT('',(100.12499999999,97.814582562298,0.));
#1484 = VECTOR('',#1485,1.);
#1485 = DIRECTION('',(0.,0.,1.));
#1486 = ORIENTED_EDGE('',*,*,#1487,.T.);
#1487 = EDGE_CURVE('',#1480,#1488,#1490,.T.);
#1488 = VERTEX_POINT('',#1489);
#1489 = CARTESIAN_POINT('',(101.74999999999,95.,2.5));
#1490 = LINE('',#1491,#1492);
#1491 = CARTESIAN_POINT('',(100.12499999999,97.814582562298,2.5));
#1492 = VECTOR('',#1493,1.);
#1493 = DIRECTION('',(0.5,-0.866025403784,0.));
#1494 = ORIENTED_EDGE('',*,*,#1495,.F.);
#1495 = EDGE_CURVE('',#421,#1488,#1496,.T.);
#1496 = LINE('',#1497,#1498);
#1497 = CARTESIAN_POINT('',(101.74999999999,95.,0.));
#1498 = VECTOR('',#1499,1.);
#1499 = DIRECTION('',(0.,0.,1.));
#1500 = ORIENTED_EDGE('',*,*,#418,.F.);
#1501 = PLANE('',#1502);
#1502 = AXIS2_PLACEMENT_3D('',#1503,#1504,#1505);
#1503 = CARTESIAN_POINT('',(100.12499999999,97.814582562298,0.));
#1504 = DIRECTION('',(0.866025403784,0.5,0.));
#1505 = DIRECTION('',(0.5,-0.866025403784,0.));
#1506 = ADVANCED_FACE('',(#1507),#1525,.F.);
#1507 = FACE_BOUND('',#1508,.F.);
#1508 = EDGE_LOOP('',(#1509,#1517,#1523,#1524));
#1509 = ORIENTED_EDGE('',*,*,#1510,.T.);
#1510 = EDGE_CURVE('',#453,#1511,#1513,.T.);
#1511 = VERTEX_POINT('',#1512);
#1512 = CARTESIAN_POINT('',(96.875000000001,97.814582562298,2.5));
#1513 = LINE('',#1514,#1515);
#1514 = CARTESIAN_POINT('',(96.875000000001,97.814582562298,0.));
#1515 = VECTOR('',#1516,1.);
#1516 = DIRECTION('',(0.,0.,1.));
#1517 = ORIENTED_EDGE('',*,*,#1518,.T.);
#1518 = EDGE_CURVE('',#1511,#1480,#1519,.T.);
#1519 = LINE('',#1520,#1521);
#1520 = CARTESIAN_POINT('',(96.875000000001,97.814582562298,2.5));
#1521 = VECTOR('',#1522,1.);
#1522 = DIRECTION('',(1.,0.,0.));
#1523 = ORIENTED_EDGE('',*,*,#1479,.F.);
#1524 = ORIENTED_EDGE('',*,*,#460,.F.);
#1525 = PLANE('',#1526);
#1526 = AXIS2_PLACEMENT_3D('',#1527,#1528,#1529);
#1527 = CARTESIAN_POINT('',(96.875000000001,97.814582562298,0.));
#1528 = DIRECTION('',(0.,1.,0.));
#1529 = DIRECTION('',(1.,0.,0.));
#1530 = ADVANCED_FACE('',(#1531),#1549,.F.);
#1531 = FACE_BOUND('',#1532,.F.);
#1532 = EDGE_LOOP('',(#1533,#1541,#1547,#1548));
#1533 = ORIENTED_EDGE('',*,*,#1534,.T.);
#1534 = EDGE_CURVE('',#445,#1535,#1537,.T.);
#1535 = VERTEX_POINT('',#1536);
#1536 = CARTESIAN_POINT('',(95.250000000001,95.,2.5));
#1537 = LINE('',#1538,#1539);
#1538 = CARTESIAN_POINT('',(95.250000000001,95.,0.));
#1539 = VECTOR('',#1540,1.);
#1540 = DIRECTION('',(0.,0.,1.));
#1541 = ORIENTED_EDGE('',*,*,#1542,.T.);
#1542 = EDGE_CURVE('',#1535,#1511,#1543,.T.);
#1543 = LINE('',#1544,#1545);
#1544 = CARTESIAN_POINT('',(95.250000000001,95.,2.5));
#1545 = VECTOR('',#1546,1.);
#1546 = DIRECTION('',(0.5,0.866025403784,0.));
#1547 = ORIENTED_EDGE('',*,*,#1510,.F.);
#1548 = ORIENTED_EDGE('',*,*,#452,.F.);
#1549 = PLANE('',#1550);
#1550 = AXIS2_PLACEMENT_3D('',#1551,#1552,#1553);
#1551 = CARTESIAN_POINT('',(95.250000000001,95.,0.));
#1552 = DIRECTION('',(-0.866025403784,0.5,0.));
#1553 = DIRECTION('',(0.5,0.866025403784,0.));
#1554 = ADVANCED_FACE('',(#1555),#1573,.F.);
#1555 = FACE_BOUND('',#1556,.F.);
#1556 = EDGE_LOOP('',(#1557,#1565,#1571,#1572));
#1557 = ORIENTED_EDGE('',*,*,#1558,.T.);
#1558 = EDGE_CURVE('',#437,#1559,#1561,.T.);
#1559 = VERTEX_POINT('',#1560);
#1560 = CARTESIAN_POINT('',(96.875000000001,92.185417437702,2.5));
#1561 = LINE('',#1562,#1563);
#1562 = CARTESIAN_POINT('',(96.875000000001,92.185417437702,0.));
#1563 = VECTOR('',#1564,1.);
#1564 = DIRECTION('',(0.,0.,1.));
#1565 = ORIENTED_EDGE('',*,*,#1566,.T.);
#1566 = EDGE_CURVE('',#1559,#1535,#1567,.T.);
#1567 = LINE('',#1568,#1569);
#1568 = CARTESIAN_POINT('',(96.875000000001,92.185417437702,2.5));
#1569 = VECTOR('',#1570,1.);
#1570 = DIRECTION('',(-0.5,0.866025403784,-0.));
#1571 = ORIENTED_EDGE('',*,*,#1534,.F.);
#1572 = ORIENTED_EDGE('',*,*,#444,.F.);
#1573 = PLANE('',#1574);
#1574 = AXIS2_PLACEMENT_3D('',#1575,#1576,#1577);
#1575 = CARTESIAN_POINT('',(96.875000000001,92.185417437702,0.));
#1576 = DIRECTION('',(-0.866025403784,-0.5,0.));
#1577 = DIRECTION('',(-0.5,0.866025403784,0.));
#1578 = ADVANCED_FACE('',(#1579),#1597,.F.);
#1579 = FACE_BOUND('',#1580,.F.);
#1580 = EDGE_LOOP('',(#1581,#1589,#1595,#1596));
#1581 = ORIENTED_EDGE('',*,*,#1582,.T.);
#1582 = EDGE_CURVE('',#429,#1583,#1585,.T.);
#1583 = VERTEX_POINT('',#1584);
#1584 = CARTESIAN_POINT('',(100.12499999999,92.185417437702,2.5));
#1585 = LINE('',#1586,#1587);
#1586 = CARTESIAN_POINT('',(100.12499999999,92.185417437702,0.));
#1587 = VECTOR('',#1588,1.);
#1588 = DIRECTION('',(0.,0.,1.));
#1589 = ORIENTED_EDGE('',*,*,#1590,.T.);
#1590 = EDGE_CURVE('',#1583,#1559,#1591,.T.);
#1591 = LINE('',#1592,#1593);
#1592 = CARTESIAN_POINT('',(100.12499999999,92.185417437702,2.5));
#1593 = VECTOR('',#1594,1.);
#1594 = DIRECTION('',(-1.,4.372570681602E-15,-0.));
#1595 = ORIENTED_EDGE('',*,*,#1558,.F.);
#1596 = ORIENTED_EDGE('',*,*,#436,.F.);
#1597 = PLANE('',#1598);
#1598 = AXIS2_PLACEMENT_3D('',#1599,#1600,#1601);
#1599 = CARTESIAN_POINT('',(100.12499999999,92.185417437702,0.));
#1600 = DIRECTION('',(-4.372570681602E-15,-1.,0.));
#1601 = DIRECTION('',(-1.,4.372570681602E-15,0.));
#1602 = ADVANCED_FACE('',(#1603),#1614,.F.);
#1603 = FACE_BOUND('',#1604,.F.);
#1604 = EDGE_LOOP('',(#1605,#1606,#1612,#1613));
#1605 = ORIENTED_EDGE('',*,*,#1495,.T.);
#1606 = ORIENTED_EDGE('',*,*,#1607,.T.);
#1607 = EDGE_CURVE('',#1488,#1583,#1608,.T.);
#1608 = LINE('',#1609,#1610);
#1609 = CARTESIAN_POINT('',(101.74999999999,95.,2.5));
#1610 = VECTOR('',#1611,1.);
#1611 = DIRECTION('',(-0.5,-0.866025403784,0.));
#1612 = ORIENTED_EDGE('',*,*,#1582,.F.);
#1613 = ORIENTED_EDGE('',*,*,#428,.F.);
#1614 = PLANE('',#1615);
#1615 = AXIS2_PLACEMENT_3D('',#1616,#1617,#1618);
#1616 = CARTESIAN_POINT('',(101.74999999999,95.,0.));
#1617 = DIRECTION('',(0.866025403784,-0.5,0.));
#1618 = DIRECTION('',(-0.5,-0.866025403784,0.));
#1619 = ADVANCED_FACE('',(#1620),#1638,.T.);
#1620 = FACE_BOUND('',#1621,.T.);
#1621 = EDGE_LOOP('',(#1622,#1630,#1636,#1637));
#1622 = ORIENTED_EDGE('',*,*,#1623,.T.);
#1623 = EDGE_CURVE('',#526,#1624,#1626,.T.);
#1624 = VERTEX_POINT('',#1625);
#1625 = CARTESIAN_POINT('',(5.,88.,3.3));
#1626 = LINE('',#1627,#1628);
#1627 = CARTESIAN_POINT('',(5.,88.,5.));
#1628 = VECTOR('',#1629,1.);
#1629 = DIRECTION('',(-0.,-0.,-1.));
#1630 = ORIENTED_EDGE('',*,*,#1631,.T.);
#1631 = EDGE_CURVE('',#1624,#668,#1632,.T.);
#1632 = LINE('',#1633,#1634);
#1633 = CARTESIAN_POINT('',(5.,88.,3.3));
#1634 = VECTOR('',#1635,1.);
#1635 = DIRECTION('',(0.,1.,0.));
#1636 = ORIENTED_EDGE('',*,*,#675,.F.);
#1637 = ORIENTED_EDGE('',*,*,#533,.F.);
#1638 = PLANE('',#1639);
#1639 = AXIS2_PLACEMENT_3D('',#1640,#1641,#1642);
#1640 = CARTESIAN_POINT('',(5.,88.,5.));
#1641 = DIRECTION('',(1.,0.,0.));
#1642 = DIRECTION('',(0.,1.,0.));
#1643 = ADVANCED_FACE('',(#1644),#1662,.T.);
#1644 = FACE_BOUND('',#1645,.T.);
#1645 = EDGE_LOOP('',(#1646,#1654,#1660,#1661));
#1646 = ORIENTED_EDGE('',*,*,#1647,.T.);
#1647 = EDGE_CURVE('',#518,#1648,#1650,.T.);
#1648 = VERTEX_POINT('',#1649);
#1649 = CARTESIAN_POINT('',(50.,88.,3.3));
#1650 = LINE('',#1651,#1652);
#1651 = CARTESIAN_POINT('',(50.,88.,5.));
#1652 = VECTOR('',#1653,1.);
#1653 = DIRECTION('',(-0.,-0.,-1.));
#1654 = ORIENTED_EDGE('',*,*,#1655,.T.);
#1655 = EDGE_CURVE('',#1648,#1624,#1656,.T.);
#1656 = LINE('',#1657,#1658);
#1657 = CARTESIAN_POINT('',(50.,88.,3.3));
#1658 = VECTOR('',#1659,1.);
#1659 = DIRECTION('',(-1.,0.,0.));
#1660 = ORIENTED_EDGE('',*,*,#1623,.F.);
#1661 = ORIENTED_EDGE('',*,*,#525,.F.);
#1662 = PLANE('',#1663);
#1663 = AXIS2_PLACEMENT_3D('',#1664,#1665,#1666);
#1664 = CARTESIAN_POINT('',(50.,88.,5.));
#1665 = DIRECTION('',(0.,1.,0.));
#1666 = DIRECTION('',(-1.,0.,0.));
#1667 = ADVANCED_FACE('',(#1668),#1679,.T.);
#1668 = FACE_BOUND('',#1669,.T.);
#1669 = EDGE_LOOP('',(#1670,#1671,#1677,#1678));
#1670 = ORIENTED_EDGE('',*,*,#659,.T.);
#1671 = ORIENTED_EDGE('',*,*,#1672,.T.);
#1672 = EDGE_CURVE('',#660,#1648,#1673,.T.);
#1673 = LINE('',#1674,#1675);
#1674 = CARTESIAN_POINT('',(50.,100.,3.3));
#1675 = VECTOR('',#1676,1.);
#1676 = DIRECTION('',(0.,-1.,0.));
#1677 = ORIENTED_EDGE('',*,*,#1647,.F.);
#1678 = ORIENTED_EDGE('',*,*,#517,.F.);
#1679 = PLANE('',#1680);
#1680 = AXIS2_PLACEMENT_3D('',#1681,#1682,#1683);
#1681 = CARTESIAN_POINT('',(50.,100.,5.));
#1682 = DIRECTION('',(-1.,0.,0.));
#1683 = DIRECTION('',(0.,-1.,0.));
#1684 = ADVANCED_FACE('',(#1685),#1703,.T.);
#1685 = FACE_BOUND('',#1686,.T.);
#1686 = EDGE_LOOP('',(#1687,#1688,#1696,#1702));
#1687 = ORIENTED_EDGE('',*,*,#636,.T.);
#1688 = ORIENTED_EDGE('',*,*,#1689,.T.);
#1689 = EDGE_CURVE('',#637,#1690,#1692,.T.);
#1690 = VERTEX_POINT('',#1691);
#1691 = CARTESIAN_POINT('',(105.,88.,3.3));
#1692 = LINE('',#1693,#1694);
#1693 = CARTESIAN_POINT('',(105.,100.,3.3));
#1694 = VECTOR('',#1695,1.);
#1695 = DIRECTION('',(0.,-1.,0.));
#1696 = ORIENTED_EDGE('',*,*,#1697,.F.);
#1697 = EDGE_CURVE('',#486,#1690,#1698,.T.);
#1698 = LINE('',#1699,#1700);
#1699 = CARTESIAN_POINT('',(105.,88.,5.));
#1700 = VECTOR('',#1701,1.);
#1701 = DIRECTION('',(-0.,-0.,-1.));
#1702 = ORIENTED_EDGE('',*,*,#485,.F.);
#1703 = PLANE('',#1704);
#1704 = AXIS2_PLACEMENT_3D('',#1705,#1706,#1707);
#1705 = CARTESIAN_POINT('',(105.,100.,5.));
#1706 = DIRECTION('',(-1.,0.,0.));
#1707 = DIRECTION('',(0.,-1.,0.));
#1708 = ADVANCED_FACE('',(#1709),#1727,.T.);
#1709 = FACE_BOUND('',#1710,.T.);
#1710 = EDGE_LOOP('',(#1711,#1712,#1720,#1726));
#1711 = ORIENTED_EDGE('',*,*,#1697,.T.);
#1712 = ORIENTED_EDGE('',*,*,#1713,.T.);
#1713 = EDGE_CURVE('',#1690,#1714,#1716,.T.);
#1714 = VERTEX_POINT('',#1715);
#1715 = CARTESIAN_POINT('',(59.999999999939,88.,3.3));
#1716 = LINE('',#1717,#1718);
#1717 = CARTESIAN_POINT('',(105.,88.,3.3));
#1718 = VECTOR('',#1719,1.);
#1719 = DIRECTION('',(-1.,0.,0.));
#1720 = ORIENTED_EDGE('',*,*,#1721,.F.);
#1721 = EDGE_CURVE('',#494,#1714,#1722,.T.);
#1722 = LINE('',#1723,#1724);
#1723 = CARTESIAN_POINT('',(59.999999999939,88.,5.));
#1724 = VECTOR('',#1725,1.);
#1725 = DIRECTION('',(-0.,-0.,-1.));
#1726 = ORIENTED_EDGE('',*,*,#493,.F.);
#1727 = PLANE('',#1728);
#1728 = AXIS2_PLACEMENT_3D('',#1729,#1730,#1731);
#1729 = CARTESIAN_POINT('',(105.,88.,5.));
#1730 = DIRECTION('',(0.,1.,0.));
#1731 = DIRECTION('',(-1.,0.,0.));
#1732 = ADVANCED_FACE('',(#1733),#1744,.T.);
#1733 = FACE_BOUND('',#1734,.T.);
#1734 = EDGE_LOOP('',(#1735,#1736,#1742,#1743));
#1735 = ORIENTED_EDGE('',*,*,#1721,.T.);
#1736 = ORIENTED_EDGE('',*,*,#1737,.T.);
#1737 = EDGE_CURVE('',#1714,#645,#1738,.T.);
#1738 = LINE('',#1739,#1740);
#1739 = CARTESIAN_POINT('',(59.999999999939,88.,3.3));
#1740 = VECTOR('',#1741,1.);
#1741 = DIRECTION('',(0.,1.,0.));
#1742 = ORIENTED_EDGE('',*,*,#652,.F.);
#1743 = ORIENTED_EDGE('',*,*,#501,.F.);
#1744 = PLANE('',#1745);
#1745 = AXIS2_PLACEMENT_3D('',#1746,#1747,#1748);
#1746 = CARTESIAN_POINT('',(59.999999999939,88.,5.));
#1747 = DIRECTION('',(1.,0.,0.));
#1748 = DIRECTION('',(0.,1.,0.));
#1749 = ADVANCED_FACE('',(#1750),#1769,.F.);
#1750 = FACE_BOUND('',#1751,.F.);
#1751 = EDGE_LOOP('',(#1752,#1760,#1767,#1768));
#1752 = ORIENTED_EDGE('',*,*,#1753,.T.);
#1753 = EDGE_CURVE('',#550,#1754,#1756,.T.);
#1754 = VERTEX_POINT('',#1755);
#1755 = CARTESIAN_POINT('',(12.35,25.,2.5));
#1756 = LINE('',#1757,#1758);
#1757 = CARTESIAN_POINT('',(12.35,25.,5.));
#1758 = VECTOR('',#1759,1.);
#1759 = DIRECTION('',(-0.,-0.,-1.));
#1760 = ORIENTED_EDGE('',*,*,#1761,.T.);
#1761 = EDGE_CURVE('',#1754,#1754,#1762,.T.);
#1762 = CIRCLE('',#1763,2.35);
#1763 = AXIS2_PLACEMENT_3D('',#1764,#1765,#1766);
#1764 = CARTESIAN_POINT('',(10.,25.,2.5));
#1765 = DIRECTION('',(0.,0.,1.));
#1766 = DIRECTION('',(1.,0.,0.));
#1767 = ORIENTED_EDGE('',*,*,#1753,.F.);
#1768 = ORIENTED_EDGE('',*,*,#549,.F.);
#1769 = CYLINDRICAL_SURFACE('',#1770,2.35);
#1770 = AXIS2_PLACEMENT_3D('',#1771,#1772,#1773);
#1771 = CARTESIAN_POINT('',(10.,25.,5.));
#1772 = DIRECTION('',(0.,0.,1.));
#1773 = DIRECTION('',(1.,0.,0.));
#1774 = ADVANCED_FACE('',(#1775),#1794,.F.);
#1775 = FACE_BOUND('',#1776,.F.);
#1776 = EDGE_LOOP('',(#1777,#1785,#1792,#1793));
#1777 = ORIENTED_EDGE('',*,*,#1778,.T.);
#1778 = EDGE_CURVE('',#561,#1779,#1781,.T.);
#1779 = VERTEX_POINT('',#1780);
#1780 = CARTESIAN_POINT('',(102.35,25.,2.5));
#1781 = LINE('',#1782,#1783);
#1782 = CARTESIAN_POINT('',(102.35,25.,5.));
#1783 = VECTOR('',#1784,1.);
#1784 = DIRECTION('',(-0.,-0.,-1.));
#1785 = ORIENTED_EDGE('',*,*,#1786,.T.);
#1786 = EDGE_CURVE('',#1779,#1779,#1787,.T.);
#1787 = CIRCLE('',#1788,2.35);
#1788 = AXIS2_PLACEMENT_3D('',#1789,#1790,#1791);
#1789 = CARTESIAN_POINT('',(100.,25.,2.5));
#1790 = DIRECTION('',(0.,0.,1.));
#1791 = DIRECTION('',(1.,0.,0.));
#1792 = ORIENTED_EDGE('',*,*,#1778,.F.);
#1793 = ORIENTED_EDGE('',*,*,#560,.F.);
#1794 = CYLINDRICAL_SURFACE('',#1795,2.35);
#1795 = AXIS2_PLACEMENT_3D('',#1796,#1797,#1798);
#1796 = CARTESIAN_POINT('',(100.,25.,5.));
#1797 = DIRECTION('',(0.,0.,1.));
#1798 = DIRECTION('',(1.,0.,0.));
#1799 = ADVANCED_FACE('',(#1800),#1819,.F.);
#1800 = FACE_BOUND('',#1801,.F.);
#1801 = EDGE_LOOP('',(#1802,#1810,#1817,#1818));
#1802 = ORIENTED_EDGE('',*,*,#1803,.T.);
#1803 = EDGE_CURVE('',#572,#1804,#1806,.T.);
#1804 = VERTEX_POINT('',#1805);
#1805 = CARTESIAN_POINT('',(12.35,58.,2.5));
#1806 = LINE('',#1807,#1808);
#1807 = CARTESIAN_POINT('',(12.35,58.,5.));
#1808 = VECTOR('',#1809,1.);
#1809 = DIRECTION('',(-0.,-0.,-1.));
#1810 = ORIENTED_EDGE('',*,*,#1811,.T.);
#1811 = EDGE_CURVE('',#1804,#1804,#1812,.T.);
#1812 = CIRCLE('',#1813,2.35);
#1813 = AXIS2_PLACEMENT_3D('',#1814,#1815,#1816);
#1814 = CARTESIAN_POINT('',(10.,58.,2.5));
#1815 = DIRECTION('',(0.,0.,1.));
#1816 = DIRECTION('',(1.,0.,0.));
#1817 = ORIENTED_EDGE('',*,*,#1803,.F.);
#1818 = ORIENTED_EDGE('',*,*,#571,.F.);
#1819 = CYLINDRICAL_SURFACE('',#1820,2.35);
#1820 = AXIS2_PLACEMENT_3D('',#1821,#1822,#1823);
#1821 = CARTESIAN_POINT('',(10.,58.,5.));
#1822 = DIRECTION('',(0.,0.,1.));
#1823 = DIRECTION('',(1.,0.,0.));
#1824 = ADVANCED_FACE('',(#1825),#1844,.F.);
#1825 = FACE_BOUND('',#1826,.F.);
#1826 = EDGE_LOOP('',(#1827,#1835,#1842,#1843));
#1827 = ORIENTED_EDGE('',*,*,#1828,.T.);
#1828 = EDGE_CURVE('',#617,#1829,#1831,.T.);
#1829 = VERTEX_POINT('',#1830);
#1830 = CARTESIAN_POINT('',(102.35,58.,2.5));
#1831 = LINE('',#1832,#1833);
#1832 = CARTESIAN_POINT('',(102.35,58.,5.));
#1833 = VECTOR('',#1834,1.);
#1834 = DIRECTION('',(-0.,-0.,-1.));
#1835 = ORIENTED_EDGE('',*,*,#1836,.T.);
#1836 = EDGE_CURVE('',#1829,#1829,#1837,.T.);
#1837 = CIRCLE('',#1838,2.35);
#1838 = AXIS2_PLACEMENT_3D('',#1839,#1840,#1841);
#1839 = CARTESIAN_POINT('',(100.,58.,2.5));
#1840 = DIRECTION('',(0.,0.,1.));
#1841 = DIRECTION('',(1.,0.,0.));
#1842 = ORIENTED_EDGE('',*,*,#1828,.F.);
#1843 = ORIENTED_EDGE('',*,*,#616,.F.);
#1844 = CYLINDRICAL_SURFACE('',#1845,2.35);
#1845 = AXIS2_PLACEMENT_3D('',#1846,#1847,#1848);
#1846 = CARTESIAN_POINT('',(100.,58.,5.));
#1847 = DIRECTION('',(0.,0.,1.));
#1848 = DIRECTION('',(1.,0.,0.));
#1849 = ADVANCED_FACE('',(#1850,#1856,#1867,#1878),#1889,.T.);
#1850 = FACE_BOUND('',#1851,.T.);
#1851 = EDGE_LOOP('',(#1852,#1853,#1854,#1855));
#1852 = ORIENTED_EDGE('',*,*,#667,.F.);
#1853 = ORIENTED_EDGE('',*,*,#1631,.F.);
#1854 = ORIENTED_EDGE('',*,*,#1655,.F.);
#1855 = ORIENTED_EDGE('',*,*,#1672,.F.);
#1856 = FACE_BOUND('',#1857,.T.);
#1857 = EDGE_LOOP('',(#1858));
#1858 = ORIENTED_EDGE('',*,*,#1859,.F.);
#1859 = EDGE_CURVE('',#1860,#1860,#1862,.T.);
#1860 = VERTEX_POINT('',#1861);
#1861 = CARTESIAN_POINT('',(29.1,94.,3.3));
#1862 = CIRCLE('',#1863,1.6);
#1863 = AXIS2_PLACEMENT_3D('',#1864,#1865,#1866);
#1864 = CARTESIAN_POINT('',(27.5,94.,3.3));
#1865 = DIRECTION('',(0.,0.,1.));
#1866 = DIRECTION('',(1.,0.,0.));
#1867 = FACE_BOUND('',#1868,.T.);
#1868 = EDGE_LOOP('',(#1869));
#1869 = ORIENTED_EDGE('',*,*,#1870,.F.);
#1870 = EDGE_CURVE('',#1871,#1871,#1873,.T.);
#1871 = VERTEX_POINT('',#1872);
#1872 = CARTESIAN_POINT('',(13.1,95.,3.3));
#1873 = CIRCLE('',#1874,1.6);
#1874 = AXIS2_PLACEMENT_3D('',#1875,#1876,#1877);
#1875 = CARTESIAN_POINT('',(11.5,95.,3.3));
#1876 = DIRECTION('',(0.,0.,1.));
#1877 = DIRECTION('',(1.,0.,0.));
#1878 = FACE_BOUND('',#1879,.T.);
#1879 = EDGE_LOOP('',(#1880));
#1880 = ORIENTED_EDGE('',*,*,#1881,.F.);
#1881 = EDGE_CURVE('',#1882,#1882,#1884,.T.);
#1882 = VERTEX_POINT('',#1883);
#1883 = CARTESIAN_POINT('',(45.1,95.,3.3));
#1884 = CIRCLE('',#1885,1.6);
#1885 = AXIS2_PLACEMENT_3D('',#1886,#1887,#1888);
#1886 = CARTESIAN_POINT('',(43.5,95.,3.3));
#1887 = DIRECTION('',(0.,0.,1.));
#1888 = DIRECTION('',(1.,0.,0.));
#1889 = PLANE('',#1890);
#1890 = AXIS2_PLACEMENT_3D('',#1891,#1892,#1893);
#1891 = CARTESIAN_POINT('',(54.999999999999,94.,3.3));
#1892 = DIRECTION('',(0.,0.,1.));
#1893 = DIRECTION('',(1.,0.,0.));
#1894 = ADVANCED_FACE('',(#1895,#1901,#1912,#1923),#1934,.T.);
#1895 = FACE_BOUND('',#1896,.T.);
#1896 = EDGE_LOOP('',(#1897,#1898,#1899,#1900));
#1897 = ORIENTED_EDGE('',*,*,#644,.F.);
#1898 = ORIENTED_EDGE('',*,*,#1737,.F.);
#1899 = ORIENTED_EDGE('',*,*,#1713,.F.);
#1900 = ORIENTED_EDGE('',*,*,#1689,.F.);
#1901 = FACE_BOUND('',#1902,.T.);
#1902 = EDGE_LOOP('',(#1903));
#1903 = ORIENTED_EDGE('',*,*,#1904,.F.);
#1904 = EDGE_CURVE('',#1905,#1905,#1907,.T.);
#1905 = VERTEX_POINT('',#1906);
#1906 = CARTESIAN_POINT('',(84.1,94.,3.3));
#1907 = CIRCLE('',#1908,1.6);
#1908 = AXIS2_PLACEMENT_3D('',#1909,#1910,#1911);
#1909 = CARTESIAN_POINT('',(82.5,94.,3.3));
#1910 = DIRECTION('',(0.,0.,1.));
#1911 = DIRECTION('',(1.,0.,0.));
#1912 = FACE_BOUND('',#1913,.T.);
#1913 = EDGE_LOOP('',(#1914));
#1914 = ORIENTED_EDGE('',*,*,#1915,.F.);
#1915 = EDGE_CURVE('',#1916,#1916,#1918,.T.);
#1916 = VERTEX_POINT('',#1917);
#1917 = CARTESIAN_POINT('',(68.1,95.,3.3));
#1918 = CIRCLE('',#1919,1.6);
#1919 = AXIS2_PLACEMENT_3D('',#1920,#1921,#1922);
#1920 = CARTESIAN_POINT('',(66.5,95.,3.3));
#1921 = DIRECTION('',(0.,0.,1.));
#1922 = DIRECTION('',(1.,0.,0.));
#1923 = FACE_BOUND('',#1924,.T.);
#1924 = EDGE_LOOP('',(#1925));
#1925 = ORIENTED_EDGE('',*,*,#1926,.F.);
#1926 = EDGE_CURVE('',#1927,#1927,#1929,.T.);
#1927 = VERTEX_POINT('',#1928);
#1928 = CARTESIAN_POINT('',(100.1,95.,3.3));
#1929 = CIRCLE('',#1930,1.6);
#1930 = AXIS2_PLACEMENT_3D('',#1931,#1932,#1933);
#1931 = CARTESIAN_POINT('',(98.5,95.,3.3));
#1932 = DIRECTION('',(0.,0.,1.));
#1933 = DIRECTION('',(1.,0.,0.));
#1934 = PLANE('',#1935);
#1935 = AXIS2_PLACEMENT_3D('',#1936,#1937,#1938);
#1936 = CARTESIAN_POINT('',(54.999999999999,94.,3.3));
#1937 = DIRECTION('',(0.,0.,1.));
#1938 = DIRECTION('',(1.,0.,0.));
#1939 = ADVANCED_FACE('',(#1940,#1948),#1959,.F.);
#1940 = FACE_BOUND('',#1941,.F.);
#1941 = EDGE_LOOP('',(#1942,#1943,#1944,#1945,#1946,#1947));
#1942 = ORIENTED_EDGE('',*,*,#887,.F.);
#1943 = ORIENTED_EDGE('',*,*,#767,.F.);
#1944 = ORIENTED_EDGE('',*,*,#798,.F.);
#1945 = ORIENTED_EDGE('',*,*,#822,.F.);
#1946 = ORIENTED_EDGE('',*,*,#846,.F.);
#1947 = ORIENTED_EDGE('',*,*,#870,.F.);
#1948 = FACE_BOUND('',#1949,.F.);
#1949 = EDGE_LOOP('',(#1950));
#1950 = ORIENTED_EDGE('',*,*,#1951,.F.);
#1951 = EDGE_CURVE('',#1952,#1952,#1954,.T.);
#1952 = VERTEX_POINT('',#1953);
#1953 = CARTESIAN_POINT('',(13.1,95.,2.5));
#1954 = CIRCLE('',#1955,1.6);
#1955 = AXIS2_PLACEMENT_3D('',#1956,#1957,#1958);
#1956 = CARTESIAN_POINT('',(11.5,95.,2.5));
#1957 = DIRECTION('',(0.,0.,1.));
#1958 = DIRECTION('',(1.,0.,0.));
#1959 = PLANE('',#1960);
#1960 = AXIS2_PLACEMENT_3D('',#1961,#1962,#1963);
#1961 = CARTESIAN_POINT('',(54.999999999998,94.666666666667,2.5));
#1962 = DIRECTION('',(0.,0.,1.));
#1963 = DIRECTION('',(1.,0.,0.));
#1964 = ADVANCED_FACE('',(#1965,#1973),#1984,.F.);
#1965 = FACE_BOUND('',#1966,.F.);
#1966 = EDGE_LOOP('',(#1967,#1968,#1969,#1970,#1971,#1972));
#1967 = ORIENTED_EDGE('',*,*,#1031,.F.);
#1968 = ORIENTED_EDGE('',*,*,#911,.F.);
#1969 = ORIENTED_EDGE('',*,*,#942,.F.);
#1970 = ORIENTED_EDGE('',*,*,#966,.F.);
#1971 = ORIENTED_EDGE('',*,*,#990,.F.);
#1972 = ORIENTED_EDGE('',*,*,#1014,.F.);
#1973 = FACE_BOUND('',#1974,.F.);
#1974 = EDGE_LOOP('',(#1975));
#1975 = ORIENTED_EDGE('',*,*,#1976,.F.);
#1976 = EDGE_CURVE('',#1977,#1977,#1979,.T.);
#1977 = VERTEX_POINT('',#1978);
#1978 = CARTESIAN_POINT('',(29.1,94.,2.5));
#1979 = CIRCLE('',#1980,1.6);
#1980 = AXIS2_PLACEMENT_3D('',#1981,#1982,#1983);
#1981 = CARTESIAN_POINT('',(27.5,94.,2.5));
#1982 = DIRECTION('',(0.,0.,1.));
#1983 = DIRECTION('',(1.,0.,0.));
#1984 = PLANE('',#1985);
#1985 = AXIS2_PLACEMENT_3D('',#1986,#1987,#1988);
#1986 = CARTESIAN_POINT('',(54.999999999998,94.666666666667,2.5));
#1987 = DIRECTION('',(0.,0.,1.));
#1988 = DIRECTION('',(1.,0.,0.));
#1989 = ADVANCED_FACE('',(#1990,#1998),#2009,.F.);
#1990 = FACE_BOUND('',#1991,.F.);
#1991 = EDGE_LOOP('',(#1992,#1993,#1994,#1995,#1996,#1997));
#1992 = ORIENTED_EDGE('',*,*,#1175,.F.);
#1993 = ORIENTED_EDGE('',*,*,#1055,.F.);
#1994 = ORIENTED_EDGE('',*,*,#1086,.F.);
#1995 = ORIENTED_EDGE('',*,*,#1110,.F.);
#1996 = ORIENTED_EDGE('',*,*,#1134,.F.);
#1997 = ORIENTED_EDGE('',*,*,#1158,.F.);
#1998 = FACE_BOUND('',#1999,.F.);
#1999 = EDGE_LOOP('',(#2000));
#2000 = ORIENTED_EDGE('',*,*,#2001,.F.);
#2001 = EDGE_CURVE('',#2002,#2002,#2004,.T.);
#2002 = VERTEX_POINT('',#2003);
#2003 = CARTESIAN_POINT('',(45.1,95.,2.5));
#2004 = CIRCLE('',#2005,1.6);
#2005 = AXIS2_PLACEMENT_3D('',#2006,#2007,#2008);
#2006 = CARTESIAN_POINT('',(43.5,95.,2.5));
#2007 = DIRECTION('',(0.,0.,1.));
#2008 = DIRECTION('',(1.,0.,0.));
#2009 = PLANE('',#2010);
#2010 = AXIS2_PLACEMENT_3D('',#2011,#2012,#2013);
#2011 = CARTESIAN_POINT('',(54.999999999998,94.666666666667,2.5));
#2012 = DIRECTION('',(0.,0.,1.));
#2013 = DIRECTION('',(1.,0.,0.));
#2014 = ADVANCED_FACE('',(#2015,#2023),#2034,.F.);
#2015 = FACE_BOUND('',#2016,.F.);
#2016 = EDGE_LOOP('',(#2017,#2018,#2019,#2020,#2021,#2022));
#2017 = ORIENTED_EDGE('',*,*,#1319,.F.);
#2018 = ORIENTED_EDGE('',*,*,#1199,.F.);
#2019 = ORIENTED_EDGE('',*,*,#1230,.F.);
#2020 = ORIENTED_EDGE('',*,*,#1254,.F.);
#2021 = ORIENTED_EDGE('',*,*,#1278,.F.);
#2022 = ORIENTED_EDGE('',*,*,#1302,.F.);
#2023 = FACE_BOUND('',#2024,.F.);
#2024 = EDGE_LOOP('',(#2025));
#2025 = ORIENTED_EDGE('',*,*,#2026,.F.);
#2026 = EDGE_CURVE('',#2027,#2027,#2029,.T.);
#2027 = VERTEX_POINT('',#2028);
#2028 = CARTESIAN_POINT('',(68.1,95.,2.5));
#2029 = CIRCLE('',#2030,1.6);
#2030 = AXIS2_PLACEMENT_3D('',#2031,#2032,#2033);
#2031 = CARTESIAN_POINT('',(66.5,95.,2.5));
#2032 = DIRECTION('',(0.,0.,1.));
#2033 = DIRECTION('',(1.,0.,0.));
#2034 = PLANE('',#2035);
#2035 = AXIS2_PLACEMENT_3D('',#2036,#2037,#2038);
#2036 = CARTESIAN_POINT('',(54.999999999998,94.666666666667,2.5));
#2037 = DIRECTION('',(0.,0.,1.));
#2038 = DIRECTION('',(1.,0.,0.));
#2039 = ADVANCED_FACE('',(#2040,#2048),#2059,.F.);
#2040 = FACE_BOUND('',#2041,.F.);
#2041 = EDGE_LOOP('',(#2042,#2043,#2044,#2045,#2046,#2047));
#2042 = ORIENTED_EDGE('',*,*,#1463,.F.);
#2043 = ORIENTED_EDGE('',*,*,#1343,.F.);
#2044 = ORIENTED_EDGE('',*,*,#1374,.F.);
#2045 = ORIENTED_EDGE('',*,*,#1398,.F.);
#2046 = ORIENTED_EDGE('',*,*,#1422,.F.);
#2047 = ORIENTED_EDGE('',*,*,#1446,.F.);
#2048 = FACE_BOUND('',#2049,.F.);
#2049 = EDGE_LOOP('',(#2050));
#2050 = ORIENTED_EDGE('',*,*,#2051,.F.);
#2051 = EDGE_CURVE('',#2052,#2052,#2054,.T.);
#2052 = VERTEX_POINT('',#2053);
#2053 = CARTESIAN_POINT('',(84.1,94.,2.5));
#2054 = CIRCLE('',#2055,1.6);
#2055 = AXIS2_PLACEMENT_3D('',#2056,#2057,#2058);
#2056 = CARTESIAN_POINT('',(82.5,94.,2.5));
#2057 = DIRECTION('',(0.,0.,1.));
#2058 = DIRECTION('',(1.,0.,0.));
#2059 = PLANE('',#2060);
#2060 = AXIS2_PLACEMENT_3D('',#2061,#2062,#2063);
#2061 = CARTESIAN_POINT('',(54.999999999998,94.666666666667,2.5));
#2062 = DIRECTION('',(0.,0.,1.));
#2063 = DIRECTION('',(1.,0.,0.));
#2064 = ADVANCED_FACE('',(#2065,#2073),#2084,.F.);
#2065 = FACE_BOUND('',#2066,.F.);
#2066 = EDGE_LOOP('',(#2067,#2068,#2069,#2070,#2071,#2072));
#2067 = ORIENTED_EDGE('',*,*,#1607,.F.);
#2068 = ORIENTED_EDGE('',*,*,#1487,.F.);
#2069 = ORIENTED_EDGE('',*,*,#1518,.F.);
#2070 = ORIENTED_EDGE('',*,*,#1542,.F.);
#2071 = ORIENTED_EDGE('',*,*,#1566,.F.);
#2072 = ORIENTED_EDGE('',*,*,#1590,.F.);
#2073 = FACE_BOUND('',#2074,.F.);
#2074 = EDGE_LOOP('',(#2075));
#2075 = ORIENTED_EDGE('',*,*,#2076,.F.);
#2076 = EDGE_CURVE('',#2077,#2077,#2079,.T.);
#2077 = VERTEX_POINT('',#2078);
#2078 = CARTESIAN_POINT('',(100.1,95.,2.5));
#2079 = CIRCLE('',#2080,1.6);
#2080 = AXIS2_PLACEMENT_3D('',#2081,#2082,#2083);
#2081 = CARTESIAN_POINT('',(98.5,95.,2.5));
#2082 = DIRECTION('',(0.,0.,1.));
#2083 = DIRECTION('',(1.,0.,0.));
#2084 = PLANE('',#2085);
#2085 = AXIS2_PLACEMENT_3D('',#2086,#2087,#2088);
#2086 = CARTESIAN_POINT('',(54.999999999998,94.666666666667,2.5));
#2087 = DIRECTION('',(0.,0.,1.));
#2088 = DIRECTION('',(1.,0.,0.));
#2089 = ADVANCED_FACE('',(#2090),#2093,.T.);
#2090 = FACE_BOUND('',#2091,.T.);
#2091 = EDGE_LOOP('',(#2092));
#2092 = ORIENTED_EDGE('',*,*,#1761,.T.);
#2093 = PLANE('',#2094);
#2094 = AXIS2_PLACEMENT_3D('',#2095,#2096,#2097);
#2095 = CARTESIAN_POINT('',(55.,41.5,2.5));
#2096 = DIRECTION('',(0.,0.,1.));
#2097 = DIRECTION('',(1.,0.,0.));
#2098 = ADVANCED_FACE('',(#2099),#2102,.T.);
#2099 = FACE_BOUND('',#2100,.T.);
#2100 = EDGE_LOOP('',(#2101));
#2101 = ORIENTED_EDGE('',*,*,#1786,.T.);
#2102 = PLANE('',#2103);
#2103 = AXIS2_PLACEMENT_3D('',#2104,#2105,#2106);
#2104 = CARTESIAN_POINT('',(55.,41.5,2.5));
#2105 = DIRECTION('',(0.,0.,1.));
#2106 = DIRECTION('',(1.,0.,0.));
#2107 = ADVANCED_FACE('',(#2108),#2111,.T.);
#2108 = FACE_BOUND('',#2109,.T.);
#2109 = EDGE_LOOP('',(#2110));
#2110 = ORIENTED_EDGE('',*,*,#1811,.T.);
#2111 = PLANE('',#2112);
#2112 = AXIS2_PLACEMENT_3D('',#2113,#2114,#2115);
#2113 = CARTESIAN_POINT('',(55.,41.5,2.5));
#2114 = DIRECTION('',(0.,0.,1.));
#2115 = DIRECTION('',(1.,0.,0.));
#2116 = ADVANCED_FACE('',(#2117),#2120,.T.);
#2117 = FACE_BOUND('',#2118,.T.);
#2118 = EDGE_LOOP('',(#2119));
#2119 = ORIENTED_EDGE('',*,*,#1836,.T.);
#2120 = PLANE('',#2121);
#2121 = AXIS2_PLACEMENT_3D('',#2122,#2123,#2124);
#2122 = CARTESIAN_POINT('',(55.,41.5,2.5));
#2123 = DIRECTION('',(0.,0.,1.));
#2124 = DIRECTION('',(1.,0.,0.));
#2125 = ADVANCED_FACE('',(#2126),#2137,.F.);
#2126 = FACE_BOUND('',#2127,.F.);
#2127 = EDGE_LOOP('',(#2128,#2134,#2135,#2136));
#2128 = ORIENTED_EDGE('',*,*,#2129,.F.);
#2129 = EDGE_CURVE('',#1860,#1977,#2130,.T.);
#2130 = LINE('',#2131,#2132);
#2131 = CARTESIAN_POINT('',(29.1,94.,3.3));
#2132 = VECTOR('',#2133,1.);
#2133 = DIRECTION('',(-0.,-0.,-1.));
#2134 = ORIENTED_EDGE('',*,*,#1859,.F.);
#2135 = ORIENTED_EDGE('',*,*,#2129,.T.);
#2136 = ORIENTED_EDGE('',*,*,#1976,.T.);
#2137 = CYLINDRICAL_SURFACE('',#2138,1.6);
#2138 = AXIS2_PLACEMENT_3D('',#2139,#2140,#2141);
#2139 = CARTESIAN_POINT('',(27.5,94.,3.3));
#2140 = DIRECTION('',(0.,0.,1.));
#2141 = DIRECTION('',(1.,0.,0.));
#2142 = ADVANCED_FACE('',(#2143),#2154,.F.);
#2143 = FACE_BOUND('',#2144,.F.);
#2144 = EDGE_LOOP('',(#2145,#2151,#2152,#2153));
#2145 = ORIENTED_EDGE('',*,*,#2146,.F.);
#2146 = EDGE_CURVE('',#1871,#1952,#2147,.T.);
#2147 = LINE('',#2148,#2149);
#2148 = CARTESIAN_POINT('',(13.1,95.,3.3));
#2149 = VECTOR('',#2150,1.);
#2150 = DIRECTION('',(-0.,-0.,-1.));
#2151 = ORIENTED_EDGE('',*,*,#1870,.F.);
#2152 = ORIENTED_EDGE('',*,*,#2146,.T.);
#2153 = ORIENTED_EDGE('',*,*,#1951,.T.);
#2154 = CYLINDRICAL_SURFACE('',#2155,1.6);
#2155 = AXIS2_PLACEMENT_3D('',#2156,#2157,#2158);
#2156 = CARTESIAN_POINT('',(11.5,95.,3.3));
#2157 = DIRECTION('',(0.,0.,1.));
#2158 = DIRECTION('',(1.,0.,0.));
#2159 = ADVANCED_FACE('',(#2160),#2171,.F.);
#2160 = FACE_BOUND('',#2161,.F.);
#2161 = EDGE_LOOP('',(#2162,#2168,#2169,#2170));
#2162 = ORIENTED_EDGE('',*,*,#2163,.F.);
#2163 = EDGE_CURVE('',#1882,#2002,#2164,.T.);
#2164 = LINE('',#2165,#2166);
#2165 = CARTESIAN_POINT('',(45.1,95.,3.3));
#2166 = VECTOR('',#2167,1.);
#2167 = DIRECTION('',(-0.,-0.,-1.));
#2168 = ORIENTED_EDGE('',*,*,#1881,.F.);
#2169 = ORIENTED_EDGE('',*,*,#2163,.T.);
#2170 = ORIENTED_EDGE('',*,*,#2001,.T.);
#2171 = CYLINDRICAL_SURFACE('',#2172,1.6);
#2172 = AXIS2_PLACEMENT_3D('',#2173,#2174,#2175);
#2173 = CARTESIAN_POINT('',(43.5,95.,3.3));
#2174 = DIRECTION('',(0.,0.,1.));
#2175 = DIRECTION('',(1.,0.,0.));
#2176 = ADVANCED_FACE('',(#2177),#2188,.F.);
#2177 = FACE_BOUND('',#2178,.F.);
#2178 = EDGE_LOOP('',(#2179,#2185,#2186,#2187));
#2179 = ORIENTED_EDGE('',*,*,#2180,.F.);
#2180 = EDGE_CURVE('',#1905,#2052,#2181,.T.);
#2181 = LINE('',#2182,#2183);
#2182 = CARTESIAN_POINT('',(84.1,94.,3.3));
#2183 = VECTOR('',#2184,1.);
#2184 = DIRECTION('',(-0.,-0.,-1.));
#2185 = ORIENTED_EDGE('',*,*,#1904,.F.);
#2186 = ORIENTED_EDGE('',*,*,#2180,.T.);
#2187 = ORIENTED_EDGE('',*,*,#2051,.T.);
#2188 = CYLINDRICAL_SURFACE('',#2189,1.6);
#2189 = AXIS2_PLACEMENT_3D('',#2190,#2191,#2192);
#2190 = CARTESIAN_POINT('',(82.5,94.,3.3));
#2191 = DIRECTION('',(0.,0.,1.));
#2192 = DIRECTION('',(1.,0.,0.));
#2193 = ADVANCED_FACE('',(#2194),#2205,.F.);
#2194 = FACE_BOUND('',#2195,.F.);
#2195 = EDGE_LOOP('',(#2196,#2202,#2203,#2204));
#2196 = ORIENTED_EDGE('',*,*,#2197,.F.);
#2197 = EDGE_CURVE('',#1916,#2027,#2198,.T.);
#2198 = LINE('',#2199,#2200);
#2199 = CARTESIAN_POINT('',(68.1,95.,3.3));
#2200 = VECTOR('',#2201,1.);
#2201 = DIRECTION('',(-0.,-0.,-1.));
#2202 = ORIENTED_EDGE('',*,*,#1915,.F.);
#2203 = ORIENTED_EDGE('',*,*,#2197,.T.);
#2204 = ORIENTED_EDGE('',*,*,#2026,.T.);
#2205 = CYLINDRICAL_SURFACE('',#2206,1.6);
#2206 = AXIS2_PLACEMENT_3D('',#2207,#2208,#2209);
#2207 = CARTESIAN_POINT('',(66.5,95.,3.3));
#2208 = DIRECTION('',(0.,0.,1.));
#2209 = DIRECTION('',(1.,0.,0.));
#2210 = ADVANCED_FACE('',(#2211),#2222,.F.);
#2211 = FACE_BOUND('',#2212,.F.);
#2212 = EDGE_LOOP('',(#2213,#2219,#2220,#2221));
#2213 = ORIENTED_EDGE('',*,*,#2214,.F.);
#2214 = EDGE_CURVE('',#1927,#2077,#2215,.T.);
#2215 = LINE('',#2216,#2217);
#2216 = CARTESIAN_POINT('',(100.1,95.,3.3));
#2217 = VECTOR('',#2218,1.);
#2218 = DIRECTION('',(-0.,-0.,-1.));
#2219 = ORIENTED_EDGE('',*,*,#1926,.F.);
#2220 = ORIENTED_EDGE('',*,*,#2214,.T.);
#2221 = ORIENTED_EDGE('',*,*,#2076,.T.);
#2222 = CYLINDRICAL_SURFACE('',#2223,1.6);
#2223 = AXIS2_PLACEMENT_3D('',#2224,#2225,#2226);
#2224 = CARTESIAN_POINT('',(98.5,95.,3.3));
#2225 = DIRECTION('',(0.,0.,1.));
#2226 = DIRECTION('',(1.,0.,0.));
#2227 = ( GEOMETRIC_REPRESENTATION_CONTEXT(3) 
GLOBAL_UNCERTAINTY_ASSIGNED_CONTEXT((#2231)) 
GLOBAL_UNIT_ASSIGNED_CONTEXT((#2228,#2229,#2230)) REPRESENTATION_CONTEXT
('Context #1','3D Context with UNIT and UNCERTAINTY') );
#2228 = ( LENGTH_UNIT() NAMED_UNIT(*) SI_UNIT(.MILLI.,.METRE.) );
#2229 = ( NAMED_UNIT(*) PLANE_ANGLE_UNIT() SI_UNIT($,.RADIAN.) );
#2230 = ( NAMED_UNIT(*) SI_UNIT($,.STERADIAN.) SOLID_ANGLE_UNIT() );
#2231 = UNCERTAINTY_MEASURE_WITH_UNIT(LENGTH_MEASURE(1.E-07),#2228,
  'distance_accuracy_value','confusion accuracy');
#2232 = PRODUCT_RELATED_PRODUCT_CATEGORY('part',$,(#7));
#2233 = MECHANICAL_DESIGN_GEOMETRIC_PRESENTATION_REPRESENTATION('',(
    #2234),#2227);
#2234 = STYLED_ITEM('color',(#2235),#15);
#2235 = PRESENTATION_STYLE_ASSIGNMENT((#2236,#2244));
#2236 = SURFACE_STYLE_USAGE(.BOTH.,#2237);
#2237 = SURFACE_SIDE_STYLE('',(#2238,#2242));
#2238 = SURFACE_STYLE_FILL_AREA(#2239);
#2239 = FILL_AREA_STYLE('',(#2240));
#2240 = FILL_AREA_STYLE_COLOUR('',#2241);
#2241 = COLOUR_RGB('',0.380392165758,0.450980401079,0.639215714193);
#2242 = SURFACE_STYLE_RENDERING_WITH_PROPERTIES(.NORMAL_SHADING.,#2241,(
    #2243));
#2243 = SURFACE_STYLE_TRANSPARENT(0.699999988079);
#2244 = CURVE_STYLE('',#2245,POSITIVE_LENGTH_MEASURE(0.1),#2246);
#2245 = DRAUGHTING_PRE_DEFINED_CURVE_FONT('continuous');
#2246 = COLOUR_RGB('',9.803921802644E-02,9.803921802644E-02,
  9.803921802644E-02);
ENDSEC;
END-ISO-10303-21;
